<?xml version="1.0" encoding="UTF-8"?>
<svg version="1.1" xmlns="http://www.w3.org/2000/svg" width="500" height="500">
<path d="M0 0 C19.69528276 17.36576658 34.40001792 38.6391342 40.81640625 64.3046875 C41.11417969 65.37203125 41.41195312 66.439375 41.71875 67.5390625 C49.13508582 98.8448856 43.57070576 134.00934231 27 161.43798828 C8.7209629 190.26668417 -18.5757229 210.49009588 -51.6171875 219.2109375 C-61.37009512 221.33241589 -71.04526873 221.59539555 -80.99609375 221.6171875 C-82.30682861 221.62266602 -83.61756348 221.62814453 -84.96801758 221.63378906 C-118.10088499 221.39070434 -146.30502209 207.7589233 -170.18359375 185.3046875 C-171.06917969 184.51578125 -171.06917969 184.51578125 -171.97265625 183.7109375 C-187.72860868 169.07507648 -197.40273948 148.67183231 -203.18359375 128.3046875 C-203.37066895 127.64871582 -203.55774414 126.99274414 -203.75048828 126.31689453 C-212.04558875 95.41821762 -205.84117418 60.06285733 -190.20703125 32.66015625 C-172.9385825 4.02386768 -145.52335336 -17.14676066 -113.18359375 -25.6953125 C-112.43722656 -25.90800781 -111.69085938 -26.12070313 -110.921875 -26.33984375 C-73.15110286 -36.6544554 -29.27694917 -25.12040117 0 0 Z M-148.18359375 -0.6953125 C-148.18359375 -0.0353125 -148.18359375 0.6246875 -148.18359375 1.3046875 C-149.23546875 1.645 -149.23546875 1.645 -150.30859375 1.9921875 C-153.9248791 3.64310038 -156.27129351 5.595571 -159.18359375 8.3046875 C-159.18359375 8.9646875 -159.18359375 9.6246875 -159.18359375 10.3046875 C-159.84359375 10.3046875 -160.50359375 10.3046875 -161.18359375 10.3046875 C-161.18359375 10.9646875 -161.18359375 11.6246875 -161.18359375 12.3046875 C-162.50359375 12.9646875 -163.82359375 13.6246875 -165.18359375 14.3046875 C-165.18359375 14.9646875 -165.18359375 15.6246875 -165.18359375 16.3046875 C-165.84359375 16.3046875 -166.50359375 16.3046875 -167.18359375 16.3046875 C-167.18359375 16.9646875 -167.18359375 17.6246875 -167.18359375 18.3046875 C-167.84359375 18.3046875 -168.50359375 18.3046875 -169.18359375 18.3046875 C-170.99988151 20.24844704 -170.99988151 20.24844704 -172.80859375 22.6796875 C-173.44023437 23.49179688 -174.071875 24.30390625 -174.72265625 25.140625 C-176.37010183 27.14578629 -176.37010183 27.14578629 -176.18359375 29.3046875 C-176.84359375 29.3046875 -177.50359375 29.3046875 -178.18359375 29.3046875 C-180.21669643 32.95384615 -182.20159814 36.62756407 -184.18359375 40.3046875 C-184.77140625 41.35398438 -185.35921875 42.40328125 -185.96484375 43.484375 C-191.10745528 53.07038333 -193.87476395 62.71937072 -196.18359375 73.3046875 C-196.43109375 74.42617187 -196.67859375 75.54765625 -196.93359375 76.703125 C-199.79782847 92.17794868 -198.77459433 108.06632332 -195.18359375 123.3046875 C-195.02793945 123.99095215 -194.87228516 124.6772168 -194.71191406 125.38427734 C-191.99081757 136.99917724 -187.09831309 147.0205951 -181.24926758 157.3762207 C-180.17113993 159.32722421 -179.16708644 161.30455694 -178.18359375 163.3046875 C-177.52359375 163.3046875 -176.86359375 163.3046875 -176.18359375 163.3046875 C-175.92578125 163.86671875 -175.66796875 164.42875 -175.40234375 165.0078125 C-174.04189598 167.57173329 -172.45570413 169.75695115 -170.68359375 172.0546875 C-170.07515625 172.85390625 -169.46671875 173.653125 -168.83984375 174.4765625 C-168.29328125 175.07984375 -167.74671875 175.683125 -167.18359375 176.3046875 C-166.52359375 176.3046875 -165.86359375 176.3046875 -165.18359375 176.3046875 C-165.18359375 176.9646875 -165.18359375 177.6246875 -165.18359375 178.3046875 C-164.52359375 178.3046875 -163.86359375 178.3046875 -163.18359375 178.3046875 C-163.18359375 178.9646875 -163.18359375 179.6246875 -163.18359375 180.3046875 C-162.52359375 180.3046875 -161.86359375 180.3046875 -161.18359375 180.3046875 C-161.18359375 180.9646875 -161.18359375 181.6246875 -161.18359375 182.3046875 C-160.52359375 182.3046875 -159.86359375 182.3046875 -159.18359375 182.3046875 C-159.18359375 182.9646875 -159.18359375 183.6246875 -159.18359375 184.3046875 C-157.23983421 186.12097526 -157.23983421 186.12097526 -154.80859375 187.9296875 C-153.99648437 188.56132812 -153.184375 189.19296875 -152.34765625 189.84375 C-150.34249496 191.49119558 -150.34249496 191.49119558 -148.18359375 191.3046875 C-148.18359375 191.9646875 -148.18359375 192.6246875 -148.18359375 193.3046875 C-119.29263984 209.70225594 -89.32538422 218.24542288 -56.13183594 210.74023438 C-54.27391816 210.32488033 -52.40453736 209.96182867 -50.53515625 209.6015625 C-33.53851378 205.84091709 -18.38564483 196.37870844 -5.18359375 185.3046875 C-4.02537109 184.48484375 -4.02537109 184.48484375 -2.84375 183.6484375 C-2.29589844 183.205 -1.74804688 182.7615625 -1.18359375 182.3046875 C-1.18359375 181.6446875 -1.18359375 180.9846875 -1.18359375 180.3046875 C-0.52359375 180.3046875 0.13640625 180.3046875 0.81640625 180.3046875 C0.81640625 179.6446875 0.81640625 178.9846875 0.81640625 178.3046875 C1.47640625 178.3046875 2.13640625 178.3046875 2.81640625 178.3046875 C2.81640625 177.6446875 2.81640625 176.9846875 2.81640625 176.3046875 C3.47640625 176.3046875 4.13640625 176.3046875 4.81640625 176.3046875 C6.4227464 174.57076799 7.95393495 172.7665965 9.44140625 170.9296875 C10.66730469 169.43308594 10.66730469 169.43308594 11.91796875 167.90625 C14.01289594 165.57218865 14.01289594 165.57218865 13.81640625 163.3046875 C14.47640625 163.3046875 15.13640625 163.3046875 15.81640625 163.3046875 C23.89950907 149.12863975 30.6346222 135.36432383 33.81640625 119.3046875 C34.15285156 117.74427734 34.15285156 117.74427734 34.49609375 116.15234375 C40.36728629 84.90633959 31.30177191 56.10230247 15.81640625 29.3046875 C15.15640625 29.3046875 14.49640625 29.3046875 13.81640625 29.3046875 C13.60886719 28.61890625 13.40132812 27.933125 13.1875 27.2265625 C11.36758205 23.34821884 8.80159336 20.64766197 5.87890625 17.5546875 C5.34072266 16.96558594 4.80253906 16.37648437 4.24804688 15.76953125 C1.03123064 12.30815353 1.03123064 12.30815353 -3.18359375 10.3046875 C-3.18359375 9.6446875 -3.18359375 8.9846875 -3.18359375 8.3046875 C-5.12735329 6.48839974 -5.12735329 6.48839974 -7.55859375 4.6796875 C-8.37070312 4.04804688 -9.1828125 3.41640625 -10.01953125 2.765625 C-12.02469254 1.11817942 -12.02469254 1.11817942 -14.18359375 1.3046875 C-14.18359375 0.6446875 -14.18359375 -0.0153125 -14.18359375 -0.6953125 C-17.83275522 -2.72841675 -21.50548273 -4.71512522 -25.18359375 -6.6953125 C-26.24449219 -7.283125 -27.30539062 -7.8709375 -28.3984375 -8.4765625 C-37.68014809 -13.41525565 -46.96744741 -16.3513377 -57.18359375 -18.6953125 C-58.25996094 -18.9428125 -59.33632813 -19.1903125 -60.4453125 -19.4453125 C-91.95516111 -25.37657812 -121.1700526 -16.30545404 -148.18359375 -0.6953125 Z " fill="#232323" transform="translate(331.18359375,153.6953125)"/>
<path d="M0 0 C2.74724097 -0.07817154 5.49368468 -0.12971852 8.24169922 -0.171875 C9.12051758 -0.1934668 9.99933594 -0.21505859 10.90478516 -0.23730469 C11.72366211 -0.24149414 12.54253906 -0.24568359 13.38623047 -0.25 C14.11817627 -0.2593457 14.85012207 -0.26869141 15.60424805 -0.27832031 C16.50759888 -0.10187988 16.50759888 -0.10187988 17.42919922 0.078125 C19.94701126 3.85484305 19.70352156 6.83311721 19.67211914 11.20556641 C19.67401749 12.03345169 19.67591583 12.86133698 19.6778717 13.71430969 C19.68157886 16.45286504 19.67087768 19.19115569 19.65966797 21.9296875 C19.65847621 23.82872486 19.658023 25.72776282 19.65827942 27.62680054 C19.65671475 31.60638113 19.64842512 35.58587173 19.63500977 39.56542969 C19.61799686 44.67816395 19.61419608 49.79079948 19.61495495 54.90355873 C19.61468368 58.82391307 19.60920976 62.74424563 19.60195351 66.66459274 C19.59876165 68.55053925 19.59679823 70.43648823 19.5960598 72.32243729 C19.59390299 74.95149231 19.58517384 77.58044042 19.57446289 80.20947266 C19.57491608 80.99597702 19.57536926 81.78248138 19.57583618 82.59281921 C19.54367507 87.96364915 19.54367507 87.96364915 18.42919922 89.078125 C16.81416912 89.21197351 15.19373898 89.28167365 13.57373047 89.32421875 C12.56544189 89.35555908 11.55715332 89.38689941 10.51831055 89.41918945 C9.43702881 89.45101318 8.35574707 89.48283691 7.24169922 89.515625 C-9.29496051 90.12215151 -24.77134093 91.83085198 -39.76611328 99.44140625 C-41.57080078 100.078125 -41.57080078 100.078125 -44.57080078 99.078125 C-44.64024018 87.7865855 -44.69358121 76.4950966 -44.7262373 65.20338726 C-44.74190875 59.96046609 -44.76317403 54.71769075 -44.79711914 49.47485352 C-44.82965979 44.41741816 -44.84764265 39.36012327 -44.85543251 34.30259132 C-44.86098554 32.3708252 -44.87182897 30.43906696 -44.88799095 28.50736046 C-44.90969491 25.80641296 -44.91277067 23.10604964 -44.91137695 20.4050293 C-44.92216278 19.60230087 -44.93294861 18.79957245 -44.94406128 17.97251892 C-44.913801 12.57089363 -44.913801 12.57089363 -43.24873352 10.17878723 C-30.31217517 1.69288023 -15.06386804 0.45778137 0 0 Z " fill="#060606" transform="translate(297.57080078125,197.921875)"/>
<path d="M0 0 C2.99739974 -0.00680626 5.99478368 -0.01173696 8.9921875 -0.015625 C9.83031982 -0.01771973 10.66845215 -0.01981445 11.53198242 -0.02197266 C28.86058609 -0.03877208 47.56860121 0.14304489 62 11 C63.79988399 12.79988399 63.11993004 15.24999876 63.12442017 17.64555359 C63.11902725 18.86043205 63.11902725 18.86043205 63.11352539 20.09985352 C63.11367142 20.94856018 63.11381744 21.79726685 63.1139679 22.67169189 C63.11326848 25.49078891 63.10547478 28.30982071 63.09765625 31.12890625 C63.09579217 33.07803817 63.09436822 35.02717055 63.09336853 36.9763031 C63.08954255 42.11706832 63.07971159 47.25780547 63.06866455 52.39855957 C63.05845215 57.64005148 63.05387128 62.8815479 63.04882812 68.12304688 C63.03808939 78.41537694 63.02101201 88.70768614 63 99 C58.20147141 100.59950953 54.05468987 97.8654803 49.5703125 95.9765625 C36.20148193 90.43745201 22.82823939 89.89929826 8.5078125 89.39453125 C7.56679687 89.35714844 6.62578125 89.31976563 5.65625 89.28125 C4.38491211 89.23581055 4.38491211 89.23581055 3.08789062 89.18945312 C1 89 1 89 -1 88 C-1.12350371 58.64791778 -0.92544853 29.33868749 0 0 Z " fill="#060606" transform="translate(184,198)"/>
<path d="M0 0 C0.33 0 0.66 0 1 0 C1.01458252 0.78947021 1.02916504 1.57894043 1.04418945 2.39233398 C1.43219365 24.37066321 1.43219365 24.37066321 5 46 C5.1542041 46.67321289 5.3084082 47.34642578 5.46728516 48.04003906 C8.19723645 59.70561357 13.11121858 69.70496966 19.04785156 80.0715332 C20.01751969 82.03548411 20.55103545 83.86205941 21 86 C21.66 86 22.32 86 23 86 C24.65625 87.828125 24.65625 87.828125 26.5 90.25 C27.1084375 91.03890625 27.716875 91.8278125 28.34375 92.640625 C29.79739033 94.71137679 30.94765743 96.7058932 32 99 C32.66 99 33.32 99 34 99 C34 99.66 34 100.32 34 101 C34.66 101 35.32 101 36 101 C36 101.66 36 102.32 36 103 C36.66 103 37.32 103 38 103 C38 103.66 38 104.32 38 105 C38.66 105 39.32 105 40 105 C40 105.66 40 106.32 40 107 C40.515625 107.226875 41.03125 107.45375 41.5625 107.6875 C44.89547005 109.48217618 48.14703671 111.49965015 51 114 C51 114.66 51 115.32 51 116 C51.58072266 116.12221924 52.16144531 116.24443848 52.75976562 116.37036133 C55.05623238 117.01580463 56.78453329 117.88043653 58.84375 119.07421875 C67.13116515 123.74095351 75.23291914 127.78649627 84.375 130.5 C85.14521484 130.73033936 85.91542969 130.96067871 86.70898438 131.19799805 C99.88825207 134.87512495 112.74496622 135.26412727 126.3125 135.125 C128.03580204 135.11494213 129.75910982 135.10582128 131.48242188 135.09765625 C135.65509262 135.07588343 139.82748087 135.04151125 144 135 C141.50974026 140.11769481 141.50974026 140.11769481 139 142 C134.13639727 143.07223585 129.36496184 143.19105768 124.41015625 143.23828125 C123.17778481 143.25038887 123.17778481 143.25038887 121.92051697 143.26274109 C120.18327913 143.276526 118.44601484 143.28727297 116.70874023 143.29516602 C114.96061057 143.306617 113.21251393 143.32695799 111.46459961 143.35668945 C99.92160415 143.55251887 89.98396798 142.71991761 79 139 C78.22245361 138.74307373 77.44490723 138.48614746 76.64379883 138.22143555 C58.25969835 131.76830744 43.10824698 121.26670243 29 108 C28.11441406 107.21109375 28.11441406 107.21109375 27.2109375 106.40625 C11.45498507 91.77038898 1.78085427 71.36714481 -4 51 C-4.1870752 50.34402832 -4.37415039 49.68805664 -4.56689453 49.01220703 C-7.06167563 39.71931958 -7.25607829 30.32860333 -7.375 20.75 C-7.41238281 19.59242188 -7.44976562 18.43484375 -7.48828125 17.2421875 C-7.57656357 8.74746677 -7.57656357 8.74746677 -4.6015625 4.890625 C-3.74304688 4.26671875 -2.88453125 3.6428125 -2 3 C-1.34 2.01 -0.68 1.02 0 0 Z " fill="#252525" transform="translate(132,231)"/>
<path d="M0 0 C4.29 0 8.58 0 13 0 C13.02312166 12.23880329 13.04091418 24.47760143 13.05181217 36.71642208 C13.05704139 42.39876512 13.06413973 48.08109327 13.07543945 53.76342773 C13.08626696 59.24229136 13.09227654 64.72114062 13.09487724 70.20001411 C13.09673174 72.29529611 13.10035282 74.39057728 13.10573006 76.4858532 C13.11293868 79.40977584 13.11399102 82.33363833 13.11352539 85.25756836 C13.11712067 86.1329425 13.12071594 87.00831665 13.12442017 87.91021729 C13.11405216 93.88594784 13.11405216 93.88594784 12 95 C9.79132169 95.09432985 7.57958479 95.11742431 5.36889648 95.11352539 C4.67624695 95.11367142 3.98359741 95.11381744 3.2699585 95.1139679 C0.97030554 95.11326874 -1.32926737 95.10547628 -3.62890625 95.09765625 C-5.21931412 95.09579208 -6.80972257 95.09436817 -8.40013123 95.09336853 C-12.5939593 95.08954329 -16.78775295 95.07971295 -20.98156738 95.06866455 C-25.25788914 95.05845057 -29.53421644 95.05387094 -33.81054688 95.04882812 C-42.20704708 95.03809069 -50.60351926 95.02101419 -59 95 C-59.33 94.34 -59.66 93.68 -60 93 C-58.28862733 89.57725467 -54.57125244 89.1550929 -51.1015625 87.94921875 C-38.68471763 84.14910124 -25.69814354 83.8393668 -12.8125 83.9375 C-11.09836914 83.94426758 -11.09836914 83.94426758 -9.34960938 83.95117188 C-6.5663489 83.96281732 -3.78320428 83.97917003 -1 84 C-1.00222061 83.16887192 -1.00444122 82.33774384 -1.00672913 81.48143005 C-1.02690784 73.5835351 -1.04206273 65.68564901 -1.05181217 57.78773403 C-1.0569932 53.7290021 -1.06400209 49.67029177 -1.07543945 45.61157227 C-1.08644064 41.68228511 -1.09231265 37.75301851 -1.09487724 33.82371712 C-1.09670088 32.33729797 -1.10026045 30.85087973 -1.10573006 29.36446953 C-1.14045041 19.52220817 -0.74991167 9.81631779 0 0 Z " fill="#191919" transform="translate(322,207)"/>
<path d="M0 0 C1.79133978 -0.05391993 3.58313899 -0.09275571 5.375 -0.125 C6.37273437 -0.14820313 7.37046875 -0.17140625 8.3984375 -0.1953125 C11 0 11 0 13 2 C13.18791915 4.62025721 13.25185785 7.13391315 13.22705078 9.75439453 C13.22734283 10.55447937 13.22763489 11.35456421 13.22793579 12.17889404 C13.22653956 14.83030953 13.2109647 17.48144594 13.1953125 20.1328125 C13.19158341 21.96841274 13.18873595 23.80401498 13.18673706 25.63961792 C13.1790924 30.47627232 13.1594368 35.31280703 13.1373291 40.14941406 C13.11688857 45.08266582 13.10773919 50.01593687 13.09765625 54.94921875 C13.07619167 64.63286515 13.04204572 74.31642263 13 84 C14.08888016 83.99868576 15.17776031 83.99737152 16.29963684 83.99601746 C17.74769081 83.99495435 19.19574481 83.99392355 20.64379883 83.99291992 C21.35917061 83.99197075 22.07454239 83.99102158 22.8115921 83.99004364 C36.38764424 83.98299872 49.90779157 84.01707196 63 88 C64.25103516 88.35771484 64.25103516 88.35771484 65.52734375 88.72265625 C67.75 89.4375 67.75 89.4375 71 91 C71.703125 93.09765625 71.703125 93.09765625 72 95 C63.07260443 95.02317125 54.14521922 95.04093952 45.21780014 95.05181217 C41.07243538 95.05703051 36.9270912 95.06410917 32.78173828 95.07543945 C28.78117928 95.08630554 24.78064007 95.09228475 20.78006744 95.09487724 C19.25385476 95.09672477 17.72764316 95.1003325 16.2014389 95.10573006 C14.06363077 95.11298985 11.92590441 95.11398885 9.78808594 95.11352539 C7.96274323 95.11685631 7.96274323 95.11685631 6.1005249 95.12025452 C3.52803333 95.02047988 1.44095129 94.76354775 -1 94 C-1.02319512 82.77750811 -1.04095164 71.55502195 -1.05181217 60.33251095 C-1.05702531 55.12116078 -1.06409445 49.90982704 -1.07543945 44.69848633 C-1.0863241 39.66698101 -1.09228866 34.63549148 -1.09487724 29.6039753 C-1.09672144 27.68669957 -1.10032267 25.76942468 -1.10573006 23.85215569 C-1.11301451 21.16175359 -1.11398782 18.47141627 -1.11352539 15.78100586 C-1.11712067 14.99265854 -1.12071594 14.20431122 -1.12442017 13.39207458 C-1.115955 8.82497631 -0.75264174 4.50632098 0 0 Z " fill="#141414" transform="translate(166,207)"/>
<path d="M0 0 C-4.75 4 -4.75 4 -7 4 C-7 4.66 -7 5.32 -7 6 C-4.69 6.33 -2.38 6.66 0 7 C0 7.33 0 7.66 0 8 C-1.0415625 8.15855469 -2.083125 8.31710938 -3.15625 8.48046875 C-19.73417315 11.12411779 -37.66639121 15.28484565 -51.265625 25.7421875 C-53 27 -53 27 -56 27 C-56 27.66 -56 28.32 -56 29 C-57.64453125 30.47265625 -57.64453125 30.47265625 -59.8125 32.0625 C-60.52019531 32.58972656 -61.22789062 33.11695313 -61.95703125 33.66015625 C-64 35 -64 35 -67 36 C-67 36.66 -67 37.32 -67 38 C-67.66 38 -68.32 38 -69 38 C-69 38.66 -69 39.32 -69 40 C-70.875 42.125 -70.875 42.125 -73 44 C-73.66 44 -74.32 44 -75 44 C-75 44.66 -75 45.32 -75 46 C-75.66 46 -76.32 46 -77 46 C-77.226875 46.515625 -77.45375 47.03125 -77.6875 47.5625 C-79.48217618 50.89547005 -81.49965015 54.14703671 -84 57 C-84.66 57 -85.32 57 -86 57 C-86.11698242 57.57097412 -86.23396484 58.14194824 -86.35449219 58.73022461 C-87.05539544 61.19478495 -88.05295739 63.09601459 -89.328125 65.31640625 C-98.12999952 81.06250368 -102.84922448 96.11967218 -105 114 C-105.33 114 -105.66 114 -106 114 C-106.33 111.69 -106.66 109.38 -107 107 C-109.43929746 108.92576115 -111.80090595 110.80090595 -114 113 C-112.88099929 79.82162896 -95.29108363 51.22678669 -71.75 28.875 C-57.1193985 15.94370349 -39.85394339 6.98376965 -21 2 C-20.25363281 1.78730469 -19.50726563 1.57460937 -18.73828125 1.35546875 C-12.63760592 -0.310531 -6.17298464 -1.84911477 0 0 Z " fill="#242424" transform="translate(239,126)"/>
<path d="M0 0 C0.33 0 0.66 0 1 0 C1 14.19 1 28.38 1 43 C1.99 43.33 2.98 43.66 4 44 C4 44.66 4 45.32 4 46 C4.99 46.33 5.98 46.66 7 47 C8.36639342 48.6396721 9.6949419 50.31110128 11 52 C13.35477895 54.47553685 15.658177 56.73913508 18.375 58.8125 C21.37044916 61.30870763 23.76407682 64.0746381 26.2890625 67.03515625 C27.7615768 68.72619436 29.26989937 70.31165054 30.875 71.875 C33 74 33 74 34 76 C36.52733235 76.65555119 36.52733235 76.65555119 39 77 C39 77.33 39 77.66 39 78 C38.14019531 78.09796875 37.28039062 78.1959375 36.39453125 78.296875 C25.24648774 79.70709643 14.8840316 82.24753868 4.8046875 87.36328125 C3 88 3 88 0 87 C0 58.29 0 29.58 0 0 Z " fill="#111111" transform="translate(253,210)"/>
<path d="M0 0 C0.33 0 0.66 0 1 0 C1 28.71 1 57.42 1 87 C-3.79852859 88.59950953 -7.94531013 85.8654803 -12.4296875 83.9765625 C-21.22196744 80.33365523 -29.53049606 78.75123413 -39 78 C-39 77.67 -39 77.34 -39 77 C-37.02 77 -35.04 77 -33 77 C-33 76.34 -33 75.68 -33 75 C-31.33784732 73.66104368 -29.67036393 72.32869858 -28 71 C-27.278125 70.0925 -26.55625 69.185 -25.8125 68.25 C-25.214375 67.5075 -24.61625 66.765 -24 66 C-23.34 66 -22.68 66 -22 66 C-21.773125 65.4225 -21.54625 64.845 -21.3125 64.25 C-19.66800353 61.43086319 -17.5644533 59.98745131 -15 58 C-14.34 57.01 -13.68 56.02 -13 55 C-12.34 55 -11.68 55 -11 55 C-11 54.34 -11 53.68 -11 53 C-10.34 53 -9.68 53 -9 53 C-8.67 52.01 -8.34 51.02 -8 50 C-7.34 50 -6.68 50 -6 50 C-5.67 49.01 -5.34 48.02 -5 47 C-4.34 47 -3.68 47 -3 47 C-2.67 46.01 -2.34 45.02 -2 44 C-1.34 44 -0.68 44 0 44 C0 29.48 0 14.96 0 0 Z " fill="#202020" transform="translate(246,210)"/>
<path d="M0 0 C1.32 0.33 2.64 0.66 4 1 C4 1.66 4 2.32 4 3 C5.65 3.33 7.3 3.66 9 4 C9 14.56 9 25.12 9 36 C8.34 36 7.68 36 7 36 C7.144375 36.721875 7.28875 37.44375 7.4375 38.1875 C7.293125 39.115625 7.14875 40.04375 7 41 C3.535 43.475 3.535 43.475 0 46 C0 30.82 0 15.64 0 0 Z " fill="#101010" transform="translate(366,230)"/>
<path d="M0 0 C16.83 0 33.66 0 51 0 C48.4 5.2 48.4 5.2 46 7 C39.70477501 8.34573296 33.41327362 8.18606667 27.00463867 8.18530273 C24.93973422 8.18749763 22.87535769 8.20571568 20.81054688 8.22460938 C19.50021484 8.22654297 18.18988281 8.22847656 16.83984375 8.23046875 C15.05114868 8.23663208 15.05114868 8.23663208 13.22631836 8.24291992 C9.8906865 7.99176943 7.89900813 7.65382049 5 6 C3.35 4.02 1.7 2.04 0 0 Z " fill="#0F0F0F" transform="translate(225,366)"/>
<path d="M0 0 C0.33 0 0.66 0 1 0 C1.33 14.52 1.66 29.04 2 44 C1.34 44 0.68 44 0 44 C0 43.34 0 42.68 0 42 C-0.66 42 -1.32 42 -2 42 C-2 41.34 -2 40.68 -2 40 C-3.485 40.495 -3.485 40.495 -5 41 C-5 38.69 -5 36.38 -5 34 C-5.66 34 -6.32 34 -7 34 C-7.14541967 29.77119589 -7.23411527 25.54303587 -7.3125 21.3125 C-7.35439453 20.11431641 -7.39628906 18.91613281 -7.43945312 17.68164062 C-7.56397979 8.74062599 -7.56397979 8.74062599 -4.60546875 4.85546875 C-3.74566406 4.24316406 -2.88585937 3.63085938 -2 3 C-1.34 2.01 -0.68 1.02 0 0 Z " fill="#090909" transform="translate(132,231)"/>
<path d="M0 0 C1.20849609 0.02255859 2.41699219 0.04511719 3.66210938 0.06835938 C6.63019561 0.12701721 9.59569326 0.20905486 12.5625 0.3125 C12.5625 1.6325 12.5625 2.9525 12.5625 4.3125 C13.5215625 4.745625 13.5215625 4.745625 14.5 5.1875 C16.5625 6.3125 16.5625 6.3125 17.5625 8.3125 C4.6925 8.3125 -8.1775 8.3125 -21.4375 8.3125 C-20.28750302 4.86250907 -18.78706787 3.37533159 -15.80419922 1.34228516 C-10.81951265 -0.82662427 -5.33101059 -0.18904293 0 0 Z " fill="#121212" transform="translate(252.4375,124.6875)"/>
<path d="M0 0 C1.32 0 2.64 0 4 0 C4 0.66 4 1.32 4 2 C2.390625 3.55078125 2.390625 3.55078125 0.25 5.3125 C-2.10060645 7.30558414 -4.06918358 9.08647948 -6 11.5 C-7.70911994 13.63639992 -9.24305775 15.12904658 -11.3125 16.875 C-18.27852548 22.80607312 -24.57648573 29.49493721 -31 36 C-31.33 35.34 -31.66 34.68 -32 34 C-31.67 33.34 -31.34 32.68 -31 32 C-30.34 32 -29.68 32 -29 32 C-28.773125 31.443125 -28.54625 30.88625 -28.3125 30.3125 C-25.98111224 26.2048168 -22.43572367 23.32495961 -18.8125 20.375 C-15.88119654 18.12277665 -15.88119654 18.12277665 -14 15 C-13.34 15 -12.68 15 -12 15 C-12 14.34 -12 13.68 -12 13 C-11.34 13 -10.68 13 -10 13 C-10 12.34 -10 11.68 -10 11 C-7.625 8.375 -7.625 8.375 -5 6 C-4.34 6 -3.68 6 -3 6 C-2.690625 5.38125 -2.38125 4.7625 -2.0625 4.125 C-1.375 2.75 -0.6875 1.375 0 0 Z " fill="#151515" transform="translate(287,210)"/>
<path d="M0 0 C0.66 0 1.32 0 2 0 C2.495 1.98 2.495 1.98 3 4 C-19.77 4 -42.54 4 -66 4 C-66 3.67 -66 3.34 -66 3 C-44.22 3 -22.44 3 0 3 C0 2.01 0 1.02 0 0 Z " fill="#A2A2A2" transform="translate(235,298)"/>
<path d="M0 0 C-0.125 1.75 -0.125 1.75 -1 4 C-2.36981124 4.93548084 -3.74772675 5.86176699 -5.16796875 6.71875 C-8.87139472 9.30877925 -11.88648625 12.74424451 -15 16 C-15.99 15.67 -16.98 15.34 -18 15 C-16.27399233 13.2467873 -14.54435703 11.49741929 -12.8125 9.75 C-12.08836914 9.01330078 -12.08836914 9.01330078 -11.34960938 8.26171875 C-3.14296875 0 -3.14296875 0 0 0 Z " fill="#464646" transform="translate(175,150)"/>
<path d="M0 0 C0.66 0.33 1.32 0.66 2 1 C1.67 1.66 1.34 2.32 1 3 C0.34 3 -0.32 3 -1 3 C-1 3.66 -1 4.32 -1 5 C-1.66 5 -2.32 5 -3 5 C-3.268125 5.598125 -3.53625 6.19625 -3.8125 6.8125 C-5.9895593 10.82287239 -8.95769554 12.92702335 -13 15 C-13.66 14.67 -14.32 14.34 -15 14 C-13.54712339 12.66072279 -12.08752741 11.32873153 -10.625 10 C-9.81289063 9.2575 -9.00078125 8.515 -8.1640625 7.75 C-6 6 -6 6 -4 6 C-4 5.34 -4 4.68 -4 4 C-3.34 4 -2.68 4 -2 4 C-2 3.34 -2 2.68 -2 2 C-1.34 2 -0.68 2 0 2 C0 1.34 0 0.68 0 0 Z " fill="#676767" transform="translate(334,330)"/>
<path d="M0 0 C0.99 0.33 1.98 0.66 3 1 C3 1.66 3 2.32 3 3 C3.99 3.33 4.98 3.66 6 4 C7.37073786 5.63604196 8.70055256 7.30678061 10 9 C11.31494512 10.35147138 12.64264858 11.69112542 14 13 C13.01 13 12.02 13 11 13 C11 12.34 11 11.68 11 11 C10.12601562 10.61328125 10.12601562 10.61328125 9.234375 10.21875 C6.8197097 8.90165983 5.18259823 7.44911616 3.25 5.5 C2.63640625 4.8915625 2.0228125 4.283125 1.390625 3.65625 C0 2 0 2 0 0 Z " fill="#151515" transform="translate(254,253)"/>
<path d="M0 0 C0.66 0 1.32 0 2 0 C2.33 1.32 2.66 2.64 3 4 C-4.59 4 -12.18 4 -20 4 C-20 3.67 -20 3.34 -20 3 C-13.4 3 -6.8 3 0 3 C0 2.01 0 1.02 0 0 Z " fill="#8C8C8C" transform="translate(235,298)"/>
<path d="M0 0 C1.17571451 3.67410785 1.07366746 7.16929183 1 11 C2.32 10.01 3.64 9.02 5 8 C3.50179841 11.81360406 1.19998733 13.53926661 -2 16 C-1.85890014 13.89551062 -1.71195825 11.7914123 -1.5625 9.6875 C-1.48128906 8.51574219 -1.40007812 7.34398437 -1.31640625 6.13671875 C-1 3 -1 3 0 0 Z " fill="#666666" transform="translate(127,223)"/>
<path d="M0 0 C1.9375 0.8125 1.9375 0.8125 4 2 C4.33 2.99 4.66 3.98 5 5 C5.66 5 6.32 5 7 5 C8.7143618 6.95927063 10.38405168 8.95880212 12 11 C9 11 9 11 6.73828125 9.1015625 C5.93777344 8.28429687 5.13726562 7.46703125 4.3125 6.625 C3.50425781 5.81289062 2.69601563 5.00078125 1.86328125 4.1640625 C0 2 0 2 0 0 Z " fill="#161616" transform="translate(209,208)"/>
<path d="M0 0 C0 0.66 0 1.32 0 2 C-3.1749094 3.9078584 -5.10585211 4.1609041 -8.75 3.625 C-9.54921875 3.51414062 -10.3484375 3.40328125 -11.171875 3.2890625 C-11.77515625 3.19367188 -12.3784375 3.09828125 -13 3 C-13 2.67 -13 2.34 -13 2 C-11.39658445 1.66307215 -9.79223445 1.33058907 -8.1875 1 C-7.29417969 0.814375 -6.40085937 0.62875 -5.48046875 0.4375 C-3 0 -3 0 0 0 Z " fill="#7A7A7A" transform="translate(280,363)"/>
<path d="M0 0 C1.875 0.1875 1.875 0.1875 4 1 C5.25 3.5625 5.25 3.5625 6 6 C6.66 6 7.32 6 8 6 C8 6.66 8 7.32 8 8 C4.63820226 6.55922954 2.40843732 4.75249979 0 2 C0 1.34 0 0.68 0 0 Z " fill="#131313" transform="translate(238,237)"/>
<path d="M0 0 C4.74908547 2.80627778 7.19372222 5.25091453 10 10 C5.86360664 8.40907948 2.76786752 5.39525082 0 2 C0 1.34 0 0.68 0 0 Z " fill="#171717" transform="translate(221,220)"/>
<path d="M0 0 C-3.77222089 1.75163456 -6.666639 2.22490027 -10.8125 2.125 C-12.27623047 2.09792969 -12.27623047 2.09792969 -13.76953125 2.0703125 C-14.50558594 2.04710937 -15.24164063 2.02390625 -16 2 C-13.04655319 0.03103546 -11.94214163 -0.33984715 -8.5625 -0.6875 C-7.41974609 -0.81705078 -7.41974609 -0.81705078 -6.25390625 -0.94921875 C-3.96788208 -1.00072363 -2.17903015 -0.66016176 0 0 Z " fill="#797979" transform="translate(239,126)"/>
<path d="M0 0 C3.63 0.33 7.26 0.66 11 1 C11 1.33 11 1.66 11 2 C4.375 3 4.375 3 1 3 C0.67 2.01 0.34 1.02 0 0 Z " fill="#676767" transform="translate(222,364)"/>
<path d="M0 0 C0.33 1.32 0.66 2.64 1 4 C-1.97 6.475 -1.97 6.475 -5 9 C-4.42647107 5.12867972 -2.51295648 2.91827204 0 0 Z " fill="#585858" transform="translate(342,321)"/>
<path d="M0 0 C2.475 0.495 2.475 0.495 5 1 C5 2.32 5 3.64 5 5 C5.99 5.33 6.98 5.66 8 6 C7.01 6.33 6.02 6.66 5 7 C3.35 4.69 1.7 2.38 0 0 Z " fill="#585858" transform="translate(339,174)"/>
<path d="M0 0 C0.33 0 0.66 0 1 0 C1.25 7.625 1.25 7.625 -1 11 C-1.66 9.35 -2.32 7.7 -3 6 C-2.01 5.67 -1.02 5.34 0 5 C0 3.35 0 1.7 0 0 Z " fill="#626262" transform="translate(373,266)"/>
<path d="M0 0 C-0.33 1.32 -0.66 2.64 -1 4 C-2.98 4.33 -4.96 4.66 -7 5 C-2.25 0 -2.25 0 0 0 Z " fill="#4D4D4D" transform="translate(175,150)"/>
</svg>
