<?xml version="1.0" encoding="UTF-8"?>
<svg version="1.1" xmlns="http://www.w3.org/2000/svg" width="720" height="347">
<path d="M0 0 C0.71244486 -0.00380567 1.42488971 -0.00761134 2.1589238 -0.01153234 C4.5465362 -0.02183977 6.93391048 -0.01794354 9.32153893 -0.01409245 C11.05058345 -0.01854532 12.77962595 -0.02385953 14.50866544 -0.02996117 C19.2606187 -0.04414585 24.01250657 -0.04580437 28.76447797 -0.04536426 C33.88940805 -0.04701207 39.01431117 -0.06007796 44.13922691 -0.07155704 C55.34593113 -0.09440952 66.55261641 -0.102328 77.75934076 -0.10738349 C84.75769044 -0.11064037 91.75603461 -0.11716281 98.75438118 -0.12438488 C118.13311206 -0.14395151 137.51183783 -0.16035522 156.89057922 -0.16326141 C158.13074648 -0.16344898 159.37091373 -0.16363655 160.64866181 -0.16382981 C163.16276002 -0.16419606 165.67685822 -0.16455975 168.19095643 -0.16492092 C169.43894947 -0.16510373 170.68694251 -0.16528654 171.97275352 -0.16547489 C173.22227099 -0.16565544 174.47178846 -0.16583599 175.7591701 -0.16602201 C196.00389049 -0.16956332 216.24850449 -0.1965828 236.49318798 -0.23397278 C257.2811497 -0.27205869 278.06905864 -0.29141891 298.85705602 -0.29172093 C310.52751734 -0.29230545 322.19785176 -0.30079414 333.86828041 -0.32971859 C343.80634134 -0.35423625 353.74422909 -0.36151271 363.68231209 -0.34647106 C368.75118413 -0.3393037 373.81971423 -0.34015237 378.8885479 -0.36288166 C383.53370135 -0.38351118 388.17825084 -0.38083417 392.82339804 -0.36000682 C394.49906496 -0.35651952 396.1747758 -0.36138959 397.85038514 -0.37571125 C409.92868581 -0.47224875 421.1251989 0.84762195 430.16757774 9.73467159 C430.91297813 10.52067745 430.91297813 10.52067745 431.67343712 11.32256222 C432.19744102 11.81949581 432.72144493 12.31642941 433.26132774 12.82842159 C440.30840549 19.99866924 443.27782496 29.3798303 443.40465415 39.26477671 C443.39350054 40.33833933 443.38234693 41.41190196 443.37085533 42.51799679 C443.37865528 43.69176262 443.38645524 44.86552846 443.39449155 46.07486296 C443.41085745 49.29716348 443.4051419 52.51850432 443.38956046 55.74077916 C443.37816878 59.22963192 443.39574804 62.71836263 443.40946007 66.20719051 C443.43161437 73.02764366 443.42692638 79.84782063 443.41239686 86.6682843 C443.40107369 92.2147334 443.39958698 97.76110547 443.40501595 103.30756283 C443.40578211 104.09900095 443.40654828 104.89043907 443.40733766 105.70586017 C443.40893639 107.31399201 443.41055746 108.92212382 443.41220061 110.53025562 C443.42643524 125.58576669 443.4101014 140.64112518 443.38319878 155.69661123 C443.36086205 168.59593037 443.36474283 181.49502448 443.38779259 194.39433956 C443.41459113 209.3984594 443.42506215 224.40244574 443.40973127 239.40658617 C443.40813864 241.00857796 443.40656678 242.61056977 443.40501595 244.21256161 C443.40424457 245.00063286 443.40347319 245.78870411 443.40267844 246.6006563 C443.39837358 252.13608859 443.4056217 257.67143572 443.41741371 263.20685482 C443.43148242 269.95898904 443.42754756 276.71083289 443.40100999 283.46293414 C443.38793003 286.90356927 443.38261844 290.34372148 443.39925575 293.7843523 C443.41298225 297.5240877 443.3957062 301.26247728 443.37085533 305.00212765 C443.38200894 306.07569027 443.39316255 307.1492529 443.40465415 308.25534773 C443.27978144 317.98780781 440.46585672 327.42150212 433.37265587 334.38506222 C432.87378868 334.83881222 432.37492149 335.29256222 431.86093712 335.76006222 C431.36980431 336.24474972 430.87867149 336.72943722 430.37265587 337.22881222 C422.93775088 344.3354227 414.716695 347.50578092 404.37726784 347.51733112 C403.31148551 347.52259024 403.31148551 347.52259024 402.22417223 347.52795559 C399.84912905 347.53724136 397.4743326 347.53235364 395.0992794 347.52748775 C393.37690906 347.53122544 391.65454041 347.53582743 389.93217444 347.5412184 C385.20334931 347.5534492 380.47459492 347.55318783 375.74575758 347.55082965 C370.64404364 347.5504215 365.5423524 347.56146042 360.44064903 347.57094479 C350.44689538 347.58755623 340.45316532 347.5930544 330.45939901 347.59416954 C322.3356097 347.59511995 314.21182816 347.5992299 306.08804131 347.60557079 C283.05402981 347.62318364 260.02003696 347.6324096 236.98601869 347.63090985 C235.12344413 347.63078998 235.12344413 347.63078998 233.22324181 347.63066769 C231.98000876 347.63058593 230.73677571 347.63050416 229.45586893 347.63041992 C209.30755008 347.62960702 189.15930599 347.64874561 169.01100877 347.67694442 C148.32133167 347.70567236 127.63169103 347.71948476 106.94199347 347.71775687 C95.32693243 347.71709293 83.71194975 347.72258677 72.09690666 347.74411297 C62.20753203 347.76232355 52.3182713 347.76667306 42.42888716 347.75309412 C37.38448227 347.74656389 32.3402959 347.7464494 27.29591179 347.76380062 C22.67435891 347.77953375 18.05319776 347.77666517 13.43165442 347.75923236 C11.76344036 347.75616301 10.09519704 347.7597924 8.42701748 347.77095251 C-3.89085546 347.84787418 -14.28068508 346.89619627 -23.55703163 337.97881222 C-24.12035194 337.41162472 -24.68367226 336.84443722 -25.26406288 336.26006222 C-26.15093788 335.45568722 -27.03781288 334.65131222 -27.95156288 333.82256222 C-35.73137773 325.2016863 -37.56343074 317.11398065 -37.53821754 305.72365475 C-37.54345422 304.55501546 -37.5486909 303.38637617 -37.55408627 302.18232358 C-37.56647913 298.94675683 -37.56993018 295.71132492 -37.56948936 292.475739 C-37.57114047 288.98271966 -37.58421258 285.48973963 -37.59568214 281.99674129 C-37.61850978 274.36223737 -37.62645053 266.72776129 -37.63150859 259.09322786 C-37.63476859 254.32275607 -37.64129296 249.55229231 -37.64850998 244.78182507 C-37.66807398 231.56407271 -37.68447903 218.34632783 -37.68738651 205.12856007 C-37.68757408 204.28308511 -37.68776165 203.43761015 -37.68795491 202.56651474 C-37.68832115 200.85265104 -37.68868485 199.13878734 -37.68904602 197.42492364 C-37.68932023 196.1488397 -37.68932023 196.1488397 -37.68959999 194.84697628 C-37.68978054 193.99521058 -37.68996109 193.14344487 -37.69014711 192.26586808 C-37.69368697 178.47148544 -37.72069848 164.67725909 -37.75809788 150.88293062 C-37.79622093 136.70779882 -37.81554429 122.53274447 -37.81584603 108.35756028 C-37.81642974 100.40384908 -37.82486603 92.45032427 -37.85384369 84.49666119 C-37.87841129 77.72245669 -37.88560447 70.94850654 -37.87059616 64.17426948 C-37.86344872 60.72150067 -37.86418956 57.26923355 -37.88700676 53.81652164 C-37.90748815 50.06337068 -37.89690071 46.31150705 -37.87879372 42.55837154 C-37.89199368 41.4807162 -37.90519365 40.40306085 -37.91879362 39.29274929 C-37.79894442 28.36761237 -34.17770865 19.12493565 -26.36953163 11.38115597 C-18.36652516 4.35611362 -10.93827928 0.0168417 0 0 Z " fill="#7D0001" transform="translate(157.26406288146973,-0.26006221771240234)"/>
<path d="M0 0 C7.08821938 3.73064178 8.74739202 5.84582723 13.375 13.25 C13.375 54.5 13.375 95.75 13.375 138.25 C114.355 138.25 215.335 138.25 319.375 138.25 C319.375 113.5 319.375 88.75 319.375 63.25 C322.375 57.25 322.375 57.25 325.375 56.25 C325.49875 55.63125 325.6225 55.0125 325.75 54.375 C326.375 52.25 326.375 52.25 328.3125 50.5625 C333.65081074 48.27465254 339.01808325 47.71635847 344.6875 49 C350.24884005 51.58666979 353.81670104 54.11023484 357.375 59.25 C358.3240544 64.09981249 358.49879518 68.80330776 358.49525452 73.73545837 C358.49653615 74.81636233 358.49653615 74.81636233 358.49784368 75.91910273 C358.49948106 78.31580467 358.49400585 80.71243545 358.48852539 83.10913086 C358.48824312 84.83427936 358.48840204 86.55942798 358.4889679 88.28457642 C358.4892543 92.95551111 358.48338291 97.62642002 358.47639394 102.29734874 C358.4701343 107.18338435 358.46955453 112.06942059 358.46836853 116.95545959 C358.46526291 126.20234122 358.45705989 135.449211 358.44701904 144.69608742 C358.43583401 155.22567295 358.43034143 165.75525905 358.42532361 176.28484905 C358.41487664 197.93990744 358.39654072 219.5949496 358.375 241.25 C345.505 241.25 332.635 241.25 319.375 241.25 C319.375 222.77 319.375 204.29 319.375 185.25 C218.395 185.25 117.415 185.25 13.375 185.25 C13.375 203.73 13.375 222.21 13.375 241.25 C0.505 241.25 -12.365 241.25 -25.625 241.25 C-25.67021396 212.56107337 -25.70601989 183.87215414 -25.72713066 155.18319889 C-25.72963207 151.79612342 -25.73222071 148.40904802 -25.73486328 145.02197266 C-25.7353879 144.34766758 -25.73591252 143.6733625 -25.73645304 142.97862394 C-25.7451554 132.06070296 -25.76092444 121.14280305 -25.77930559 110.22489457 C-25.79800935 99.02192461 -25.80896803 87.81896518 -25.81317699 76.61597884 C-25.81578672 70.32351784 -25.82193023 64.03110461 -25.83646011 57.73865891 C-25.85002194 51.81754555 -25.85422545 45.89649972 -25.85121536 39.97537231 C-25.85176615 37.80093647 -25.85575188 35.62649839 -25.86341095 33.45207596 C-25.87335019 30.48508778 -25.8709725 27.51835508 -25.86550903 24.55136108 C-25.87133472 23.68948382 -25.8771604 22.82760655 -25.88316262 21.93961179 C-25.84949267 15.18216549 -24.85191127 9.86026769 -20.16796875 4.640625 C-14.26342906 -0.68093482 -7.65991283 -2.18854652 0 0 Z " fill="#FEFCFC" transform="translate(190.625,53.75)"/>
<path d="M0 0 C35.96821898 -0.16121214 35.96821898 -0.16121214 51.1171875 -0.1953125 C61.54988531 -0.21898607 71.98245327 -0.24671584 82.41503906 -0.30175781 C90.01528467 -0.34183707 97.61542426 -0.36748255 105.21577263 -0.37635398 C109.23388686 -0.38153335 113.25169802 -0.3935604 117.26971436 -0.42292023 C121.06514257 -0.4504243 124.86014793 -0.4583759 128.65566635 -0.45243073 C130.68514199 -0.45402602 132.71457345 -0.47536307 134.743927 -0.49768066 C141.62395709 -0.46742708 148.02606982 0.18750798 154.70117188 1.77838135 C155.37211128 1.9335635 156.04305069 2.08874565 156.73432159 2.24863029 C160.90155785 3.34320882 163.19096085 4.76860201 166 8 C166.99 8.4640625 166.99 8.4640625 168 8.9375 C172.76417531 11.46846813 174.61479272 16.01901707 176.38671875 20.83984375 C182.04752876 40.77887519 178 62.27297068 178 83 C119.26 83 60.52 83 0 83 C0 55.61 0 28.22 0 0 Z " fill="#FCFAFA" transform="translate(324,103)"/>
<path d="M0 0 C4.51004762 3.32884467 7.21981025 6.38055319 8.10287476 11.953125 C8.30347004 15.69589336 8.34405075 19.40810275 8.32421875 23.15625 C8.33013651 24.54195771 8.33738693 25.92766031 8.34590149 27.31335449 C8.35774238 30.20836153 8.35114061 33.10259782 8.33178711 35.99755859 C8.30889316 39.69345578 8.33570054 43.38705483 8.37684917 47.08272552 C8.40251759 49.94146115 8.39982351 52.79965323 8.38895607 55.65846252 C8.38747718 57.0203307 8.39506883 58.38224216 8.41220665 59.7440033 C8.53785646 71.65952357 8.53785646 71.65952357 4.88989258 76.13867188 C3.39900208 77.61315918 3.39900208 77.61315918 1.625 78.9375 C0.90235458 79.48123764 0.17970917 80.02497528 -0.56483459 80.58518982 C-4.25058811 82.35885125 -7.596536 82.38043198 -11.60253906 82.37329102 C-12.41786606 82.38336685 -13.23319305 82.39344269 -14.07322693 82.40382385 C-16.76250007 82.43226555 -19.4512109 82.43817894 -22.140625 82.44140625 C-24.01764148 82.4510518 -25.8946557 82.46114461 -27.77166748 82.47166443 C-31.70574162 82.48961761 -35.63961827 82.49518648 -39.57373047 82.4934082 C-44.59868211 82.49310381 -49.6223574 82.53401577 -54.64700699 82.58572483 C-58.52483862 82.6191962 -62.40236559 82.62516243 -66.28032684 82.62357903 C-68.13179666 82.62710437 -69.98327561 82.64029087 -71.83460236 82.66357613 C-89.2977151 82.86261676 -89.2977151 82.86261676 -95.83441162 77.50035095 C-99.65232609 73.62726497 -101.57798265 70.84334099 -101.75 65.375 C-101.59658818 61.88193085 -100.99723434 59.08057903 -99.375 55.9375 C-98.715 55.9375 -98.055 55.9375 -97.375 55.9375 C-97.21 55.339375 -97.045 54.74125 -96.875 54.125 C-94.55103062 50.73587799 -91.1854283 50.12212821 -87.375 48.9375 C-85.89 48.4425 -85.89 48.4425 -84.375 47.9375 C-82.45781152 47.84884824 -80.53764087 47.81988243 -78.6184082 47.82397461 C-76.84691154 47.82408791 -76.84691154 47.82408791 -75.03962708 47.82420349 C-73.76455795 47.82936478 -72.48948883 47.83452606 -71.17578125 47.83984375 C-69.21779854 47.84196617 -69.21779854 47.84196617 -67.22026062 47.84413147 C-63.75310344 47.8479462 -60.28598826 47.85776756 -56.81884766 47.86883545 C-53.27962818 47.87907202 -49.7404019 47.8836339 -46.20117188 47.88867188 C-39.25909735 47.89939077 -32.31705069 47.91645466 -25.375 47.9375 C-25.40118408 46.79273193 -25.42736816 45.64796387 -25.4543457 44.46850586 C-25.54522097 40.19901266 -25.60238404 35.92960399 -25.6496582 31.65942383 C-25.67471773 29.81552732 -25.70877515 27.97172932 -25.75219727 26.12817383 C-25.81322965 23.46931594 -25.8412947 20.81177719 -25.86328125 18.15234375 C-25.88908768 17.33539536 -25.9148941 16.51844696 -25.94148254 15.67674255 C-25.94432791 9.79788205 -24.45013268 6.20697763 -20.375 1.9375 C-14.44406073 -2.44009803 -6.80878471 -2.1435063 0 0 Z " fill="#FDFBFB" transform="translate(311.375,104.0625)"/>
<path d="M0 0 C2.67989322 1.65318088 3.08910615 2.73654042 4.40625 5.484375 C5.03144531 5.62488281 5.65664063 5.76539062 6.30078125 5.91015625 C9.53943714 6.79342604 10.35953652 8.88434313 12.09375 11.671875 C12.69574219 12.61417969 13.29773438 13.55648437 13.91796875 14.52734375 C17.83953161 22.31900539 17.46200004 33.35917023 15.78125 41.796875 C13.39774916 48.1889909 10.58360304 53.40862181 4.40625 56.484375 C4.07625 57.474375 3.74625 58.464375 3.40625 59.484375 C-6.76036153 65.60249658 -16.96548011 67.53055125 -28.59375 65.484375 C-31.96875 64.109375 -31.96875 64.109375 -34.59375 62.484375 C-35.604375 62.030625 -36.615 61.576875 -37.65625 61.109375 C-40.93894296 59.29341719 -43.05114783 57.22770892 -45.59375 54.484375 C-46.315625 53.824375 -47.0375 53.164375 -47.78125 52.484375 C-49.85877353 50.19193524 -50.59688022 48.40852635 -51.59375 45.484375 C-52.13 44.35 -52.66625 43.215625 -53.21875 42.046875 C-55.73517391 35.29361493 -56.10665337 26.19657665 -53.28125 19.484375 C-52.724375 18.494375 -52.1675 17.504375 -51.59375 16.484375 C-51.119375 15.453125 -50.645 14.421875 -50.15625 13.359375 C-46.98519648 7.52463652 -43.16097247 3.92755677 -37.59375 0.484375 C-36.99304688 0.08734375 -36.39234375 -0.3096875 -35.7734375 -0.71875 C-24.99465482 -6.72105251 -10.87719582 -4.44976193 0 0 Z " fill="#FDFBFB" transform="translate(265.59375,82.515625)"/>
<path d="M0 0 C0.99 0.495 0.99 0.495 2 1 C2.01030746 2.08106018 2.02061493 3.16212036 2.03123474 4.27593994 C2.12894337 14.45832239 2.23167512 24.64064338 2.33933926 34.82292557 C2.39453004 40.05787305 2.44794396 45.29282616 2.49731445 50.52783203 C2.54501462 55.57882297 2.59735958 60.62974628 2.65294075 65.68065643 C2.67333867 67.60876534 2.69205597 69.53689278 2.70907402 71.46503448 C2.73317471 74.16328127 2.76322162 76.86140066 2.79467773 79.55957031 C2.8004332 80.35870346 2.80618866 81.15783661 2.81211853 81.98118591 C2.85860656 85.48378657 3.06303738 88.6286418 4 92 C4.99 91.01 4.99 91.01 6 90 C6.66 90.33 7.32 90.66 8 91 C7.835 91.639375 7.67 92.27875 7.5 92.9375 C6.5707175 98.6293553 5.75916882 103.77627378 9.0625 108.8125 C11.88250889 112.65796667 16.28945084 115.49628467 20.98242569 116.36840439 C23.17027148 116.50278064 25.32632407 116.51817553 27.51806641 116.48583984 C28.75113274 116.49153488 28.75113274 116.49153488 30.0091095 116.49734497 C32.70699088 116.50471154 35.40377804 116.48342686 38.1015625 116.4609375 C39.98529942 116.45855105 41.86903874 116.45764818 43.7527771 116.4581604 C47.69178262 116.45503928 51.63042239 116.43852454 55.56933594 116.41162109 C60.61437595 116.37759562 65.65901554 116.36999429 70.70415688 116.37151146 C74.59038097 116.37096733 78.47651781 116.35999407 82.36271286 116.34550858 C84.22301957 116.33915266 86.08333613 116.33520451 87.94365311 116.33372116 C90.54284726 116.32937797 93.14161944 116.3118565 95.74072266 116.29052734 C96.50656174 116.29143372 97.27240082 116.29234009 98.06144714 116.29327393 C102.14180475 116.24438732 105.32653372 115.81811293 109 114 C108.25675659 116.39489543 107.52942646 117.70777616 105.30859375 118.93359375 C103.55926499 119.67219923 101.78065851 120.34049685 100 121 C100 121.33 100 121.66 100 122 C50.5 122.495 50.5 122.495 0 123 C0 82.41 0 41.82 0 0 Z " fill="#790202" transform="translate(204,69)"/>
<path d="M0 0 C100.98 0 201.96 0 306 0 C306 18.81 306 37.62 306 57 C305.67 57 305.34 57 305 57 C305 38.85 305 20.7 305 2 C205.01 2 105.02 2 2 2 C2.33 19.82 2.66 37.64 3 56 C2.01 56 1.02 56 0 56 C0 37.52 0 19.04 0 0 Z " fill="#721516" transform="translate(204,239)"/>
<path d="M0 0 C0.66 1.32 1.32 2.64 2 4 C3.485 3.505 3.485 3.505 5 3 C5.33 2.01 5.66 1.02 6 0 C6.99 0.33 7.98 0.66 9 1 C8.02885254 2.20293701 8.02885254 2.20293701 7.03808594 3.43017578 C4.3318232 7.51194063 4.39776905 11.33693654 4.390625 16.1171875 C4.37408875 16.97434357 4.35755249 17.83149963 4.34051514 18.71463013 C4.29218337 21.43482738 4.27069762 24.15446621 4.25 26.875 C4.22182785 28.72659037 4.19189868 30.5781549 4.16015625 32.4296875 C4.08642862 36.95307899 4.0367637 41.47616319 4 46 C2.91125076 46.0154612 2.91125076 46.0154612 1.80050659 46.03123474 C-5.0554215 46.12940256 -11.9112719 46.23194357 -18.76706123 46.33933926 C-22.2912918 46.39439347 -25.81553088 46.44778434 -29.33984375 46.49731445 C-33.39592021 46.55439199 -37.45185173 46.61881102 -41.5078125 46.68359375 C-42.76739777 46.70030624 -44.02698303 46.71701874 -45.32473755 46.73423767 C-47.09589432 46.7641555 -47.09589432 46.7641555 -48.90283203 46.79467773 C-50.45503952 46.81799416 -50.45503952 46.81799416 -52.03860474 46.84178162 C-55.08837257 47.00472148 -57.99946728 47.44184714 -61 48 C-60.67 47.01 -60.34 46.02 -60 45 C-58.66666667 44.33333333 -57.33333333 43.66666667 -56 43 C-55.67 42.01 -55.34 41.02 -55 40 C-55.66 39.67 -56.32 39.34 -57 39 C-56.67 38.01 -56.34 37.02 -56 36 C-53.31511375 37.02657415 -50.89833588 38.06199032 -48.4375 39.5625 C-38.44790335 43.73996769 -28.44441521 41.90122318 -18.64453125 38.08203125 C-14.27128029 36.0718127 -11.09816334 33.75040825 -8 30 C-7.48308594 29.39285156 -6.96617187 28.78570312 -6.43359375 28.16015625 C-0.38388613 19.86549689 -0.52202768 9.90698931 0 0 Z " fill="#7C0607" transform="translate(282,106)"/>
<path d="M0 0 C0.33 0 0.66 0 1 0 C1.75987625 3.38319406 2.12663221 6.50923318 2.13307858 9.97413635 C2.13731962 10.95635886 2.14156067 11.93858137 2.14593023 12.9505682 C2.1455441 14.02205892 2.14515797 15.09354963 2.14476013 16.19750977 C2.14828698 17.34164872 2.15181382 18.48578768 2.15544754 19.66459751 C2.16614099 23.50687116 2.16981662 27.34912003 2.17358398 31.19140625 C2.17932931 33.94261951 2.18659559 36.69382819 2.19384766 39.44503784 C2.20877593 45.37358274 2.22032503 51.30212638 2.22979546 57.23068237 C2.24367538 65.8078221 2.26486371 74.38493244 2.28822399 82.96205103 C2.32613037 96.88517554 2.36109946 110.80830535 2.39282227 124.73144531 C2.39472276 125.56467839 2.39662325 126.39791147 2.39858133 127.25639403 C2.4254228 139.08546041 2.44929586 150.91453095 2.47196633 162.74360597 C2.47356363 163.57683905 2.47516094 164.41007212 2.47680664 165.26855469 C2.47840011 166.10077282 2.47999357 166.93299094 2.48163532 167.7904278 C2.50839291 181.66153423 2.542786 195.5326092 2.58346039 209.40368176 C2.60824421 217.96042524 2.62656595 226.51713487 2.636616 235.07390857 C2.64400145 240.93516445 2.65851928 246.79637487 2.67868023 252.65760064 C2.69008134 256.04048599 2.69712149 259.42323394 2.69767189 262.80614853 C2.69875011 266.47168919 2.71195943 270.13699033 2.72825623 273.80249023 C2.72563937 274.87398095 2.72302252 275.94547167 2.72032636 277.0494318 C2.73059955 278.52276556 2.73059955 278.52276556 2.74108028 280.02586365 C2.74281653 280.87182822 2.74455278 281.7177928 2.74634165 282.58939266 C3.03656481 285.34748864 3.88398024 287.47203663 5 290 C6.15789474 293.68421053 6.15789474 293.68421053 5 296 C5.66 296.33 6.32 296.66 7 297 C7.72159424 298.64363134 8.39351421 300.31050386 9 302 C3.39389131 297.32824276 0.57685158 291.45800404 -0.36293077 284.19521117 C-0.50094336 281.09044826 -0.51431101 278.00948882 -0.48101807 274.90182495 C-0.48614462 273.13103929 -0.48614462 273.13103929 -0.49137473 271.32448018 C-0.49679336 268.07457989 -0.48441155 264.82532935 -0.46426249 261.57550573 C-0.44689739 258.0609941 -0.45284055 254.54650966 -0.45587158 251.03196716 C-0.45796325 244.95172936 -0.44547352 238.87166401 -0.42292023 232.79146957 C-0.39033387 224.00069107 -0.37998645 215.20999547 -0.37496826 206.41916312 C-0.36622599 192.1547204 -0.33963946 177.89036948 -0.30175781 163.62597656 C-0.26501004 149.77409319 -0.23671184 135.92223481 -0.21972656 122.0703125 C-0.21867567 121.215672 -0.21762477 120.36103151 -0.21654204 119.48049282 C-0.21132167 115.19277087 -0.20626689 110.90504874 -0.20129442 106.6173265 C-0.15986565 71.07815225 -0.08944639 35.53908461 0 0 Z " fill="#5C0A09" transform="translate(120,30)"/>
<path d="M0 0 C1.94284488 3.88568975 3.1250711 6.32159582 3.12863445 10.71152115 C3.1318589 11.71153758 3.13508335 12.71155402 3.1384055 13.74187398 C3.1368569 14.84865774 3.1353083 15.9554415 3.13371277 17.09576416 C3.13597833 18.26521914 3.13824388 19.43467412 3.14057809 20.63956714 C3.14583064 23.89572697 3.14656002 27.15185227 3.14538372 30.40801501 C3.14518023 33.91597057 3.15069349 37.4239178 3.15544128 40.93186951 C3.16376049 47.80907766 3.16649672 54.68627724 3.16705366 61.56349 C3.16752832 67.15311435 3.16958055 72.74273586 3.17275429 78.33235931 C3.18156512 94.17202113 3.18617311 110.01167616 3.18542381 125.85134044 C3.18538386 126.70590103 3.1853439 127.56046161 3.18530273 128.44091797 C3.18526185 129.29651954 3.18522097 130.15212112 3.18517885 131.03365001 C3.18477249 144.89694713 3.19433846 158.76021708 3.2084411 172.62350634 C3.22279969 186.85045669 3.22971154 201.07739379 3.22884732 215.30435157 C3.22851513 223.29475282 3.23127208 231.28512559 3.24202538 239.27552032 C3.25112368 246.07994226 3.25331123 252.88432283 3.24651595 259.68874821 C3.24324706 263.16084125 3.24320728 266.63285489 3.2518692 270.10494041 C3.25955367 273.86879888 3.25496764 277.63244752 3.24723816 281.39630127 C3.25238172 282.49416214 3.25752529 283.59202302 3.26282471 284.7231524 C3.23936742 289.87718976 3.08477616 294.18318489 1 299 C-1.29053845 295.56419232 -1.14402521 294.9649574 -0.63293648 291.05311489 C0.03356939 285.06142294 0.13981992 279.17443268 0.12698364 273.15016174 C0.12854363 272.00835778 0.13010362 270.86655381 0.13171089 269.69014972 C0.13567657 265.89180841 0.13254855 262.09350758 0.12939453 258.29516602 C0.13020074 255.56115131 0.13249552 252.82713828 0.13470459 250.09312439 C0.13913625 243.4564481 0.13819772 236.81978315 0.13529195 230.18310643 C0.13302899 224.79057218 0.13272925 219.3980411 0.13381577 214.00550652 C0.13404561 212.8521488 0.13404561 212.8521488 0.13428011 211.67549093 C0.13459984 210.11332473 0.13492406 208.55115853 0.1352527 206.98899233 C0.13809951 192.36537301 0.13483231 177.74175999 0.12945233 163.1181417 C0.12497877 150.56939928 0.12576632 138.02066609 0.13037109 125.47192383 C0.1357202 110.88799495 0.13783146 96.30407155 0.13475883 81.72014183 C0.13444029 80.16602226 0.13412591 78.61190269 0.13381577 77.05778313 C0.13366149 76.29316819 0.13350721 75.52855324 0.13334826 74.74076815 C0.13248459 69.3509004 0.13394265 63.96103612 0.13629532 58.5711689 C0.13909695 52.00882761 0.13834707 45.44649829 0.13301457 38.88415838 C0.13038346 35.53580944 0.12989943 32.18749704 0.13266373 28.83914566 C0.13538213 25.21306122 0.13198562 21.58703355 0.12698364 17.96095276 C0.12921436 16.89842382 0.13144509 15.83589487 0.13374341 14.74116808 C0.12983178 13.28682137 0.12983178 13.28682137 0.12584114 11.80309391 C0.12567879 10.96607758 0.12551644 10.12906124 0.12534916 9.26668078 C0.07847621 7.00111459 0.07847621 7.00111459 -0.57036507 4.88730663 C-1 3 -1 3 0 0 Z " fill="#4E0708" transform="translate(597,24)"/>
<path d="M0 0 C0.33 0 0.66 0 1 0 C1.0694429 7.26688753 1.12278189 14.53370378 1.15543652 21.80085564 C1.17110744 25.17513606 1.19237093 28.54918987 1.22631836 31.92333984 C1.2625736 35.80051748 1.27969728 39.67737172 1.29296875 43.5546875 C1.30845261 44.76929657 1.32393646 45.98390564 1.33988953 47.23532104 C1.34022942 48.91683762 1.34022942 48.91683762 1.34057617 50.63232422 C1.35056892 52.11791336 1.35056892 52.11791336 1.36076355 53.6335144 C1.24171158 54.41445465 1.12265961 55.1953949 1 56 C-2.61568553 58.41045702 -4.20711811 58.23785771 -8.50608826 58.20927429 C-9.16988733 58.20760516 -9.8336864 58.20593602 -10.5176006 58.2042163 C-12.74683903 58.19612738 -14.97569744 58.17358671 -17.20483398 58.15112305 C-18.80154481 58.14233485 -20.39826065 58.13442158 -21.99497986 58.12731934 C-26.33854053 58.10538213 -30.68191924 58.07081417 -35.02537417 58.03379035 C-39.57612373 57.99687279 -44.12693573 57.97065801 -48.67774963 57.94306946 C-56.33039213 57.89508395 -63.98294693 57.83933289 -71.63549805 57.77856445 C-80.46087204 57.70853481 -89.28626672 57.64862518 -98.11175293 57.59470528 C-107.52370157 57.53712559 -116.93559174 57.47246241 -126.34747815 57.40554833 C-129.04858139 57.38678829 -131.74969037 57.36928827 -134.45080376 57.3520565 C-138.71649416 57.3244621 -142.98212345 57.2920591 -147.24775124 57.25609589 C-148.80526953 57.24365376 -150.36280083 57.23272346 -151.92034149 57.22349739 C-160.65445187 57.17059766 -169.30556683 56.8926246 -178 56 C-178 55.67 -178 55.34 -178 55 C-119.26 55 -60.52 55 0 55 C0 36.85 0 18.7 0 0 Z " fill="#6D0306" transform="translate(502,131)"/>
<path d="M0 0 C0.99 0.495 0.99 0.495 2 1 C2.01030746 2.08106018 2.02061493 3.16212036 2.03123474 4.27593994 C2.12894337 14.45832239 2.23167512 24.64064338 2.33933926 34.82292557 C2.39453004 40.05787305 2.44794396 45.29282616 2.49731445 50.52783203 C2.54501462 55.57882297 2.59735958 60.62974628 2.65294075 65.68065643 C2.67333867 67.60876534 2.69205597 69.53689278 2.70907402 71.46503448 C2.73317471 74.16328127 2.76322162 76.86140066 2.79467773 79.55957031 C2.8004332 80.35870346 2.80618866 81.15783661 2.81211853 81.98118591 C2.85860656 85.48378657 3.06303738 88.6286418 4 92 C4.99 91.01 4.99 91.01 6 90 C6.66 90.33 7.32 90.66 8 91 C7.835 91.639375 7.67 92.27875 7.5 92.9375 C6.56912398 98.63911562 6.05519297 103.86695692 9 109 C8.01 109.495 8.01 109.495 7 110 C6.67 108.68 6.34 107.36 6 106 C4.515 106.495 4.515 106.495 3 107 C2.95101562 108.07121094 2.90203125 109.14242187 2.8515625 110.24609375 C2.77654706 111.64325639 2.7009987 113.0403905 2.625 114.4375 C2.5940625 115.14455078 2.563125 115.85160156 2.53125 116.58007812 C2.42719371 118.39239188 2.22080108 120.19817988 2 122 C1.01 122.495 1.01 122.495 0 123 C0 82.41 0 41.82 0 0 Z " fill="#89292A" transform="translate(204,69)"/>
<path d="M0 0 C0.66 1.32 1.32 2.64 2 4 C2.66 4 3.32 4 4 4 C4.99 5.485 4.99 5.485 6 7 C6.66 7 7.32 7 8 7 C9.33333333 8.33333333 10.66666667 9.66666667 12 11 C16.18378563 14.14370239 19.83957873 14.44234244 24.91137695 14.43237305 C25.69239273 14.4425647 26.47340851 14.45275635 27.27809143 14.46325684 C29.84822808 14.49334432 32.41799175 14.50264613 34.98828125 14.51171875 C36.7747674 14.52856861 38.56124172 14.54671927 40.34770203 14.56611633 C45.04119163 14.61358917 49.73463325 14.64341609 54.42828369 14.66955566 C59.22116573 14.69937489 64.01388248 14.74590055 68.80664062 14.79101562 C78.20434058 14.87701783 87.60207457 14.94437685 97 15 C97 15.33 97 15.66 97 16 C73.24 16 49.48 16 25 16 C24.67 17.32 24.34 18.64 24 20 C16.08 20 8.16 20 0 20 C0 13.4 0 6.8 0 0 Z " fill="#841415" transform="translate(206,171)"/>
<path d="M0 0 C0.33 0 0.66 0 1 0 C1 27.06 1 54.12 1 82 C0.67 82 0.34 82 0 82 C-0.33 78.7 -0.66 75.4 -1 72 C-2.485 72.495 -2.485 72.495 -4 73 C-4.185625 73.9590625 -4.185625 73.9590625 -4.375 74.9375 C-4.58125 75.618125 -4.7875 76.29875 -5 77 C-7.5625 78.25 -7.5625 78.25 -10 79 C-8.73046875 77.37239583 -7.4609375 75.74479167 -6.19140625 74.1171875 C-2.96696117 68.38719001 -3.78413932 60.87009777 -3.68359375 54.4765625 C-3.66281265 53.37524994 -3.64203156 52.27393738 -3.62062073 51.13925171 C-3.5554381 47.63456227 -3.49638603 44.12980034 -3.4375 40.625 C-3.39428502 38.2434822 -3.35066978 35.86197163 -3.30664062 33.48046875 C-3.19978888 27.6537216 -3.09796533 21.82690297 -3 16 C-2.34 16 -1.68 16 -1 16 C-0.67 10.72 -0.34 5.44 0 0 Z " fill="#710405" transform="translate(323,104)"/>
<path d="M0 0 C3.09877834 0.95914568 5.82883352 1.89811519 8.625 3.5625 C16.34022815 6.84861569 24.8622819 6.22065772 33 5 C32.34 5.99 31.68 6.98 31 8 C27.875 8.1875 27.875 8.1875 25 8 C25.66 8.66 26.32 9.32 27 10 C26.27409668 10.02505615 25.54819336 10.0501123 24.80029297 10.07592773 C21.49170554 10.19241241 18.18336624 10.31490014 14.875 10.4375 C13.73289063 10.47681641 12.59078125 10.51613281 11.4140625 10.55664062 C9.75117188 10.61948242 9.75117188 10.61948242 8.0546875 10.68359375 C7.03874512 10.72025146 6.02280273 10.75690918 4.97607422 10.79467773 C1.93266243 11.00464568 -1.00085508 11.45061296 -4 12 C-3.67 11.01 -3.34 10.02 -3 9 C-1.66666667 8.33333333 -0.33333333 7.66666667 1 7 C1.33 6.01 1.66 5.02 2 4 C1.34 3.67 0.68 3.34 0 3 C0 2.01 0 1.02 0 0 Z " fill="#7C1314" transform="translate(225,142)"/>
<path d="M0 0 C9.73995772 -0.57293869 9.73995772 -0.57293869 14 3 C14 3.66 14 4.32 14 5 C14.928125 5.0928125 14.928125 5.0928125 15.875 5.1875 C18 6 18 6 19.12435913 8.1882782 C20.07734178 11.2483479 20.20617491 13.60151177 20.13525391 16.80004883 C20.11508209 17.94085403 20.09491028 19.08165924 20.0741272 20.2570343 C20.04193085 21.47803329 20.0097345 22.69903229 19.9765625 23.95703125 C19.95153656 25.21513107 19.92651062 26.4732309 19.90072632 27.76945496 C19.8325668 31.10201579 19.75537503 34.43411629 19.67376709 37.76635742 C19.59260879 41.17155228 19.52337735 44.57698765 19.453125 47.98242188 C19.31305111 54.65522339 19.16105994 61.32767382 19 68 C18.67 68 18.34 68 18 68 C17.99635437 67.29700272 17.99270874 66.59400543 17.98895264 65.8697052 C17.95103458 59.23401092 17.8941393 52.59877976 17.81609726 45.96342945 C17.77664237 42.55234203 17.74444469 39.14151196 17.72900391 35.73022461 C17.7109175 31.80549191 17.6609572 27.88147238 17.609375 23.95703125 C17.60814636 22.73603226 17.60691772 21.51503326 17.60565186 20.2570343 C17.58593323 19.1162291 17.5662146 17.97542389 17.54589844 16.80004883 C17.53701599 15.79855301 17.52813354 14.79705719 17.51898193 13.76521301 C16.86799777 10.29667248 15.28471222 8.62943358 13 6 C13 5.34 13 4.68 13 4 C11.7934375 3.7834375 11.7934375 3.7834375 10.5625 3.5625 C8 3 8 3 7 2 C4.67182036 1.63239269 2.3381615 1.29758419 0 1 C0 0.67 0 0.34 0 0 Z " fill="#914648" transform="translate(301,102)"/>
<path d="M0 0 C0.33 0 0.66 0 1 0 C1.33 12.54 1.66 25.08 2 38 C-8.89 38 -19.78 38 -31 38 C-31 37.67 -31 37.34 -31 37 C-20.77 37 -10.54 37 0 37 C-0.350625 33.473125 -0.70125 29.94625 -1.0625 26.3125 C-1.84809217 17.81311236 -2.53461097 9.46361204 -1 1 C-0.67 0.67 -0.34 0.34 0 0 Z " fill="#6C0808" transform="translate(284,114)"/>
<path d="M0 0 C0.66 1.32 1.32 2.64 2 4 C2.99 3.67 3.98 3.34 5 3 C5.33 2.01 5.66 1.02 6 0 C6.99 0.33 7.98 0.66 9 1 C8.35256836 1.80646973 7.70513672 2.61293945 7.03808594 3.44384766 C4.36929832 7.46850175 4.39786702 11.18157042 4.390625 15.8984375 C4.37408875 16.73339752 4.35755249 17.56835754 4.34051514 18.42861938 C4.29219655 21.07748895 4.27070075 23.72578512 4.25 26.375 C4.22182672 28.17841401 4.19189739 29.9818015 4.16015625 31.78515625 C4.08644228 36.19005692 4.03676943 40.5946423 4 45 C3.67 45 3.34 45 3 45 C2.67 33.12 2.34 21.24 2 9 C1.34 13.29 0.68 17.58 0 22 C-0.66 22 -1.32 22 -2 22 C-1.34 14.74 -0.68 7.48 0 0 Z " fill="#934141" transform="translate(282,106)"/>
<path d="M0 0 C0.33 0 0.66 0 1 0 C1.17739173 7.84955777 1.3433158 15.69926786 1.49477577 23.54936409 C1.56546841 27.19483939 1.64004551 30.84014732 1.72363281 34.48535156 C1.80421812 38.00597073 1.87442606 41.52666052 1.93757248 45.04763412 C1.97594943 47.03850852 2.02495231 49.02916895 2.0741272 51.01980591 C2.09429901 52.24061859 2.11447083 53.46143127 2.13525391 54.71923828 C2.16856308 56.32474045 2.16856308 56.32474045 2.20254517 57.962677 C1.9825869 61.26112306 1.17104132 63.92053365 0 67 C-2.28320953 63.57518571 -2.15031817 62.99910731 -1.64477539 59.10424805 C-0.94622846 52.83801669 -0.77910515 46.63299228 -0.68359375 40.33203125 C-0.66281265 39.17120529 -0.64203156 38.01037933 -0.62062073 36.81437683 C-0.55582394 33.1471382 -0.4965689 29.47983491 -0.4375 25.8125 C-0.39424815 23.30923841 -0.35063186 20.80598308 -0.30664062 18.30273438 C-0.20021539 12.20188902 -0.09832622 6.10098098 0 0 Z " fill="#701213" transform="translate(598,256)"/>
<path d="M0 0 C0.66 0 1.32 0 2 0 C2.37005772 4.31734008 1.35225203 6.42457691 -1 10 C-3.74177507 18.22532522 -2.57733227 27.2729623 1 35 C1.3586442 36.32674912 1.69844868 37.6591213 2 39 C1.67 38.34 1.34 37.68 1 37 C0.34 37 -0.32 37 -1 37 C-5.27588961 28.88726302 -5.94055457 21.02276183 -5 12 C-4.34 11.01 -3.68 10.02 -3 9 C-2.61500109 7.34450469 -2.27206865 5.6777567 -2 4 C-1.34 4 -0.68 4 0 4 C0 2.68 0 1.36 0 0 Z " fill="#751C1E" transform="translate(214,93)"/>
<path d="M0 0 C-2 2 -2 2 -5.125 2.125 C-6.07375 2.08375 -7.0225 2.0425 -8 2 C-7.34 2.66 -6.68 3.32 -6 4 C-13.26 4 -20.52 4 -28 4 C-28 3.67 -28 3.34 -28 3 C-26.5459375 2.814375 -26.5459375 2.814375 -25.0625 2.625 C-23.5465625 2.315625 -23.5465625 2.315625 -22 2 C-21.67 1.34 -21.34 0.68 -21 0 C-20.20335937 0.01160156 -19.40671875 0.02320313 -18.5859375 0.03515625 C-12.69320102 0.0853377 -5.44002856 -1.81334285 0 0 Z " fill="#761B1C" transform="translate(258,148)"/>
<path d="M0 0 C2.49870716 4.99741431 3.07973898 8.24103883 2.87890625 13.8515625 C2.85529526 14.62559418 2.83168427 15.39962585 2.80735779 16.19711304 C2.73068562 18.6732603 2.64667684 21.14909759 2.5625 23.625 C2.50928285 25.30206808 2.45654243 26.97915137 2.40429688 28.65625 C2.27506572 32.77103023 2.13925354 36.88554725 2 41 C1.67 41 1.34 41 1 41 C0.97494385 39.99098633 0.9498877 38.98197266 0.92407227 37.94238281 C0.82977591 34.19258304 0.72960979 30.44295892 0.62768555 26.69335938 C0.58442069 25.07165643 0.54273972 23.44991042 0.50268555 21.828125 C0.44477786 19.49465973 0.38114302 17.16140957 0.31640625 14.828125 C0.29969376 14.10506165 0.28298126 13.38199829 0.26576233 12.63702393 C0.18580866 9.90951592 0.08884998 7.3512275 -0.58227539 4.69824219 C-1 3 -1 3 0 0 Z " fill="#721316" transform="translate(597,24)"/>
<path d="M0 0 C1.98 0 3.96 0 6 0 C6.33 0.66 6.66 1.32 7 2 C-3.52464789 8.44366197 -3.52464789 8.44366197 -9.9375 7.625 C-10.618125 7.41875 -11.29875 7.2125 -12 7 C-12 6.67 -12 6.34 -12 6 C-9.69 6 -7.38 6 -5 6 C-4.67 5.01 -4.34 4.02 -4 3 C-2.68 3 -1.36 3 0 3 C0 2.01 0 1.02 0 0 Z " fill="#945A5A" transform="translate(576,339)"/>
<path d="M0 0 C1.98 0 3.96 0 6 0 C6 1.65 6 3.3 6 5 C7.32 5 8.64 5 10 5 C10 5.66 10 6.32 10 7 C10.639375 7.103125 11.27875 7.20625 11.9375 7.3125 C12.618125 7.539375 13.29875 7.76625 14 8 C14.33 8.99 14.66 9.98 15 11 C10.43484212 10.88865469 8.3421983 9.66998945 5.25 6.5 C4.67765625 5.8709375 4.1053125 5.241875 3.515625 4.59375 C2.07103944 2.89387108 2.07103944 2.89387108 0 2 C0 1.34 0 0.68 0 0 Z " fill="#733335" transform="translate(129,332)"/>
<path d="M0 0 C0.66 0 1.32 0 2 0 C2.48108275 1.41601714 2.95978141 2.83284437 3.4375 4.25 C3.83775391 5.43335938 3.83775391 5.43335938 4.24609375 6.640625 C6.16969697 12.66060606 6.16969697 12.66060606 5 15 C5.66 15.33 6.32 15.66 7 16 C7.72159424 17.64363134 8.39351421 19.31050386 9 21 C4.01466535 16.84555446 1.81036421 12.20272327 0 6 C-0.25 2.375 -0.25 2.375 0 0 Z " fill="#936969" transform="translate(120,311)"/>
<path d="M0 0 C-0.3125 1.9375 -0.3125 1.9375 -1 4 C-1.99 4.33 -2.98 4.66 -4 5 C-4 5.66 -4 6.32 -4 7 C-4.639375 7.226875 -5.27875 7.45375 -5.9375 7.6875 C-8.27193661 8.85250896 -8.27193661 8.85250896 -8.75 11.625 C-8.8325 12.40875 -8.915 13.1925 -9 14 C-10.32 14.33 -11.64 14.66 -13 15 C-11.41226153 9.31060381 -6.97071448 0 0 0 Z " fill="#652223" transform="translate(136,9)"/>
<path d="M0 0 C0.66 0.66 1.32 1.32 2 2 C-0.31 4.31 -2.62 6.62 -5 9 C-6.32 8.34 -7.64 7.68 -9 7 C-6.03716687 4.61327331 -3.05729491 2.2646629 0 0 Z " fill="#692628" transform="translate(589,331)"/>
<path d="M0 0 C-1.94032528 1.94032528 -3.92398243 3.49198696 -6.125 5.125 C-6.84945312 5.66382813 -7.57390625 6.20265625 -8.3203125 6.7578125 C-8.87460938 7.16773438 -9.42890625 7.57765625 -10 8 C-10.66 7.67 -11.32 7.34 -12 7 C-11.67 6.34 -11.34 5.68 -11 5 C-10.34 5 -9.68 5 -9 5 C-8.773125 4.38125 -8.54625 3.7625 -8.3125 3.125 C-6.35752088 -0.04020429 -3.50347766 -1.75173883 0 0 Z " fill="#F3DDDA" transform="translate(223,155)"/>
<path d="M0 0 C0 0.66 0 1.32 0 2 C-3.73563279 4.71682385 -7.55619192 5.86726461 -12 7 C-10.91897181 3.86501824 -10.02159388 3.0131441 -7.125 1.25 C-4 0 -4 0 0 0 Z " fill="#F2DAD7" transform="translate(301,103)"/>
<path d="M0 0 C4.70321007 -0.32813094 7.13640021 0.31694459 11 3 C11.66 3.33 12.32 3.66 13 4 C13 4.99 13 5.98 13 7 C14.32 7.66 15.64 8.32 17 9 C16.34 9.66 15.68 10.32 15 11 C14.278125 10.071875 13.55625 9.14375 12.8125 8.1875 C9.19284903 3.86431123 5.61910838 1.80272977 0 1 C0 0.67 0 0.34 0 0 Z " fill="#731B1E" transform="translate(532,102)"/>
<path d="M0 0 C0.53625 0.66 1.0725 1.32 1.625 2 C0.98175781 1.84660156 0.33851563 1.69320312 -0.32421875 1.53515625 C-4.27267537 0.84253326 -8.1881887 0.64199119 -12.1875 0.4375 C-12.97576172 0.39431641 -13.76402344 0.35113281 -14.57617188 0.30664062 C-16.50894215 0.20121679 -18.44195026 0.10016906 -20.375 0 C-20.375 -0.33 -20.375 -0.66 -20.375 -1 C-18.50028812 -1.16987681 -16.62521305 -1.33574776 -14.75 -1.5 C-13.70585937 -1.5928125 -12.66171875 -1.685625 -11.5859375 -1.78125 C-2.82407147 -2.37816545 -2.82407147 -2.37816545 0 0 Z " fill="#833536" transform="translate(258.375,79)"/>
<path d="M0 0 C5.8022175 -0.36263859 9.63999211 0.74315457 15 3 C14.01 3.66 13.02 4.32 12 5 C12 4.34 12 3.68 12 3 C11.42765625 3.19464844 10.8553125 3.38929687 10.265625 3.58984375 C7.55358006 4.0808174 6.27004948 3.61252062 3.75 2.5625 C3.04359375 2.27503906 2.3371875 1.98757812 1.609375 1.69140625 C1.07828125 1.46324219 0.5471875 1.23507813 0 1 C0 0.67 0 0.34 0 0 Z " fill="#8E6664" transform="translate(563,0)"/>
<path d="M0 0 C0.66 0.33 1.32 0.66 2 1 C2 1.66 2 2.32 2 3 C4.475 3.99 4.475 3.99 7 5 C7 5.99 7 6.98 7 8 C3.6861991 7.42865502 2.21373349 6.50248134 0 4 C-0.556875 3.443125 -1.11375 2.88625 -1.6875 2.3125 C-2.120625 1.879375 -2.55375 1.44625 -3 1 C-2.01 0.67 -1.02 0.34 0 0 Z " fill="#7E1C1D" transform="translate(486,104)"/>
<path d="M0 0 C2.475 0.495 2.475 0.495 5 1 C5.103125 1.639375 5.20625 2.27875 5.3125 2.9375 C5.539375 3.618125 5.76625 4.29875 6 5 C6.99 5.33 7.98 5.66 9 6 C9.33 8.31 9.66 10.62 10 13 C7.65338301 9.91234606 5.40909816 6.76126778 3.18359375 3.5859375 C1.95126838 1.85542446 1.95126838 1.85542446 0 0 Z " fill="#700D11" transform="translate(195,56)"/>
<path d="M0 0 C3.125 6.25 3.125 6.25 2.5625 10.625 C2.40974609 11.85089844 2.40974609 11.85089844 2.25390625 13.1015625 C2.17011719 13.72804688 2.08632813 14.35453125 2 15 C1.67 15 1.34 15 1 15 C0.63684334 13.0641649 0.28477269 11.12624752 -0.0625 9.1875 C-0.25972656 8.10855469 -0.45695313 7.02960937 -0.66015625 5.91796875 C-1 3 -1 3 0 0 Z " fill="#895E5E" transform="translate(597,24)"/>
<path d="M0 0 C9.73995772 -0.57293869 9.73995772 -0.57293869 14 3 C14 3.66 14 4.32 14 5 C14.66 5.33 15.32 5.66 16 6 C15.01 6 14.02 6 13 6 C13 5.34 13 4.68 13 4 C11.7934375 3.7834375 11.7934375 3.7834375 10.5625 3.5625 C8 3 8 3 7 2 C4.67182036 1.63239269 2.3381615 1.29758419 0 1 C0 0.67 0 0.34 0 0 Z " fill="#731D1E" transform="translate(301,102)"/>
<path d="M0 0 C-1.14780637 3.44341912 -2.72137069 4.52236136 -5.5 6.7265625 C-7.32906726 8.27936439 -8.67236251 10.00854376 -10 12 C-9.55396127 6.94489444 -7.35299176 4.59833262 -4 1 C-2 0 -2 0 0 0 Z " fill="#F9E5E3" transform="translate(176,56)"/>
<path d="M0 0 C1.98 0 3.96 0 6 0 C6.33 0.66 6.66 1.32 7 2 C2.25 5 2.25 5 0 5 C0 3.35 0 1.7 0 0 Z " fill="#814245" transform="translate(576,339)"/>
<path d="M0 0 C0.66 0 1.32 0 2 0 C1.5359375 1.1446875 1.5359375 1.1446875 1.0625 2.3125 C0.32106407 4.18789677 -0.36228217 6.08684652 -1 8 C-2.32303717 8.3721042 -3.65737935 8.70630173 -5 9 C-5.33 9.66 -5.66 10.32 -6 11 C-5.67 9.68 -5.34 8.36 -5 7 C-4.01 7 -3.02 7 -2 7 C-2.061875 5.824375 -2.061875 5.824375 -2.125 4.625 C-2 2 -2 2 0 0 Z " fill="#630506" transform="translate(129,16)"/>
<path d="M0 0 C3.40312738 1.05875074 6.01353231 2.00902154 9 4 C8.67 4.66 8.34 5.32 8 6 C3.05 4.02 3.05 4.02 -2 2 C-1.34 1.34 -0.68 0.68 0 0 Z " fill="#5B090B" transform="translate(573,3)"/>
<path d="M0 0 C5.01113235 1.4317521 6.94469549 3.98445693 10 8 C7 8 7 8 4 6 C3.67 5.01 3.34 4.02 3 3 C1.50014391 1.33289654 1.50014391 1.33289654 0 0 Z " fill="#8C5A59" transform="translate(578,4)"/>
<path d="M0 0 C0.66 0 1.32 0 2 0 C1.53199289 4.05606165 1.12046792 7.46588679 -1 11 C-2.26264601 6.70700357 -1.62950412 4.12168689 0 0 Z " fill="#956B6C" transform="translate(598,312)"/>
<path d="M0 0 C1.32 0.33 2.64 0.66 4 1 C1.42215154 3.64752004 -0.91648098 5.94432065 -4 8 C-4.33 7.01 -4.66 6.02 -5 5 C-4.01 5 -3.02 5 -2 5 C-1.34 3.35 -0.68 1.7 0 0 Z " fill="#7D1F20" transform="translate(170,56)"/>
<path d="M0 0 C0.66 0.33 1.32 0.66 2 1 C0.515 2.485 0.515 2.485 -1 4 C-0.34 4.33 0.32 4.66 1 5 C-0.98 5.33 -2.96 5.66 -5 6 C-5 5.01 -5 4.02 -5 3 C-2.625 1.25 -2.625 1.25 0 0 Z " fill="#8D5A58" transform="translate(142,3)"/>
<path d="M0 0 C0.66 0 1.32 0 2 0 C1.67 4.29 1.34 8.58 1 13 C0.67 13 0.34 13 0 13 C-0.19397476 11.02145742 -0.38001321 9.0421352 -0.5625 7.0625 C-0.66691406 5.96035156 -0.77132812 4.85820313 -0.87890625 3.72265625 C-0.91886719 2.82417969 -0.95882812 1.92570312 -1 1 C-0.67 0.67 -0.34 0.34 0 0 Z " fill="#5A0409" transform="translate(122,29)"/>
<path d="M0 0 C1.15518918 0.90484792 2.29885406 1.8244206 3.4375 2.75 C4.07558594 3.26046875 4.71367188 3.7709375 5.37109375 4.296875 C7.18810554 6.19667629 7.60423197 7.43586908 8 10 C6.50260417 8.73046875 5.00520833 7.4609375 3.5078125 6.19140625 C1.99405921 4.9121848 1.99405921 4.9121848 0 4 C0 2.68 0 1.36 0 0 Z " fill="#8D615F" transform="translate(588,12)"/>
<path d="M0 0 C4.455 0.99 4.455 0.99 9 2 C4.64467851 4.17766075 3.53374042 4.03039555 -1 3 C-0.67 2.01 -0.34 1.02 0 0 Z " fill="#5D0509" transform="translate(150,342)"/>
<path d="M0 0 C0.66 0 1.32 0 2 0 C1.67 1.65 1.34 3.3 1 5 C0.01 5.33 -0.98 5.66 -2 6 C-2 6.66 -2 7.32 -2 8 C-2.66 7.67 -3.32 7.34 -4 7 C-2.68 4.69 -1.36 2.38 0 0 Z " fill="#7A161B" transform="translate(279,128)"/>
<path d="M0 0 C1.8871875 0.0309375 1.8871875 0.0309375 3.8125 0.0625 C2.8225 0.3925 1.8325 0.7225 0.8125 1.0625 C0.4825 1.7225 0.1525 2.3825 -0.1875 3.0625 C-2.8275 3.0625 -5.4675 3.0625 -8.1875 3.0625 C-6.45706736 -0.39836529 -3.47359009 -0.0569441 0 0 Z " fill="#D4ABA8" transform="translate(184.1875,52.9375)"/>
<path d="M0 0 C-0.25 1.875 -0.25 1.875 -1 4 C-3.0625 5.25 -3.0625 5.25 -5 6 C-4.625 3.5625 -4.625 3.5625 -4 1 C-2 0 -2 0 0 0 Z " fill="#740306" transform="translate(591,328)"/>
<path d="M0 0 C-0.66 1.32 -1.32 2.64 -2 4 C-4.64 4 -7.28 4 -10 4 C-10 3.67 -10 3.34 -10 3 C-9.05125 2.690625 -8.1025 2.38125 -7.125 2.0625 C-1.05882353 0 -1.05882353 0 0 0 Z " fill="#700F10" transform="translate(313,183)"/>
<path d="M0 0 C-2.93720508 1.52299523 -5.9168649 2.80100302 -9 4 C-9.66 3.34 -10.32 2.68 -11 2 C-7.17010894 0.19769832 -4.21878192 -0.19622241 0 0 Z " fill="#E6C3C0" transform="translate(532,102)"/>
<path d="M0 0 C1.33332095 2.6666419 0.67102033 4.16680303 0 7 C-1.32 7.33 -2.64 7.66 -4 8 C-2.25 2.25 -2.25 2.25 0 0 Z " fill="#8F6766" transform="translate(127,16)"/>
<path d="M0 0 C2.64 0 5.28 0 8 0 C4.81237635 2.12508244 2.73487777 2.5020163 -1 3 C-0.67 2.01 -0.34 1.02 0 0 Z " fill="#7A1A1E" transform="translate(222,151)"/>
</svg>
