<?xml version="1.0" encoding="UTF-8"?>
<svg version="1.1" xmlns="http://www.w3.org/2000/svg" width="500" height="500">
<path d="M0 0 C0.83446152 0.00091644 1.66892303 0.00183289 2.52867126 0.0027771 C4.29138889 0.00881603 6.05409612 0.02457091 7.81665039 0.04931641 C10.5207277 0.08584812 13.22343599 0.09033566 15.92773438 0.08984375 C17.63933481 0.09967392 19.35092593 0.11133049 21.0625 0.125 C21.87396988 0.12722565 22.68543976 0.12945129 23.52149963 0.13174438 C29.2326913 0.22878505 29.2326913 0.22878505 31.46484375 2.4609375 C31.70776367 5.2265625 31.70776367 5.2265625 31.6953125 8.7109375 C31.69337891 9.95875 31.69144531 11.2065625 31.68945312 12.4921875 C31.67720703 13.801875 31.66496094 15.1115625 31.65234375 16.4609375 C31.65137695 18.42546875 31.65137695 18.42546875 31.65039062 20.4296875 C31.60506142 30.18050215 31.60506142 30.18050215 30.46484375 32.4609375 C20.56484375 32.4609375 10.66484375 32.4609375 0.46484375 32.4609375 C0.79484375 36.0909375 1.12484375 39.7209375 1.46484375 43.4609375 C4.14780032 45.5524407 4.14780032 45.5524407 7.46484375 46.4609375 C10.09975587 48.38892197 12.40273249 50.39860982 14.70703125 52.7109375 C17.74899936 55.74428814 20.87089314 58.6728496 24.02734375 61.5859375 C24.59130859 62.11058594 25.15527344 62.63523438 25.73632812 63.17578125 C28.05385478 65.31712167 30.30947267 67.34826189 32.8671875 69.203125 C33.39441406 69.61820312 33.92164063 70.03328125 34.46484375 70.4609375 C34.46484375 71.1209375 34.46484375 71.7809375 34.46484375 72.4609375 C36.11484375 73.1209375 37.76484375 73.7809375 39.46484375 74.4609375 C39.46484375 75.1209375 39.46484375 75.7809375 39.46484375 76.4609375 C40.02171875 76.6878125 40.57859375 76.9146875 41.15234375 77.1484375 C43.45069527 78.45290728 45.02235888 79.93112516 46.83984375 81.828125 C49.0181618 84.01691573 51.29929183 86.07761876 53.58984375 88.1484375 C54.43804687 88.91542969 55.28625 89.68242187 56.16015625 90.47265625 C58.49774376 92.57207181 58.49774376 92.57207181 61.46484375 94.4609375 C61.46484375 95.1209375 61.46484375 95.7809375 61.46484375 96.4609375 C62.01011719 96.6878125 62.55539062 96.9146875 63.1171875 97.1484375 C66.18056232 98.86107301 68.46716189 101.06446795 71.02734375 103.4609375 C73.78514053 106.03538008 76.32439069 108.36730213 79.46484375 110.4609375 C79.46484375 111.1209375 79.46484375 111.7809375 79.46484375 112.4609375 C80.02171875 112.6878125 80.57859375 112.9146875 81.15234375 113.1484375 C85.14923261 115.41694199 88.00451024 118.07993696 89.46484375 122.4609375 C89.83154285 127.4113753 89.76995601 130.62274262 86.46484375 134.4609375 C81.60351908 137.16167343 80.05973936 137.57991662 74.46484375 136.4609375 C74.46484375 141.7409375 74.46484375 147.0209375 74.46484375 152.4609375 C77.84283203 152.37392578 77.84283203 152.37392578 81.2890625 152.28515625 C83.48002606 152.24611722 85.67095029 152.21578364 87.86206055 152.1862793 C89.38014176 152.16119641 90.89810293 152.1271209 92.41577148 152.08374023 C94.6030034 152.02280457 96.78863414 151.99466855 98.9765625 151.97265625 C100.29100342 151.94647217 101.60544434 151.92028809 102.9597168 151.89331055 C107.33529651 152.60190028 108.68988553 154.09510048 111.46484375 157.4609375 C112.0990625 158.20472656 112.73328125 158.94851563 113.38671875 159.71484375 C117.83068498 165.32677546 122.15784278 171.01371079 126.4140625 176.76953125 C128.02426122 178.88272537 129.66468987 180.82802625 131.46484375 182.7734375 C133.94440591 186.10534915 134.46484375 188.32528691 134.46484375 192.4609375 C132.97984375 194.4409375 132.97984375 194.4409375 131.46484375 196.4609375 C127.50484375 196.4609375 123.54484375 196.4609375 119.46484375 196.4609375 C119.46484375 225.1709375 119.46484375 253.8809375 119.46484375 283.4609375 C123.75484375 283.7909375 128.04484375 284.1209375 132.46484375 284.4609375 C134.11484375 285.4509375 135.76484375 286.4409375 137.46484375 287.4609375 C137.96484375 290.4609375 137.96484375 290.4609375 137.46484375 293.4609375 C135.85828062 295.62474823 134.97892593 296.37162437 132.30033207 296.83698499 C131.45252391 296.83747205 130.60471575 296.83795911 129.73121643 296.83846092 C128.75174262 296.84628416 127.77226881 296.85410741 126.76311398 296.86216772 C125.68443334 296.85547555 124.6057527 296.84878339 123.49438477 296.84188843 C122.35054353 296.8465684 121.20670229 296.85124837 120.0281992 296.85607016 C116.84821175 296.86598737 113.668566 296.86238905 110.4885869 296.85311151 C107.06112855 296.84634018 103.63371737 296.85679268 100.20626831 296.86505127 C93.48992781 296.87841137 86.77368772 296.87550078 80.05734324 296.86681335 C74.60024232 296.86004614 69.14316959 296.8591159 63.68606567 296.8623848 C62.91023717 296.8628445 62.13440866 296.86330419 61.33507019 296.86377782 C59.75913198 296.86473697 58.18319377 296.86570961 56.60725558 296.8666956 C41.81963153 296.87525616 27.03206321 296.86540493 12.2444483 296.8492945 C-0.45197124 296.8358907 -13.1483085 296.83821861 -25.84472656 296.85205078 C-40.57838961 296.86809485 -55.31200377 296.87443212 -70.04567432 296.86521399 C-71.61590893 296.86425831 -73.18614355 296.8633152 -74.75637817 296.8623848 C-75.91534384 296.86169056 -75.91534384 296.86169056 -77.09772295 296.86098229 C-82.55009503 296.85838888 -88.00243618 296.86277095 -93.45480347 296.86982346 C-100.09681961 296.87822565 -106.73872935 296.87598542 -113.38073325 296.85998122 C-116.7714815 296.85208113 -120.16205217 296.84903622 -123.55279922 296.85892868 C-127.2236115 296.86707398 -130.89391762 296.85690725 -134.56469727 296.84188843 C-135.6433779 296.84858059 -136.72205854 296.85527276 -137.83342648 296.86216772 C-138.81290029 296.85434447 -139.7923741 296.84652123 -140.80152893 296.83846092 C-141.64933709 296.83797387 -142.49714525 296.83748681 -143.37064457 296.83698499 C-146.05906977 296.36991634 -146.96957039 295.67717876 -148.53515625 293.4609375 C-148.47265625 289.8984375 -148.47265625 289.8984375 -147.53515625 286.4609375 C-144.07790453 283.86168986 -140.46415812 284.25854858 -136.28515625 284.3359375 C-135.021875 284.35398437 -133.75859375 284.37203125 -132.45703125 284.390625 C-131.01070312 284.42542969 -131.01070312 284.42542969 -129.53515625 284.4609375 C-129.69781479 283.96934143 -129.86047333 283.47774536 -130.02806091 282.97125244 C-130.74559445 279.41918829 -130.66550267 275.90351443 -130.64868164 272.29589844 C-130.64882767 271.4760144 -130.64897369 270.65613037 -130.64912415 269.81140137 C-130.64842843 267.10601134 -130.64065197 264.40069048 -130.6328125 261.6953125 C-130.63094711 259.81772906 -130.62952378 257.94014513 -130.62852478 256.06256104 C-130.62470914 251.12405043 -130.61488696 246.18556929 -130.6038208 241.24707031 C-130.59358621 236.20638426 -130.58902277 231.16569345 -130.58398438 226.125 C-130.57326386 216.23696623 -130.55619885 206.34895432 -130.53515625 196.4609375 C-131.36660156 196.49574219 -132.19804687 196.53054688 -133.0546875 196.56640625 C-134.68470703 196.60701172 -134.68470703 196.60701172 -136.34765625 196.6484375 C-137.42660156 196.68324219 -138.50554687 196.71804688 -139.6171875 196.75390625 C-142.53515625 196.4609375 -142.53515625 196.4609375 -144.42211914 195.15185547 C-145.53515625 193.4609375 -145.53515625 193.4609375 -145.53125 190.21875 C-144.33519719 185.70658213 -142.44856188 182.95578356 -139.59765625 179.3359375 C-139.10837646 178.69285645 -138.61909668 178.04977539 -138.11499023 177.38720703 C-136.60048274 175.40214218 -135.06833237 173.43160089 -133.53515625 171.4609375 C-132.59620389 170.23287992 -131.65864967 169.0037518 -130.72265625 167.7734375 C-128.3447372 164.65515342 -125.94960343 161.55108559 -123.53515625 158.4609375 C-122.82230469 157.53539062 -122.10945313 156.60984375 -121.375 155.65625 C-119.53515625 153.4609375 -119.53515625 153.4609375 -117.53515625 152.4609375 C-115.12676947 152.37453881 -112.74781744 152.34525986 -110.33984375 152.36328125 C-109.63240021 152.3646962 -108.92495667 152.36611115 -108.19607544 152.36756897 C-105.93405956 152.3731715 -103.67214227 152.38572432 -101.41015625 152.3984375 C-99.8776056 152.40345218 -98.34505339 152.40801514 -96.8125 152.41210938 C-93.05331678 152.42229134 -89.29434701 152.44186607 -85.53515625 152.4609375 C-85.53515625 147.1809375 -85.53515625 141.9009375 -85.53515625 136.4609375 C-86.85515625 136.7909375 -88.17515625 137.1209375 -89.53515625 137.4609375 C-91.82421875 137.04296875 -91.82421875 137.04296875 -94.16015625 136.2734375 C-94.93617188 136.03238281 -95.7121875 135.79132813 -96.51171875 135.54296875 C-99.05320837 134.18390963 -99.58303095 133.1513018 -100.53515625 130.4609375 C-101.42894313 126.2530205 -101.39628443 122.83321663 -99.07421875 119.1328125 C-94.51819645 113.78861757 -94.51819645 113.78861757 -90.53515625 112.4609375 C-90.04015625 110.9759375 -90.04015625 110.9759375 -89.53515625 109.4609375 C-87.81801396 107.91976682 -86.03720452 106.44863899 -84.22265625 105.0234375 C-81.44005773 102.82782238 -78.78136408 100.71318195 -76.3046875 98.17578125 C-74.53515625 96.4609375 -74.53515625 96.4609375 -72.53515625 96.4609375 C-72.53515625 95.8009375 -72.53515625 95.1409375 -72.53515625 94.4609375 C-70.9609375 93.12890625 -70.9609375 93.12890625 -68.84765625 91.6484375 C-65.41597665 89.15926145 -62.46041873 86.54432227 -59.53515625 83.4609375 C-55.76263334 79.58913767 -51.90646492 75.66509574 -47.53515625 72.4609375 C-46.87515625 72.4609375 -46.21515625 72.4609375 -45.53515625 72.4609375 C-45.31085938 71.88988281 -45.0865625 71.31882812 -44.85546875 70.73046875 C-43.15153151 67.80151154 -41.07340198 66.23674857 -38.41015625 64.1484375 C-32.68505352 59.58484121 -27.03095296 55.01615794 -21.91015625 49.7734375 C-15.42704814 43.4609375 -15.42704814 43.4609375 -11.53515625 43.4609375 C-11.55872192 41.72021973 -11.55872192 41.72021973 -11.58276367 39.94433594 C-11.63709549 35.63565013 -11.67151816 31.32699457 -11.69995117 27.01806641 C-11.71503039 25.15375678 -11.73549686 23.28948258 -11.76147461 21.42529297 C-11.79789621 18.74437717 -11.81489115 16.0639307 -11.828125 13.3828125 C-11.84360886 12.55038025 -11.85909271 11.717948 -11.87504578 10.86029053 C-11.87600153 7.56816226 -11.75150821 5.01645896 -10.55029297 1.93212891 C-7.31271127 -0.43153324 -3.85062345 -0.06836461 0 0 Z " fill="#FDC759" transform="translate(255.53515625,101.5390625)"/>
<path d="M0 0 C11.55 0 23.1 0 35 0 C61.1369863 32.67123288 61.1369863 32.67123288 60.8125 38.1875 C60 41 60 41 58 43 C54.04 43 50.08 43 46 43 C46 71.71 46 100.42 46 130 C50.29 130.33 54.58 130.66 59 131 C60.65 131.99 62.3 132.98 64 134 C64.5 137 64.5 137 64 140 C62.39343687 142.16381073 61.51408218 142.91068687 58.83548832 143.37604749 C57.98768016 143.37653455 57.139872 143.37702161 56.26637268 143.37752342 C54.79716197 143.38925829 54.79716197 143.38925829 53.29827023 143.40123022 C52.21958959 143.39453805 51.14090895 143.38784589 50.02954102 143.38095093 C48.88569978 143.3856309 47.74185854 143.39031087 46.56335545 143.39513266 C43.383368 143.40504987 40.20372225 143.40145155 37.02374315 143.39217401 C33.5962848 143.38540268 30.16887362 143.39585518 26.74142456 143.40411377 C20.02508406 143.41747387 13.30884397 143.41456328 6.59249949 143.40587585 C1.13539857 143.39910864 -4.32167416 143.3981784 -9.77877808 143.4014473 C-10.55460658 143.401907 -11.33043509 143.40236669 -12.12977356 143.40284032 C-13.70571177 143.40379947 -15.28164998 143.40477211 -16.85758817 143.4057581 C-31.64521222 143.41431866 -46.43278054 143.40446743 -61.22039545 143.388357 C-73.91681499 143.3749532 -86.61315225 143.37728111 -99.30957031 143.39111328 C-114.04323336 143.40715735 -128.77684752 143.41349462 -143.51051807 143.40427649 C-145.08075268 143.40332081 -146.6509873 143.4023777 -148.22122192 143.4014473 C-149.38018759 143.40075306 -149.38018759 143.40075306 -150.5625667 143.40004479 C-156.01493878 143.39745138 -161.46727993 143.40183345 -166.91964722 143.40888596 C-173.56166336 143.41728815 -180.2035731 143.41504792 -186.845577 143.39904372 C-190.23632525 143.39114363 -193.62689592 143.38809872 -197.01764297 143.39799118 C-200.68845525 143.40613648 -204.35876137 143.39596975 -208.02954102 143.38095093 C-209.64756197 143.39098918 -209.64756197 143.39098918 -211.29827023 143.40123022 C-212.27774404 143.39340697 -213.25721785 143.38558373 -214.26637268 143.37752342 C-215.11418084 143.37703637 -215.961989 143.37654931 -216.83548832 143.37604749 C-219 143 -219 143 -220.81147671 141.70296729 C-222 140 -222 140 -221.75 136.375 C-221 133 -221 133 -220 132 C-218.21572813 131.90363162 -216.42760347 131.87812547 -214.64073181 131.87974548 C-212.89693993 131.87768349 -212.89693993 131.87768349 -211.11791992 131.87557983 C-209.18770996 131.88097275 -209.18770996 131.88097275 -207.21850586 131.88647461 C-205.85876976 131.88675648 -204.4990335 131.88659875 -203.13929749 131.8860321 C-199.43698222 131.88574413 -195.73469908 131.89164088 -192.03239131 131.89860606 C-188.16731219 131.90483957 -184.30223242 131.9054434 -180.43714905 131.90663147 C-173.11315318 131.90974479 -165.78917216 131.9179582 -158.46518284 131.92798096 C-150.12916552 131.93914206 -141.79314751 131.94465254 -133.45712459 131.94967639 C-116.30473965 131.96014081 -99.15237518 131.9784863 -82 132 C-82 112.86 -82 93.72 -82 74 C-66.16 74 -50.32 74 -34 74 C-34 92.81 -34 111.62 -34 131 C-22.78 131 -11.56 131 0 131 C0 87.77 0 44.54 0 0 Z " fill="#F0B159" transform="translate(329,255)"/>
<path d="M0 0 C0.7199263 0.02266937 1.4398526 0.04533875 2.18159485 0.06869507 C2.92822891 0.07339813 3.67486298 0.0781012 4.44412231 0.08294678 C6.82240483 0.10425546 9.19844113 0.16087023 11.5761261 0.21713257 C13.1874333 0.2336422 14.79876421 0.24798962 16.41011047 0.26010132 C28.19285616 0.39636263 28.19285616 0.39636263 29.3886261 1.59213257 C29.48479417 3.27504953 29.510503 4.96202818 29.50888062 6.64768982 C29.51025528 7.74290451 29.51162994 8.8381192 29.51304626 9.96652222 C29.50765335 11.78452332 29.50765335 11.78452332 29.50215149 13.63925171 C29.50229752 14.90736191 29.50244354 16.17547211 29.50259399 17.48200989 C29.50288195 20.96945679 29.49698554 24.45686958 29.49002004 27.94430852 C29.48378617 31.5851698 29.48318267 35.22603179 29.48199463 38.86689758 C29.47888141 45.76590229 29.47066815 52.66489122 29.46064514 59.56388897 C29.44948371 67.41623942 29.44397348 75.2685906 29.4389497 83.120947 C29.42848552 99.27801956 29.41014016 115.43507038 29.3886261 131.59213257 C40.6086261 131.59213257 51.8286261 131.59213257 63.3886261 131.59213257 C63.3886261 112.78213257 63.3886261 93.97213257 63.3886261 74.59213257 C77.2486261 74.59213257 91.1086261 74.59213257 105.3886261 74.59213257 C105.3886261 93.73213257 105.3886261 112.87213257 105.3886261 132.59213257 C60.8386261 132.59213257 16.2886261 132.59213257 -29.6113739 132.59213257 C-29.6113739 132.26213257 -29.6113739 131.93213257 -29.6113739 131.59213257 C-24.9913739 131.59213257 -20.3713739 131.59213257 -15.6113739 131.59213257 C-15.9413739 130.27213257 -16.2713739 128.95213257 -16.6113739 127.59213257 C-16.70084803 124.86151991 -16.73762915 122.15727288 -16.72489929 119.42709351 C-16.72504532 118.60720947 -16.72519135 117.78732544 -16.7253418 116.94259644 C-16.72464608 114.23720641 -16.71686962 111.53188554 -16.70903015 108.82650757 C-16.70716476 106.94892413 -16.70574143 105.0713402 -16.70474243 103.1937561 C-16.70092679 98.25524549 -16.69110461 93.31676436 -16.68003845 88.37826538 C-16.66980387 83.33757933 -16.66524042 78.29688852 -16.66020203 73.25619507 C-16.64948151 63.3681613 -16.6324165 53.48014938 -16.6113739 43.59213257 C-17.44281921 43.62693726 -18.27426453 43.66174194 -19.13090515 43.69760132 C-20.76092468 43.73820679 -20.76092468 43.73820679 -22.4238739 43.77963257 C-23.50281921 43.81443726 -24.58176453 43.84924194 -25.69340515 43.88510132 C-28.6113739 43.59213257 -28.6113739 43.59213257 -30.49833679 42.28305054 C-31.6113739 40.59213257 -31.6113739 40.59213257 -31.60746765 37.34994507 C-30.41141484 32.8377772 -28.52477953 30.08697863 -25.6738739 26.46713257 C-24.93995422 25.50251099 -24.93995422 25.50251099 -24.19120789 24.5184021 C-22.67670039 22.53333725 -21.14455002 20.56279596 -19.6113739 18.59213257 C-18.67242154 17.36407499 -17.73486732 16.13494686 -16.7988739 14.90463257 C-14.42095485 11.78634849 -12.02582109 8.68228066 -9.6113739 5.59213257 C-9.06690613 4.72008179 -8.52243835 3.84803101 -7.96147156 2.94955444 C-5.26569949 0.24538084 -3.75492715 0.0158034 0 0 Z " fill="#F1B257" transform="translate(141.6113739013672,254.40786743164063)"/>
<path d="M0 0 C0.83446152 0.00091644 1.66892303 0.00183289 2.52867126 0.0027771 C4.29138889 0.00881603 6.05409612 0.02457091 7.81665039 0.04931641 C10.5207277 0.08584812 13.22343599 0.09033566 15.92773438 0.08984375 C17.63933481 0.09967392 19.35092593 0.11133049 21.0625 0.125 C21.87396988 0.12722565 22.68543976 0.12945129 23.52149963 0.13174438 C29.2326913 0.22878505 29.2326913 0.22878505 31.46484375 2.4609375 C31.70776367 5.2265625 31.70776367 5.2265625 31.6953125 8.7109375 C31.69337891 9.95875 31.69144531 11.2065625 31.68945312 12.4921875 C31.67720703 13.801875 31.66496094 15.1115625 31.65234375 16.4609375 C31.65137695 18.42546875 31.65137695 18.42546875 31.65039062 20.4296875 C31.60506142 30.18050215 31.60506142 30.18050215 30.46484375 32.4609375 C20.56484375 32.4609375 10.66484375 32.4609375 0.46484375 32.4609375 C0.95984375 37.9059375 0.95984375 37.9059375 1.46484375 43.4609375 C4.14780032 45.5524407 4.14780032 45.5524407 7.46484375 46.4609375 C10.09975587 48.38892197 12.40273249 50.39860982 14.70703125 52.7109375 C17.74899936 55.74428814 20.87089314 58.6728496 24.02734375 61.5859375 C24.59130859 62.11058594 25.15527344 62.63523438 25.73632812 63.17578125 C28.05385478 65.31712167 30.30947267 67.34826189 32.8671875 69.203125 C33.39441406 69.61820312 33.92164063 70.03328125 34.46484375 70.4609375 C34.46484375 71.1209375 34.46484375 71.7809375 34.46484375 72.4609375 C36.11484375 73.1209375 37.76484375 73.7809375 39.46484375 74.4609375 C39.46484375 75.1209375 39.46484375 75.7809375 39.46484375 76.4609375 C40.02171875 76.6878125 40.57859375 76.9146875 41.15234375 77.1484375 C43.45069527 78.45290728 45.02235888 79.93112516 46.83984375 81.828125 C49.0181618 84.01691573 51.29929183 86.07761876 53.58984375 88.1484375 C54.43804687 88.91542969 55.28625 89.68242187 56.16015625 90.47265625 C58.49774376 92.57207181 58.49774376 92.57207181 61.46484375 94.4609375 C61.46484375 95.1209375 61.46484375 95.7809375 61.46484375 96.4609375 C62.01011719 96.6878125 62.55539062 96.9146875 63.1171875 97.1484375 C66.18056232 98.86107301 68.46716189 101.06446795 71.02734375 103.4609375 C73.78514053 106.03538008 76.32439069 108.36730213 79.46484375 110.4609375 C79.46484375 111.1209375 79.46484375 111.7809375 79.46484375 112.4609375 C80.02171875 112.6878125 80.57859375 112.9146875 81.15234375 113.1484375 C85.14923261 115.41694199 88.00451024 118.07993696 89.46484375 122.4609375 C89.83154285 127.4113753 89.76995601 130.62274262 86.46484375 134.4609375 C82.93450983 136.28914614 80.45403737 137.4609375 76.46484375 137.4609375 C76.46484375 136.8009375 76.46484375 136.1409375 76.46484375 135.4609375 C75.8821875 135.34621094 75.29953125 135.23148438 74.69921875 135.11328125 C72.2996124 134.41269688 70.73623442 133.47901155 68.71484375 132.0234375 C68.10125 131.59160156 67.48765625 131.15976563 66.85546875 130.71484375 C66.3965625 130.30105469 65.93765625 129.88726562 65.46484375 129.4609375 C65.46484375 128.8009375 65.46484375 128.1409375 65.46484375 127.4609375 C64.90796875 127.2134375 64.35109375 126.9659375 63.77734375 126.7109375 C61.04073462 125.23168932 58.78833506 123.52626311 56.46484375 121.4609375 C56.46484375 120.8009375 56.46484375 120.1409375 56.46484375 119.4609375 C55.91957031 119.2340625 55.37429688 119.0071875 54.8125 118.7734375 C51.77873664 117.07735682 49.41046624 114.83209767 46.90234375 112.4609375 C45.83744457 111.46983179 44.77233554 110.47895151 43.70703125 109.48828125 C43.16916992 108.98538574 42.63130859 108.48249023 42.07714844 107.96435547 C39.57669611 105.63277076 37.05353656 103.32713366 34.52734375 101.0234375 C33.67269531 100.24097656 32.81804687 99.45851563 31.9375 98.65234375 C30.22890569 97.13809192 28.45998624 95.69022154 26.6484375 94.30078125 C25.92785156 93.69363281 25.20726562 93.08648437 24.46484375 92.4609375 C24.46484375 91.8009375 24.46484375 91.1409375 24.46484375 90.4609375 C23.90023437 90.21472656 23.335625 89.96851563 22.75390625 89.71484375 C20.06588447 88.24239496 18.09167219 86.47789471 15.83984375 84.3984375 C14.9684375 83.59921875 14.09703125 82.8 13.19921875 81.9765625 C11.84570312 80.73132813 11.84570312 80.73132813 10.46484375 79.4609375 C8.67477392 77.85498914 6.88316507 76.25075419 5.08984375 74.6484375 C2.73467652 72.54259579 0.51043391 70.5129033 -1.57421875 68.13671875 C-3.34633285 66.26023601 -3.34633285 66.26023601 -5.4375 66.4375 C-8.354537 67.86070986 -10.61519243 69.74864139 -13.09765625 71.8359375 C-14.04769531 72.62742187 -14.99773437 73.41890625 -15.9765625 74.234375 C-18.45556271 76.32398094 -18.45556271 76.32398094 -20.25 78.25 C-21.53515625 79.4609375 -21.53515625 79.4609375 -23.53515625 79.4609375 C-23.53515625 80.1209375 -23.53515625 80.7809375 -23.53515625 81.4609375 C-25.109375 83.01171875 -25.109375 83.01171875 -27.22265625 84.7734375 C-29.56066154 86.75645769 -31.76828733 88.70020361 -33.91015625 90.8984375 C-36.35201883 93.2821605 -38.85869518 95.34898076 -41.53515625 97.4609375 C-45.11288995 100.28518678 -48.35068177 103.19480983 -51.53515625 106.4609375 C-54.50301659 109.16422114 -57.5215184 111.80893619 -60.53515625 114.4609375 C-61.26734375 115.1209375 -61.99953125 115.7809375 -62.75390625 116.4609375 C-63.44484375 117.0796875 -64.13578125 117.6984375 -64.84765625 118.3359375 C-65.46253906 118.89023438 -66.07742187 119.44453125 -66.7109375 120.015625 C-68.53515625 121.4609375 -68.53515625 121.4609375 -70.7109375 122.5390625 C-72.69888263 123.30778219 -72.69888263 123.30778219 -73.41015625 125.3359375 C-75.05028119 128.43395128 -77.61946388 129.57431302 -80.53515625 131.4609375 C-81.40140625 132.3478125 -82.26765625 133.2346875 -83.16015625 134.1484375 C-85.59326382 136.51751592 -86.30197704 137.03614023 -89.53515625 137.4609375 C-91.82421875 137.04296875 -91.82421875 137.04296875 -94.16015625 136.2734375 C-94.93617188 136.03238281 -95.7121875 135.79132813 -96.51171875 135.54296875 C-99.05320837 134.18390963 -99.58303095 133.1513018 -100.53515625 130.4609375 C-101.42894313 126.2530205 -101.39628443 122.83321663 -99.07421875 119.1328125 C-94.51819645 113.78861757 -94.51819645 113.78861757 -90.53515625 112.4609375 C-90.20515625 111.4709375 -89.87515625 110.4809375 -89.53515625 109.4609375 C-87.81801396 107.91976682 -86.03720452 106.44863899 -84.22265625 105.0234375 C-81.44005773 102.82782238 -78.78136408 100.71318195 -76.3046875 98.17578125 C-74.53515625 96.4609375 -74.53515625 96.4609375 -72.53515625 96.4609375 C-72.53515625 95.8009375 -72.53515625 95.1409375 -72.53515625 94.4609375 C-70.9609375 93.12890625 -70.9609375 93.12890625 -68.84765625 91.6484375 C-65.41597665 89.15926145 -62.46041873 86.54432227 -59.53515625 83.4609375 C-55.76263334 79.58913767 -51.90646492 75.66509574 -47.53515625 72.4609375 C-46.87515625 72.4609375 -46.21515625 72.4609375 -45.53515625 72.4609375 C-45.31085938 71.88988281 -45.0865625 71.31882812 -44.85546875 70.73046875 C-43.15153151 67.80151154 -41.07340198 66.23674857 -38.41015625 64.1484375 C-32.68505352 59.58484121 -27.03095296 55.01615794 -21.91015625 49.7734375 C-15.42704814 43.4609375 -15.42704814 43.4609375 -11.53515625 43.4609375 C-11.5508667 42.30045898 -11.56657715 41.13998047 -11.58276367 39.94433594 C-11.63709549 35.63565013 -11.67151816 31.32699457 -11.69995117 27.01806641 C-11.71503039 25.15375678 -11.73549686 23.28948258 -11.76147461 21.42529297 C-11.79789621 18.74437717 -11.81489115 16.0639307 -11.828125 13.3828125 C-11.84360886 12.55038025 -11.85909271 11.717948 -11.87504578 10.86029053 C-11.87600153 7.56816226 -11.75150821 5.01645896 -10.55029297 1.93212891 C-7.31271127 -0.43153324 -3.85062345 -0.06836461 0 0 Z " fill="#9E5B45" transform="translate(255.53515625,101.5390625)"/>
<path d="M0 0 C1.65 0 3.3 0 5 0 C6 1 6 1 6.12025452 3.28419495 C6.11803391 4.29457321 6.11581329 5.30495148 6.11352539 6.34594727 C6.11344986 7.4870546 6.11337433 8.62816193 6.11329651 9.80384827 C6.10813522 11.0454924 6.10297394 12.28713654 6.09765625 13.56640625 C6.09553383 15.46204567 6.09553383 15.46204567 6.09336853 17.39598083 C6.08870582 20.76124889 6.0797148 24.1264499 6.06866455 27.49169922 C6.05844846 30.9234967 6.05387049 34.35530109 6.04882812 37.78710938 C6.0377738 44.52475824 6.0210171 51.26237525 6 58 C7.05494392 57.99723462 7.05494392 57.99723462 8.13119984 57.99441338 C25.23155964 57.95027483 42.33190499 57.91716317 59.43230915 57.89637566 C67.70188249 57.88605618 75.97141784 57.87198305 84.2409668 57.84912109 C91.44738467 57.82920773 98.65377504 57.81628845 105.86021966 57.81182301 C109.67717053 57.80921214 113.49404271 57.80306159 117.3109684 57.78853989 C120.90190139 57.77498838 124.49272307 57.7707724 128.0836792 57.77378464 C130.03331418 57.77297008 131.98293698 57.76219573 133.93254089 57.75115967 C135.66783554 57.75528366 135.66783554 57.75528366 137.43818665 57.75949097 C138.94946624 57.75672559 138.94946624 57.75672559 140.49127674 57.75390434 C143 58 143 58 146 60 C146.6527455 65.11317307 146.6527455 65.11317307 144.77241421 67.66781104 C142.46963419 69.39863565 141.1326772 69.37587676 138.26637268 69.37752342 C137.28689887 69.38534666 136.30742506 69.39316991 135.29827023 69.40123022 C134.21958959 69.39453805 133.14090895 69.38784589 132.02954102 69.38095093 C130.88569978 69.3856309 129.74185854 69.39031087 128.56335545 69.39513266 C125.383368 69.40504987 122.20372225 69.40145155 119.02374315 69.39217401 C115.5962848 69.38540268 112.16887362 69.39585518 108.74142456 69.40411377 C102.02508406 69.41747387 95.30884397 69.41456328 88.59249949 69.40587585 C83.13539857 69.39910864 77.67832584 69.3981784 72.22122192 69.4014473 C71.44539342 69.401907 70.66956491 69.40236669 69.87022644 69.40284032 C68.29428823 69.40379947 66.71835002 69.40477211 65.14241183 69.4057581 C50.35478778 69.41431866 35.56721946 69.40446743 20.77960455 69.388357 C8.08318501 69.3749532 -4.61315225 69.37728111 -17.30957031 69.39111328 C-32.04323336 69.40715735 -46.77684752 69.41349462 -61.51051807 69.40427649 C-63.08075268 69.40332081 -64.6509873 69.4023777 -66.22122192 69.4014473 C-67.38018759 69.40075306 -67.38018759 69.40075306 -68.5625667 69.40004479 C-74.01493878 69.39745138 -79.46727993 69.40183345 -84.91964722 69.40888596 C-91.56166336 69.41728815 -98.2035731 69.41504792 -104.845577 69.39904372 C-108.23632525 69.39114363 -111.62689592 69.38809872 -115.01764297 69.39799118 C-118.68845525 69.40613648 -122.35876137 69.39596975 -126.02954102 69.38095093 C-127.64756197 69.39098918 -127.64756197 69.39098918 -129.29827023 69.40123022 C-130.76748094 69.38949535 -130.76748094 69.38949535 -132.26637268 69.37752342 C-133.11418084 69.37703637 -133.961989 69.37654931 -134.83548832 69.37604749 C-137 69 -137 69 -138.81147671 67.70296729 C-140 66 -140 66 -139.75 62.375 C-139 59 -139 59 -138 58 C-136.21572813 57.90363162 -134.42760347 57.87812547 -132.64073181 57.87974548 C-130.89693993 57.87768349 -130.89693993 57.87768349 -129.11791992 57.87557983 C-127.18770996 57.88097275 -127.18770996 57.88097275 -125.21850586 57.88647461 C-123.85876976 57.88675648 -122.4990335 57.88659875 -121.13929749 57.8860321 C-117.43698222 57.88574413 -113.73469908 57.89164088 -110.03239131 57.89860606 C-106.16731219 57.90483957 -102.30223242 57.9054434 -98.43714905 57.90663147 C-91.11315318 57.90974479 -83.78917216 57.9179582 -76.46518284 57.92798096 C-68.12916552 57.93914206 -59.79314751 57.94465254 -51.45712459 57.94967639 C-34.30473965 57.96014081 -17.15237518 57.9784863 0 58 C0 38.86 0 19.72 0 0 Z " fill="#9D5B44" transform="translate(247,329)"/>
<path d="M0 0 C13.86 0 27.72 0 42 0 C42 19.14 42 38.28 42 58 C-2.55 58 -47.1 58 -93 58 C-93 57.67 -93 57.34 -93 57 C-62.31 57 -31.62 57 0 57 C0 38.19 0 19.38 0 0 Z " fill="#CA7957" transform="translate(205,329)"/>
<path d="M0 0 C14.19 0 28.38 0 43 0 C43 19.14 43 38.28 43 58 C29.14 58 15.28 58 1 58 C0.505 29.29 0.505 29.29 0 0 Z " fill="#C97657" transform="translate(252,329)"/>
<path d="M0 0 C0.7199263 0.02266937 1.4398526 0.04533875 2.18159485 0.06869507 C2.92822891 0.07339813 3.67486298 0.0781012 4.44412231 0.08294678 C6.82240483 0.10425546 9.19844113 0.16087023 11.5761261 0.21713257 C13.1874333 0.2336422 14.79876421 0.24798962 16.41011047 0.26010132 C28.19285616 0.39636263 28.19285616 0.39636263 29.3886261 1.59213257 C29.47736745 4.69464457 29.50381065 7.77481377 29.48628235 10.87728882 C29.4848674 11.80810776 29.48345245 12.7389267 29.48199463 13.69795227 C29.47637782 16.68354448 29.4638225 19.66906286 29.4511261 22.65463257 C29.44611326 24.6735117 29.44154998 26.692392 29.43745422 28.71127319 C29.42640293 33.67158828 29.40912705 38.63184789 29.3886261 43.59213257 C15.03376129 43.70173743 0.68599495 43.67382559 -13.66407776 43.27374268 C-15.04495219 43.23602053 -16.4259212 43.20161371 -17.80696106 43.17053223 C-19.74462321 43.1256144 -21.68193397 43.06623878 -23.6191864 43.00619507 C-25.28425232 42.95906372 -25.28425232 42.95906372 -26.98295593 42.91098022 C-29.6113739 42.59213257 -29.6113739 42.59213257 -31.6113739 40.59213257 C-31.48329021 34.45918417 -29.31231774 31.08693003 -25.6738739 26.46713257 C-24.93995422 25.50251099 -24.93995422 25.50251099 -24.19120789 24.5184021 C-22.67670039 22.53333725 -21.14455002 20.56279596 -19.6113739 18.59213257 C-18.67242154 17.36407499 -17.73486732 16.13494686 -16.7988739 14.90463257 C-14.42095485 11.78634849 -12.02582109 8.68228066 -9.6113739 5.59213257 C-9.06690613 4.72008179 -8.52243835 3.84803101 -7.96147156 2.94955444 C-5.26569949 0.24538084 -3.75492715 0.0158034 0 0 Z " fill="#9D5A44" transform="translate(141.6113739013672,254.40786743164063)"/>
<path d="M0 0 C5.61 -0.20625 11.22 -0.4125 17 -0.625 C19.63162109 -0.76156006 19.63162109 -0.76156006 22.31640625 -0.90087891 C33.37252435 -1.23472027 33.37252435 -1.23472027 37.78710938 2.11450195 C39.8189571 4.65267303 41.41095428 7.16944584 43 10 C44.14239626 11.49799063 45.30569385 12.9805587 46.5 14.4375 C61.12867116 33.32727492 61.12867116 33.32727492 60.75 38.25 C60 41 60 41 59 42 C57.15881971 42.09381302 55.31402359 42.11743954 53.47045898 42.11352539 C52.28931015 42.11344986 51.10816132 42.11337433 49.89122009 42.11329651 C48.6058284 42.10813522 47.32043671 42.10297394 45.99609375 42.09765625 C44.68794205 42.0962413 43.37979034 42.09482635 42.03199768 42.09336853 C38.54837141 42.0895441 35.06478661 42.07971446 31.58117676 42.06866455 C28.02873302 42.05844882 24.47628241 42.05381586 20.92382812 42.04882812 C13.94918209 42.03862232 6.97465003 42.01905064 0 42 C0 28.14 0 14.28 0 0 Z " fill="#9D5A44" transform="translate(329,255)"/>
<path d="M0 0 C2.76102342 1.60317489 4.69191715 3.86000289 6.9375 6.125 C11.98381674 10.81679225 17.10679859 15.42325798 22.3125 19.9375 C25.31967228 22.5505872 28.11973709 25.30723709 30.9375 28.125 C36.17728169 32.93648649 41.5109053 37.64054655 46.875 42.3125 C49.24714429 44.39711164 51.59306065 46.50928644 53.9375 48.625 C57.62171002 51.94812359 61.32241549 55.24881223 65.0703125 58.5 C66.30329276 59.57305395 67.52751315 60.65626725 68.7421875 61.75 C72.57758095 65.15923862 76.40106567 67.7179124 80.9375 70.125 C79.9475 70.455 78.9575 70.785 77.9375 71.125 C77.9375 73.765 77.9375 76.405 77.9375 79.125 C74.87405233 78.52765286 72.93528548 77.61058786 70.484375 75.69140625 C69.865625 75.20736328 69.246875 74.72332031 68.609375 74.22460938 C67.97515625 73.71736328 67.3409375 73.21011719 66.6875 72.6875 C66.0378125 72.18412109 65.388125 71.68074219 64.71875 71.16210938 C63.08275572 69.86809289 61.504697 68.50153533 59.9375 67.125 C59.9375 66.465 59.9375 65.805 59.9375 65.125 C59.339375 64.83625 58.74125 64.5475 58.125 64.25 C55.9375 63.125 55.9375 63.125 52.9375 61.125 C52.9375 60.465 52.9375 59.805 52.9375 59.125 C51.9475 59.125 50.9575 59.125 49.9375 59.125 C49.9375 58.465 49.9375 57.805 49.9375 57.125 C49.35484375 56.856875 48.7721875 56.58875 48.171875 56.3125 C45.90963399 55.11019009 44.13173682 53.78674087 42.1875 52.125 C41.57390625 51.609375 40.9603125 51.09375 40.328125 50.5625 C38.9375 49.125 38.9375 49.125 38.9375 47.125 C38.174375 46.856875 37.41125 46.58875 36.625 46.3125 C33.93910115 45.12570749 32.93925847 44.17594172 30.9375 42.125 C29.57808098 41.02217815 28.20146431 39.94037048 26.8125 38.875 C26.02101563 38.26398438 25.22953125 37.65296875 24.4140625 37.0234375 C22.78619947 35.77558035 21.15605286 34.53069554 19.5234375 33.2890625 C15.36820597 30.10662765 11.64249926 26.82999926 7.9375 23.125 C6.28488161 22.10195052 4.61958635 21.09883946 2.9375 20.125 C2.463125 19.5475 1.98875 18.97 1.5 18.375 C-0.14742064 16.75899997 -0.14742064 16.75899997 -3.25 17.4375 C-4.178125 17.664375 -5.10625 17.89125 -6.0625 18.125 C-6.0625 18.785 -6.0625 19.445 -6.0625 20.125 C-7.9609375 21.8515625 -7.9609375 21.8515625 -10.4375 23.75 C-11.24960938 24.38164062 -12.06171875 25.01328125 -12.8984375 25.6640625 C-15.0625 27.125 -15.0625 27.125 -17.0625 27.125 C-17.0625 27.785 -17.0625 28.445 -17.0625 29.125 C-17.7225 29.125 -18.3825 29.125 -19.0625 29.125 C-19.0625 29.785 -19.0625 30.445 -19.0625 31.125 C-21.04850337 32.4790932 -23.05067543 33.80957624 -25.0625 35.125 C-26.41558313 36.43828657 -27.75120078 37.76999081 -29.0625 39.125 C-32.70535714 42.125 -32.70535714 42.125 -35.0625 42.125 C-35.0625 42.785 -35.0625 43.445 -35.0625 44.125 C-37.11039525 45.86995216 -39.168305 47.50572085 -41.3125 49.125 C-42.60010787 50.11569523 -43.88654513 51.10791356 -45.171875 52.1015625 C-45.82349609 52.60461914 -46.47511719 53.10767578 -47.14648438 53.62597656 C-51.88648718 57.33438854 -56.45934421 61.24935447 -61.0625 65.125 C-70.62565116 73.125 -70.62565116 73.125 -73.0625 73.125 C-73.289375 73.723125 -73.51625 74.32125 -73.75 74.9375 C-75.40061133 77.68851888 -77.2597081 78.64984637 -80.0625 80.125 C-80.68340376 71.24262677 -80.68340376 71.24262677 -78.5 67.3125 C-76.04232698 65.10689601 -73.51653934 63.23329976 -70.79296875 61.375 C-68.26846153 59.55142819 -66.2033663 57.37854348 -64.0625 55.125 C-60.83684603 51.72957476 -57.59706767 49.02404111 -53.76171875 46.38671875 C-51.80334585 44.99679004 -51.80334585 44.99679004 -49.375 42.4375 C-47.0625 40.125 -47.0625 40.125 -44.875 39.0625 C-42.91404443 38.28946161 -42.91404443 38.28946161 -42.29296875 36.36328125 C-40.595339 33.27521189 -38.29701362 31.57700308 -35.5625 29.375 C-34.5828125 28.57578125 -33.603125 27.7765625 -32.59375 26.953125 C-30.0625 25.125 -30.0625 25.125 -28.0625 25.125 C-27.835625 24.568125 -27.60875 24.01125 -27.375 23.4375 C-25.68699964 20.46340412 -23.59573483 18.40491135 -21.0625 16.125 C-20.4025 16.125 -19.7425 16.125 -19.0625 16.125 C-19.0625 15.465 -19.0625 14.805 -19.0625 14.125 C-17.40766392 12.62622497 -15.68659488 11.20011527 -13.9375 9.8125 C-10.75050708 7.28008843 -7.62405893 4.75107473 -4.625 2 C-2.0625 0.125 -2.0625 0.125 0 0 Z " fill="#F0A032" transform="translate(251.0625,166.875)"/>
<path d="M0 0 C6.22506587 4.58689064 9.47269743 8.74395794 11.00390625 16.4765625 C11.69938553 22.33017974 11.1445376 26.3584966 8.00390625 31.4765625 C7.57078125 32.3221875 7.13765625 33.1678125 6.69140625 34.0390625 C3.11635341 39.20302771 -1.0305622 41.83712465 -6.99609375 43.4765625 C-13.7225959 44.29667531 -20.13874295 44.63177239 -26.05859375 40.9765625 C-30.13845129 37.76879346 -32.69599579 34.0864227 -34.99609375 29.4765625 C-35.42921875 28.6928125 -35.86234375 27.9090625 -36.30859375 27.1015625 C-38.06258815 20.40449298 -37.62973445 14.97093168 -34.55859375 8.7265625 C-31.11533041 2.95234892 -26.51144636 -1.07562905 -20.046875 -3.1484375 C-12.60210085 -4.50976763 -6.44118 -4.12512064 0 0 Z " fill="#CA7858" transform="translate(262.99609375,203.5234375)"/>
<path d="M0 0 C0.83446152 0.00091644 1.66892303 0.00183289 2.52867126 0.0027771 C4.29138889 0.00881603 6.05409612 0.02457091 7.81665039 0.04931641 C10.5207277 0.08584812 13.22343599 0.09033566 15.92773438 0.08984375 C17.63933481 0.09967392 19.35092593 0.11133049 21.0625 0.125 C21.87396988 0.12722565 22.68543976 0.12945129 23.52149963 0.13174438 C29.2326913 0.22878505 29.2326913 0.22878505 31.46484375 2.4609375 C31.70776367 5.2265625 31.70776367 5.2265625 31.6953125 8.7109375 C31.69337891 9.95875 31.69144531 11.2065625 31.68945312 12.4921875 C31.67108398 14.45671875 31.67108398 14.45671875 31.65234375 16.4609375 C31.65169922 17.770625 31.65105469 19.0803125 31.65039062 20.4296875 C31.60506142 30.18050215 31.60506142 30.18050215 30.46484375 32.4609375 C20.56484375 32.4609375 10.66484375 32.4609375 0.46484375 32.4609375 C0.79484375 36.4209375 1.12484375 40.3809375 1.46484375 44.4609375 C-3.48515625 44.4609375 -8.43515625 44.4609375 -13.53515625 44.4609375 C-12.54515625 43.9659375 -12.54515625 43.9659375 -11.53515625 43.4609375 C-11.5508667 42.30045898 -11.56657715 41.13998047 -11.58276367 39.94433594 C-11.63709549 35.63565013 -11.67151816 31.32699457 -11.69995117 27.01806641 C-11.71503039 25.15375678 -11.73549686 23.28948258 -11.76147461 21.42529297 C-11.79789621 18.74437717 -11.81489115 16.0639307 -11.828125 13.3828125 C-11.84360886 12.55038025 -11.85909271 11.717948 -11.87504578 10.86029053 C-11.87600153 7.56816226 -11.75150821 5.01645896 -10.55029297 1.93212891 C-7.31271127 -0.43153324 -3.85062345 -0.06836461 0 0 Z " fill="#FD4161" transform="translate(255.53515625,101.5390625)"/>
<path d="M0 0 C10.56 0 21.12 0 32 0 C32 13.86 32 27.72 32 42 C21.44 42 10.88 42 0 42 C0 28.14 0 14.28 0 0 Z " fill="#C77558" transform="translate(234,266)"/>
<path d="M0 0 C10.56 0 21.12 0 32 0 C32 13.86 32 27.72 32 42 C21.44 42 10.88 42 0 42 C0 28.14 0 14.28 0 0 Z " fill="#CB7953" transform="translate(192,266)"/>
<path d="M0 0 C10.56 0 21.12 0 32 0 C32 13.86 32 27.72 32 42 C21.44 42 10.88 42 0 42 C0 28.14 0 14.28 0 0 Z " fill="#C4785D" transform="translate(276,266)"/>
<path d="M0 0 C9.57 0 19.14 0 29 0 C29 9.57 29 19.14 29 29 C24.400625 29.020625 19.80125 29.04125 15.0625 29.0625 C13.60980713 29.071604 12.15711426 29.08070801 10.66040039 29.09008789 C9.52594482 29.09258545 8.39148926 29.09508301 7.22265625 29.09765625 C5.47094116 29.10551147 5.47094116 29.10551147 3.68383789 29.11352539 C1 29 1 29 0 28 C-0.08767112 25.92737924 -0.10695873 23.85179706 -0.09765625 21.77734375 C-0.09515869 20.64288818 -0.09266113 19.50843262 -0.09008789 18.33959961 C-0.08098389 16.88690674 -0.07187988 15.43421387 -0.0625 13.9375 C-0.041875 9.338125 -0.02125 4.73875 0 0 Z " fill="#A6D6DD" transform="translate(259,341)"/>
<path d="M0 0 C4.41391517 1.71529032 7.26259125 3.96301894 10 7.8125 C11.62926739 13.00578979 11.69133638 17.04121359 9.875 22.1875 C7.05299253 26.42051121 3.92271008 29.35909664 -1 31 C-3.0859375 31.16796875 -3.0859375 31.16796875 -5.375 31.1875 C-6.50035156 31.20876953 -6.50035156 31.20876953 -7.6484375 31.23046875 C-11.4645475 30.85646461 -14.10165519 29.92172906 -16.80078125 27.15234375 C-20.00416557 22.45901324 -21.88918307 18.83903682 -21.45703125 13.0703125 C-20.22911219 7.5079441 -16.47526192 4.17979137 -12 1 C-8.24797924 -0.87601038 -4.08547163 -0.52484891 0 0 Z " fill="#F9F2F0" transform="translate(255,208)"/>
<path d="M0 0 C8.91 0 17.82 0 27 0 C27 8.91 27 17.82 27 27 C18.09 27 9.18 27 0 27 C0 18.09 0 9.18 0 0 Z " fill="#CBF0F7" transform="translate(213,342)"/>
<path d="M0 0 C14.52 0 29.04 0 44 0 C44 4.95 44 9.9 44 15 C29.48 15 14.96 15 0 15 C0 10.05 0 5.1 0 0 Z " fill="#F1A031" transform="translate(329,298)"/>
<path d="M0 0 C14.52 0 29.04 0 44 0 C44 4.95 44 9.9 44 15 C29.48 15 14.96 15 0 15 C0 10.05 0 5.1 0 0 Z " fill="#F1A031" transform="translate(127,298)"/>
<path d="M0 0 C5.94 0 11.88 0 18 0 C18 9.57 18 19.14 18 29 C12.06 29 6.12 29 0 29 C0 19.43 0 9.86 0 0 Z " fill="#C7DBDD" transform="translate(199,272)"/>
<path d="M0 0 C5.94 0 11.88 0 18 0 C18 9.24 18 18.48 18 28 C12.06 28 6.12 28 0 28 C0 18.76 0 9.52 0 0 Z " fill="#C9D7D8" transform="translate(283,273)"/>
<path d="M0 0 C5.94 0 11.88 0 18 0 C18 9.24 18 18.48 18 28 C12.06 28 6.12 28 0 28 C0 18.76 0 9.52 0 0 Z " fill="#CAE3E6" transform="translate(241,273)"/>
<path d="M0 0 C0.83446152 0.00091644 1.66892303 0.00183289 2.52867126 0.0027771 C4.29138889 0.00881603 6.05409612 0.02457091 7.81665039 0.04931641 C10.5207277 0.08584812 13.22343599 0.09033566 15.92773438 0.08984375 C17.63933481 0.09967392 19.35092593 0.11133049 21.0625 0.125 C21.87396988 0.12722565 22.68543976 0.12945129 23.52149963 0.13174438 C29.2326913 0.22878505 29.2326913 0.22878505 31.46484375 2.4609375 C31.70776367 5.2265625 31.70776367 5.2265625 31.6953125 8.7109375 C31.69337891 9.95875 31.69144531 11.2065625 31.68945312 12.4921875 C31.67108398 14.45671875 31.67108398 14.45671875 31.65234375 16.4609375 C31.65169922 17.770625 31.65105469 19.0803125 31.65039062 20.4296875 C31.60506142 30.18050215 31.60506142 30.18050215 30.46484375 32.4609375 C20.56484375 32.4609375 10.66484375 32.4609375 0.46484375 32.4609375 C0.79484375 36.4209375 1.12484375 40.3809375 1.46484375 44.4609375 C-3.48515625 44.4609375 -8.43515625 44.4609375 -13.53515625 44.4609375 C-12.54515625 43.9659375 -12.54515625 43.9659375 -11.53515625 43.4609375 C-11.5508667 42.30045898 -11.56657715 41.13998047 -11.58276367 39.94433594 C-11.63709549 35.63565013 -11.67151816 31.32699457 -11.69995117 27.01806641 C-11.71503039 25.15375678 -11.73549686 23.28948258 -11.76147461 21.42529297 C-11.79789621 18.74437717 -11.81489115 16.0639307 -11.828125 13.3828125 C-11.84360886 12.55038025 -11.85909271 11.717948 -11.87504578 10.86029053 C-11.87600153 7.56816226 -11.75150821 5.01645896 -10.55029297 1.93212891 C-7.31271127 -0.43153324 -3.85062345 -0.06836461 0 0 Z M12.984375 1.9765625 C8.63958832 2.81183932 4.24391659 2.36448112 -0.16015625 2.203125 C-3.83829926 2.48409426 -5.62806122 3.2403889 -8.53515625 5.4609375 C-9.83420094 8.4301825 -9.58798807 9.30244204 -8.53515625 12.4609375 C-8.46486504 15.03359568 -8.44144793 17.57735181 -8.47265625 20.1484375 C-8.47716797 20.85033203 -8.48167969 21.55222656 -8.48632812 22.27539062 C-8.49808698 24.00394288 -8.51602171 25.73245115 -8.53515625 27.4609375 C-6.88515625 27.7909375 -5.23515625 28.1209375 -3.53515625 28.4609375 C-3.53515625 29.1209375 -3.53515625 29.7809375 -3.53515625 30.4609375 C-4.19515625 30.7909375 -4.85515625 31.1209375 -5.53515625 31.4609375 C-0.89047986 31.58453693 3.75324001 31.67527149 8.39916992 31.7355957 C9.97941764 31.7607408 11.55954904 31.79486224 13.1394043 31.83813477 C15.41093607 31.89879458 17.68093119 31.92714428 19.953125 31.94921875 C20.65947586 31.97502518 21.36582672 32.0008316 22.09358215 32.02742004 C24.33559692 32.08429583 24.33559692 32.08429583 27.46484375 31.4609375 C30.50275498 28.07939867 30.82903001 25.16188073 30.7578125 20.72265625 C30.74814453 19.65595703 30.73847656 18.58925781 30.72851562 17.49023438 C30.70337891 16.38744141 30.67824219 15.28464844 30.65234375 14.1484375 C30.63880859 13.02630859 30.62527344 11.90417969 30.61132812 10.74804688 C30.57605755 7.98518521 30.5267661 5.22330921 30.46484375 2.4609375 C27.65580754 1.0564194 25.28369867 1.32884496 22.15234375 1.3359375 C21.02183594 1.33335938 19.89132812 1.33078125 18.7265625 1.328125 C15.57562722 1.3673857 15.57562722 1.3673857 12.984375 1.9765625 Z " fill="#E9637A" transform="translate(255.53515625,101.5390625)"/>
<path d="M0 0 C10.56 0 21.12 0 32 0 C32 13.86 32 27.72 32 42 C21.44 42 10.88 42 0 42 C0 28.14 0 14.28 0 0 Z M8 5 C8 5.66 8 6.32 8 7 C7.34 7 6.68 7 6 7 C2.35508089 14.28983823 3.80328846 26.17534762 5 34 C4.34 34 3.68 34 3 34 C2.67 29.05 2.34 24.1 2 19 C1.67 19 1.34 19 1 19 C1 26.26 1 33.52 1 41 C4.95119422 41.04588484 8.90171066 41.08571688 12.85302734 41.10986328 C14.8591136 41.12488107 16.86511324 41.15028981 18.87109375 41.17578125 C20.75634766 41.18544922 20.75634766 41.18544922 22.6796875 41.1953125 C23.84226074 41.20578613 25.00483398 41.21625977 26.20263672 41.22705078 C29.13910279 41.29261997 29.13910279 41.29261997 31 39 C31.17495606 36.49079154 31.23169569 34.09375059 31.1953125 31.5859375 C31.19106766 30.49147812 31.19106766 30.49147812 31.18673706 29.37490845 C31.17553002 27.04143972 31.1504251 24.70835297 31.125 22.375 C31.11497085 20.79427637 31.10584489 19.21354673 31.09765625 17.6328125 C31.07558905 13.75506086 31.04105615 9.87759522 31 6 C29.02 6.99 29.02 6.99 27 8 C26.67 7.01 26.34 6.02 26 5 C20.06 5 14.12 5 8 5 Z " fill="#C97456" transform="translate(276,266)"/>
<path d="M0 0 C0.66 0 1.32 0 2 0 C2 8.58 2 17.16 2 26 C-6.91 26 -15.82 26 -25 26 C-24.34 25.67 -23.68 25.34 -23 25 C-23 24.34 -23 23.68 -23 23 C-21.37823304 21.28961189 -19.70120959 19.6313925 -18 18 C-17.05500982 17.03866616 -16.11362027 16.07378025 -15.17578125 15.10546875 C-14.2213791 14.13278804 -13.26695188 13.16013192 -12.3125 12.1875 C-11.58450195 11.43436523 -11.58450195 11.43436523 -10.84179688 10.66601562 C-9.59875394 9.40582727 -8.30300108 8.19808956 -7 7 C-6.34 7 -5.68 7 -5 7 C-4.34 5.68 -3.68 4.36 -3 3 C-2.34 3 -1.68 3 -1 3 C-0.67 2.01 -0.34 1.02 0 0 Z " fill="#CBF1F7" transform="translate(285,343)"/>
<path d="M0 0 C10.56 0 21.12 0 32 0 C32 13.86 32 27.72 32 42 C21.44 42 10.88 42 0 42 C0 28.14 0 14.28 0 0 Z M2 3 C2.32041397 5.60280568 2.32041397 5.60280568 3 8 C3.66 8 4.32 8 5 8 C4.99476318 8.76666992 4.98952637 9.53333984 4.98413086 10.32324219 C4.96333636 13.79881978 4.95033191 17.27438427 4.9375 20.75 C4.92912109 21.9565625 4.92074219 23.163125 4.91210938 24.40625 C4.90727539 26.14648438 4.90727539 26.14648438 4.90234375 27.921875 C4.89448853 29.52434082 4.89448853 29.52434082 4.88647461 31.15917969 C4.98496992 33.62389235 5.28434536 35.65245467 6 38 C4.515 38.495 4.515 38.495 3 39 C3.33 39.66 3.66 40.32 4 41 C12.25 41 20.5 41 29 41 C30.4472136 34.59628479 30.4472136 34.59628479 29 31 C28.34 31 27.68 31 27 31 C27 29.02 27 27.04 27 25 C27.66 25 28.32 25 29 25 C29.09087891 23.86111328 29.09087891 23.86111328 29.18359375 22.69921875 C29.26738281 21.70535156 29.35117187 20.71148437 29.4375 19.6875 C29.51871094 18.70136719 29.59992188 17.71523438 29.68359375 16.69921875 C30 14 30 14 31 11 C30.94297026 8.73980671 30.94297026 8.73980671 30.625 6.375 C30.53476562 5.57835937 30.44453125 4.78171875 30.3515625 3.9609375 C30.19318916 2.00278017 30.19318916 2.00278017 29 1 C24.86037717 0.74698761 20.70894004 0.81477451 16.5625 0.8125 C14.80583008 0.79413086 14.80583008 0.79413086 13.01367188 0.77539062 C11.89669922 0.77345703 10.77972656 0.77152344 9.62890625 0.76953125 C8.59838135 0.76542236 7.56785645 0.76131348 6.50610352 0.75708008 C3.82752596 0.74874932 3.82752596 0.74874932 2 3 Z " fill="#C8774F" transform="translate(234,266)"/>
<path d="M0 0 C13.2 0 26.4 0 40 0 C40 2.31 40 4.62 40 7 C37 9.4375 37 9.4375 34 11 C33.505 9.515 33.505 9.515 33 8 C32.13197754 8.00523682 31.26395508 8.01047363 30.36962891 8.01586914 C27.15299727 8.03289862 23.93638859 8.04544408 20.71972656 8.05493164 C19.32681523 8.0599643 17.9339092 8.06679098 16.54101562 8.07543945 C14.54038754 8.08755152 12.53972112 8.09270412 10.5390625 8.09765625 C9.33459473 8.10289307 8.13012695 8.10812988 6.88916016 8.11352539 C4 8 4 8 2 7 C2.185625 8.299375 2.37125 9.59875 2.5625 10.9375 C2.87890625 13.15234375 2.87890625 13.15234375 3 15 C2.67 15.33 2.34 15.66 2 16 C1.63239269 18.32817964 1.29758419 20.6618385 1 23 C0.67 23 0.34 23 0 23 C0 15.41 0 7.82 0 0 Z " fill="#CB7457" transform="translate(207,331)"/>
<path d="M0 0 C8.58 0 17.16 0 26 0 C26 0.66 26 1.32 26 2 C25.4121875 2.25007813 24.824375 2.50015625 24.21875 2.7578125 C21.70658898 4.16426885 20.33354648 5.66640992 18.5 7.875 C17.89800781 8.58398438 17.29601562 9.29296875 16.67578125 10.0234375 C16.12277344 10.67570312 15.56976563 11.32796875 15 12 C12.6875 14.5 12.6875 14.5 11 16 C10.34 16 9.68 16 9 16 C8.6596875 16.804375 8.6596875 16.804375 8.3125 17.625 C6.54429911 20.82460161 4.46329797 23.29037223 2 26 C1.34 26 0.68 26 0 26 C0 17.42 0 8.84 0 0 Z " fill="#A0E2ED" transform="translate(213,342)"/>
<path d="M0 0 C3.125 1.5 3.125 1.5 5 3 C3.68 4.32 2.36 5.64 1 7 C1 6.34 1 5.68 1 5 C0.34 4.67 -0.32 4.34 -1 4 C-1 6.64 -1 9.28 -1 12 C-0.01 12 0.98 12 2 12 C2.33 13.98 2.66 15.96 3 18 C-0.96 18 -4.92 18 -9 18 C-9 14.37 -9 10.74 -9 7 C-13.22439597 9.11219798 -14.11574484 9.85463866 -16 14 C-16.25136033 17.20916171 -16.25136033 17.20916171 -16 20 C-15.34 20.33 -14.68 20.66 -14 21 C-14 22.32 -14 23.64 -14 25 C-14.99 25.33 -15.98 25.66 -17 26 C-20.50045385 21.73382187 -21.65721619 18.72564251 -21.38671875 13.17578125 C-20.38510738 7.54045264 -16.46747817 4.1742608 -12 1 C-8.32349261 -0.8382537 -4.02203801 -0.37884188 0 0 Z " fill="#F8EBE3" transform="translate(255,208)"/>
<path d="M0 0 C1.98 0 3.96 0 6 0 C6.33 0.66 6.66 1.32 7 2 C9.87182587 2.47618812 12.67120147 2.84167597 15.5625 3.125 C16.77196289 3.25455078 16.77196289 3.25455078 18.00585938 3.38671875 C20.00304064 3.59943628 22.00142737 3.80077855 24 4 C24 4.33 24 4.66 24 5 C18.06 5 12.12 5 6 5 C6 14.57 6 24.14 6 34 C11.94 34 17.88 34 24 34 C24 24.76 24 15.52 24 6 C24.33 6 24.66 6 25 6 C25 14.91 25 23.82 25 33 C25.66 33.33 26.32 33.66 27 34 C24.64769648 36.35230352 24.19296706 36.25562003 21.0078125 36.265625 C20.22019531 36.26820313 19.43257812 36.27078125 18.62109375 36.2734375 C17.79738281 36.26570313 16.97367188 36.25796875 16.125 36.25 C14.90103516 36.26160156 14.90103516 36.26160156 13.65234375 36.2734375 C12.86214844 36.27085937 12.07195312 36.26828125 11.2578125 36.265625 C10.5373877 36.26336914 9.81696289 36.26111328 9.07470703 36.25878906 C6.7041315 35.96309477 5.06590407 35.17170679 3 34 C2.67 34.99 2.34 35.98 2 37 C1.34 36.67 0.68 36.34 0 36 C0 24.12 0 12.24 0 0 Z " fill="#C4775E" transform="translate(193,267)"/>
<path d="M0 0 C10.23 0.33 20.46 0.66 31 1 C32.40301133 3.80602265 32.1297542 6.15018367 32.1328125 9.28515625 C32.13410156 10.53748047 32.13539063 11.78980469 32.13671875 13.08007812 C32.13285156 14.39427734 32.12898438 15.70847656 32.125 17.0625 C32.13080078 19.03959961 32.13080078 19.03959961 32.13671875 21.05664062 C32.13542969 22.30767578 32.13414062 23.55871094 32.1328125 24.84765625 C32.13168457 26.00273682 32.13055664 27.15781738 32.12939453 28.34790039 C32 31 32 31 31 32 C28.78144736 32.08783542 26.56011504 32.10694609 24.33984375 32.09765625 C23.34314415 32.09553383 23.34314415 32.09553383 22.3263092 32.09336853 C20.19666101 32.08775518 18.06711661 32.07520054 15.9375 32.0625 C14.49674631 32.05748671 13.05599097 32.05292351 11.61523438 32.04882812 C8.07678898 32.03778145 4.53840461 32.02050792 1 32 C1 32.99 1 33.98 1 35 C0.01 35 -0.98 35 -2 35 C-2.02716089 31.97910522 -2.04691657 28.95845871 -2.0625 25.9375 C-2.07087891 25.08994141 -2.07925781 24.24238281 -2.08789062 23.36914062 C-2.10680891 18.46930512 -1.91535264 13.82000376 -1 9 C-0.67 8.67 -0.34 8.34 0 8 C0 5.36 0 2.72 0 0 Z M4 4 C4 12.91 4 21.82 4 31 C12.91 31 21.82 31 31 31 C31 22.09 31 13.18 31 4 C22.09 4 13.18 4 4 4 Z " fill="#BE8C79" transform="translate(209,338)"/>
<path d="M0 0 C5.28 0 10.56 0 16 0 C15.67 1.65 15.34 3.3 15 5 C14.34 5 13.68 5 13 5 C12.7525 5.86625 12.505 6.7325 12.25 7.625 C10.74826095 11.67969543 9.0215338 15.9892331 5 18 C4.690625 18.804375 4.38125 19.60875 4.0625 20.4375 C3 23 3 23 0 25 C0 16.75 0 8.5 0 0 Z " fill="#A3E1ED" transform="translate(200,273)"/>
<path d="M0 0 C0.99 0.33 1.98 0.66 3 1 C3.66 0.79375 4.32 0.5875 5 0.375 C5.66 0.25125 6.32 0.1275 7 0 C9.5392118 1.85557785 10.96546672 4.05555912 12 7 C12.45304906 12.61780838 12.21244804 16.18132794 9 21 C5.70088508 24.33517083 2.60090384 26.88769845 -2.26171875 27.09765625 C-3.06222656 27.08605469 -3.86273438 27.07445312 -4.6875 27.0625 C-5.89986328 27.04896484 -5.89986328 27.04896484 -7.13671875 27.03515625 C-7.75160156 27.02355469 -8.36648437 27.01195312 -9 27 C-9 26.67 -9 26.34 -9 26 C-7.35 26 -5.7 26 -4 26 C-4 25.34 -4 24.68 -4 24 C-2.02 24 -0.04 24 2 24 C2.33 22.35 2.66 20.7 3 19 C3.99 19 4.98 19 6 19 C6 18.34 6 17.68 6 17 C0.06 16.01 0.06 16.01 -6 15 C-6 14.67 -6 14.34 -6 14 C-2.7 14 0.6 14 4 14 C3.67 12.02 3.34 10.04 3 8 C2.01 8 1.02 8 0 8 C0 5.36 0 2.72 0 0 Z " fill="#F9EFEA" transform="translate(254,212)"/>
<path d="M0 0 C5.28 0 10.56 0 16 0 C15.34 1.65 14.68 3.3 14 5 C13.34 5 12.68 5 12 5 C11.731875 5.86625 11.46375 6.7325 11.1875 7.625 C10.02888013 10.91791964 8.61790161 13.91127875 7 17 C6.34 17 5.68 17 5 17 C4.9175 17.7425 4.835 18.485 4.75 19.25 C4 22 4 22 0 26 C0 17.42 0 8.84 0 0 Z " fill="#A3E1EB" transform="translate(242,273)"/>
<path d="M0 0 C2.4377963 -0.05397335 4.87439685 -0.09365616 7.3125 -0.125 C8.00279297 -0.14175781 8.69308594 -0.15851563 9.40429688 -0.17578125 C13.17135396 -0.21217794 14.78431704 -0.14378864 18 2 C18.38749964 5.03541385 18.62242575 7.0717832 16.87890625 9.671875 C14.11695335 11.62419098 11.90567578 11.36183177 8.5625 11.3125 C7.42941406 11.30863281 6.29632813 11.30476563 5.12890625 11.30078125 C2.12861429 11.01236367 0.5515699 10.49729487 -2 9 C-2.99 8.67 -3.98 8.34 -5 8 C-4.0409375 7.13375 -4.0409375 7.13375 -3.0625 6.25 C-0.96071331 3.95714179 -0.58614071 2.93687346 0 0 Z " fill="#9A5744" transform="translate(375,387)"/>
<path d="M0 0 C0.80566406 0.00322266 1.61132812 0.00644531 2.44140625 0.00976562 C3.70404297 0.02233398 3.70404297 0.02233398 4.9921875 0.03515625 C5.84167969 0.03966797 6.69117188 0.04417969 7.56640625 0.04882812 C9.66669659 0.06062751 11.7669508 0.07856319 13.8671875 0.09765625 C13.5371875 1.08765625 13.2071875 2.07765625 12.8671875 3.09765625 C10.8871875 3.42765625 8.9071875 3.75765625 6.8671875 4.09765625 C12.3121875 4.59265625 12.3121875 4.59265625 17.8671875 5.09765625 C17.8671875 14.99765625 17.8671875 24.89765625 17.8671875 35.09765625 C14.7734375 35.13890625 11.6796875 35.18015625 8.4921875 35.22265625 C7.51846191 35.24086426 6.54473633 35.25907227 5.54150391 35.27783203 C4.77499512 35.28282715 4.00848633 35.28782227 3.21875 35.29296875 C2.04046631 35.3086792 2.04046631 35.3086792 0.83837891 35.32470703 C-1.1328125 35.09765625 -1.1328125 35.09765625 -3.1328125 33.09765625 C-3.35986328 30.48388672 -3.35986328 30.48388672 -3.328125 27.21484375 C-3.32167969 26.04824219 -3.31523437 24.88164062 -3.30859375 23.6796875 C-3.29183594 22.45636719 -3.27507812 21.23304688 -3.2578125 19.97265625 C-3.24878906 18.74160156 -3.23976562 17.51054687 -3.23046875 16.2421875 C-3.20683798 13.1938181 -3.17389304 10.14583243 -3.1328125 7.09765625 C-3.7928125 7.09765625 -4.4528125 7.09765625 -5.1328125 7.09765625 C-5.4628125 5.11765625 -5.7928125 3.13765625 -6.1328125 1.09765625 C-3.8362755 -0.05061225 -2.54968083 -0.0179555 0 0 Z M-1.1328125 6.09765625 C-1.1328125 15.33765625 -1.1328125 24.57765625 -1.1328125 34.09765625 C4.8071875 34.09765625 10.7471875 34.09765625 16.8671875 34.09765625 C16.8671875 24.85765625 16.8671875 15.61765625 16.8671875 6.09765625 C10.9271875 6.09765625 4.9871875 6.09765625 -1.1328125 6.09765625 Z " fill="#BB7C67" transform="translate(242.1328125,266.90234375)"/>
<path d="M0 0 C0.33 0 0.66 0 1 0 C1.33 12.87 1.66 25.74 2 39 C4.62723396 40.31361698 6.72610561 40.21253909 9.6640625 40.31640625 C11.34628906 40.37924805 11.34628906 40.37924805 13.0625 40.44335938 C14.8259375 40.50233398 14.8259375 40.50233398 16.625 40.5625 C17.80835938 40.60568359 18.99171875 40.64886719 20.2109375 40.69335938 C23.14050328 40.79967426 26.07015588 40.90170642 29 41 C29 37.7 29 34.4 29 31 C28.34 31 27.68 31 27 31 C27 29.02 27 27.04 27 25 C27.66 25 28.32 25 29 25 C28.98839844 24.22914063 28.97679687 23.45828125 28.96484375 22.6640625 C28.95582031 21.66117187 28.94679688 20.65828125 28.9375 19.625 C28.92589844 18.62726563 28.91429687 17.62953125 28.90234375 16.6015625 C29 14 29 14 30 12 C30.22858114 9.9625237 30.41024278 7.91959697 30.5625 5.875 C30.64628906 4.77929688 30.73007812 3.68359375 30.81640625 2.5546875 C30.90728516 1.29011719 30.90728516 1.29011719 31 0 C31.33 0 31.66 0 32 0 C32 13.86 32 27.72 32 42 C21.44 42 10.88 42 0 42 C0 28.14 0 14.28 0 0 Z " fill="#D08550" transform="translate(234,266)"/>
<path d="M0 0 C3.96 0 7.92 0 12 0 C12.33 0.66 12.66 1.32 13 2 C12.60167969 2.556875 12.20335937 3.11375 11.79296875 3.6875 C8.33732444 8.66497307 5.8847473 13.24104992 4 19 C3.34 19 2.68 19 2 19 C1.67 19.99 1.34 20.98 1 22 C0.67 22 0.34 22 0 22 C0 14.74 0 7.48 0 0 Z " fill="#9EE3F1" transform="translate(285,275)"/>
<path d="M0 0 C1.85772162 0.08984301 3.71247985 0.24611861 5.5625 0.4375 C7.08037109 0.59025391 7.08037109 0.59025391 8.62890625 0.74609375 C9.80259766 0.87177734 9.80259766 0.87177734 11 1 C11.625 2.875 11.625 2.875 12 5 C10 7 10 7 7 9 C23.83 9.33 40.66 9.66 58 10 C58 10.33 58 10.66 58 11 C50.6199985 11.06949629 43.2400675 11.12280914 35.85980511 11.15543652 C32.43286777 11.17109574 29.00615423 11.19233804 25.5793457 11.22631836 C21.64016392 11.26513514 17.70107291 11.27970716 13.76171875 11.29296875 C11.9147364 11.31619453 11.9147364 11.31619453 10.03044128 11.33988953 C8.88948502 11.34011612 7.74852875 11.34034271 6.57299805 11.34057617 C5.567061 11.34723801 4.56112396 11.35389984 3.52470398 11.36076355 C1 11 1 11 -0.86393738 9.70527649 C-2 8 -2 8 -1.75 4.375 C-1 1 -1 1 0 0 Z " fill="#B07B6A" transform="translate(109,387)"/>
<path d="M0 0 C10.56 0 21.12 0 32 0 C32 13.86 32 27.72 32 42 C21.44 42 10.88 42 0 42 C0 28.14 0 14.28 0 0 Z M1 1 C1 14.2 1 27.4 1 41 C5.57875 41.04125 10.1575 41.0825 14.875 41.125 C16.31858887 41.14320801 17.76217773 41.16141602 19.24951172 41.18017578 C20.94744873 41.18766846 20.94744873 41.18766846 22.6796875 41.1953125 C23.84226074 41.20578613 25.00483398 41.21625977 26.20263672 41.22705078 C29.13910279 41.29261997 29.13910279 41.29261997 31 39 C31.19970635 36.38215125 31.27983823 33.87241093 31.265625 31.25390625 C31.26753845 30.48698959 31.2694519 29.72007294 31.27142334 28.92991638 C31.27278524 27.3067085 31.26908845 25.68348973 31.26074219 24.06030273 C31.25005703 21.5757597 31.26062942 19.09194213 31.2734375 16.60742188 C31.27211562 15.0312484 31.26955263 13.45507538 31.265625 11.87890625 C31.26967346 11.13508194 31.27372192 10.39125763 31.27789307 9.62489319 C31.24382132 5.87392575 31.13391803 4.20087704 29 1 C26.08935621 0.58210911 26.08935621 0.58210911 22.6796875 0.70703125 C20.98175049 0.71827026 20.98175049 0.71827026 19.24951172 0.72973633 C17.08412842 0.77070435 17.08412842 0.77070435 14.875 0.8125 C8.006875 0.9053125 8.006875 0.9053125 1 1 Z " fill="#D0864C" transform="translate(276,266)"/>
<path d="M0 0 C0.33 0 0.66 0 1 0 C1.12117188 0.99902344 1.24234375 1.99804688 1.3671875 3.02734375 C1.61855469 4.96287109 1.61855469 4.96287109 1.875 6.9375 C2.11863281 8.86916016 2.11863281 8.86916016 2.3671875 10.83984375 C2.57601562 11.88269531 2.78484375 12.92554688 3 14 C3.66 14.33 4.32 14.66 5 15 C4.67 15.99 4.34 16.98 4 18 C3.85932764 20.39614332 3.77426001 22.79568542 3.71875 25.1953125 C3.70034058 25.90219208 3.68193115 26.60907166 3.66296387 27.33737183 C3.60429818 29.59983093 3.55153291 31.86236794 3.5 34.125 C3.08680813 52.01196025 3.08680813 52.01196025 2 60 C1.67 60 1.34 60 1 60 C0.67 46.47 0.34 32.94 0 19 C-10.56 18.67 -21.12 18.34 -32 18 C-32 17.67 -32 17.34 -32 17 C-21.44 17 -10.88 17 0 17 C0 11.39 0 5.78 0 0 Z " fill="#F6CD8D" transform="translate(170,237)"/>
<path d="M0 0 C0.99 1.485 0.99 1.485 2 3 C4.19454681 3.57993699 4.19454681 3.57993699 6.625 3.6875 C8.06875 3.790625 9.5125 3.89375 11 4 C11.33 7.96 11.66 11.92 12 16 C8.04 15.67 4.08 15.34 0 15 C0 10.05 0 5.1 0 0 Z " fill="#CE725C" transform="translate(245,130)"/>
<path d="M0 0 C1.34362885 0.00031689 2.68728332 0.01162897 4.03076172 0.03173828 C4.73820526 0.03456818 5.4456488 0.03739807 6.17453003 0.04031372 C8.43667432 0.05151941 10.69842437 0.07662399 12.96044922 0.10205078 C14.49299559 0.11208011 16.02554816 0.12120604 17.55810547 0.12939453 C21.31737223 0.15145992 25.07634386 0.18599183 28.83544922 0.22705078 C28.83544922 0.55705078 28.83544922 0.88705078 28.83544922 1.22705078 C18.60544922 1.22705078 8.37544922 1.22705078 -2.16455078 1.22705078 C-2.16455078 15.41705078 -2.16455078 29.60705078 -2.16455078 44.22705078 C8.39544922 44.22705078 18.95544922 44.22705078 29.83544922 44.22705078 C29.83544922 44.55705078 29.83544922 44.88705078 29.83544922 45.22705078 C25.47573608 45.39480521 21.11583504 45.55534975 16.75561523 45.70922852 C15.27246973 45.76258607 13.78939361 45.81791051 12.30639648 45.87524414 C10.17430585 45.95732999 8.04206543 46.03233079 5.90966797 46.10595703 C4.62664795 46.15308838 3.34362793 46.20021973 2.02172852 46.2487793 C-1.16455078 46.22705078 -1.16455078 46.22705078 -4.16455078 45.22705078 C-4.54673845 43.57090421 -4.8785018 41.90248054 -5.16455078 40.22705078 C-4.66955078 39.73205078 -4.66955078 39.73205078 -4.16455078 39.22705078 C-4.06421485 37.00621909 -4.0337358 34.78217823 -4.03173828 32.55908203 C-4.03078156 31.88664963 -4.02982483 31.21421722 -4.02883911 30.52140808 C-4.02815702 29.09312853 -4.03001329 27.6648459 -4.03417969 26.23657227 C-4.0394861 24.06600815 -4.03425745 21.89565493 -4.02783203 19.72509766 C-4.02849362 18.33642533 -4.02977646 16.94775313 -4.03173828 15.55908203 C-4.03286621 14.29813721 -4.03399414 13.03719238 -4.03515625 11.73803711 C-4.07607848 8.23722495 -4.07607848 8.23722495 -4.79785156 4.89379883 C-4.9188623 4.01377197 -5.03987305 3.13374512 -5.16455078 2.22705078 C-3.16455078 0.22705078 -3.16455078 0.22705078 0 0 Z " fill="#FDC064" transform="translate(236.16455078125,263.77294921875)"/>
<path d="M0 0 C0.33 0 0.66 0 1 0 C1.0246985 3.95099928 1.04285923 7.90196874 1.05493164 11.85302734 C1.06244036 13.85906551 1.0751447 15.86508202 1.08789062 17.87109375 C1.09111328 19.12792969 1.09433594 20.38476562 1.09765625 21.6796875 C1.10289307 22.84226074 1.10812988 24.00483398 1.11352539 25.20263672 C1 28 1 28 0 30 C-5.53588533 30.02464775 -11.071739 30.04283496 -16.60766602 30.05493164 C-18.4924373 30.05997244 -20.37720465 30.06680498 -22.26196289 30.07543945 C-24.96501636 30.08751617 -27.66801831 30.09323068 -30.37109375 30.09765625 C-31.21900986 30.10281754 -32.06692596 30.10797882 -32.9405365 30.11329651 C-34.96071068 30.11349195 -36.98077934 30.06206211 -39 30 C-40 29 -40 29 -40.11352539 27.14233398 C-40.10828857 26.35157471 -40.10305176 25.56081543 -40.09765625 24.74609375 C-40.09443359 23.89208984 -40.09121094 23.03808594 -40.08789062 22.15820312 C-40.07951172 21.26037109 -40.07113281 20.36253906 -40.0625 19.4375 C-40.05798828 18.53580078 -40.05347656 17.63410156 -40.04882812 16.70507812 C-40.03700225 14.46998686 -40.0205222 12.23502563 -40 10 C-39.34 9.67 -38.68 9.34 -38 9 C-38 14.28 -38 19.56 -38 25 C-36.68 25.33 -35.36 25.66 -34 26 C-34 26.66 -34 27.32 -34 28 C-23.77 28 -13.54 28 -3 28 C-1.066341 24.13268201 -0.71861969 22.51675038 -0.5859375 18.359375 C-0.54726563 17.28945312 -0.50859375 16.21953125 -0.46875 15.1171875 C-0.4378125 14.00601563 -0.406875 12.89484375 -0.375 11.75 C-0.33632813 10.62335938 -0.29765625 9.49671875 -0.2578125 8.3359375 C-0.16362664 5.55745452 -0.07800414 2.77897666 0 0 Z " fill="#E85169" transform="translate(286,104)"/>
<path d="M0 0 C5.89955634 1.29502456 9.43674792 4.27599156 13 9 C15.91092908 14.62711291 16.88906242 20.72914643 16 27 C14.6875 30.25 14.6875 30.25 13 33 C12.3503125 34.2684375 12.3503125 34.2684375 11.6875 35.5625 C9.47902795 38.75251518 7.11482396 40.68045024 4 43 C3.34 43 2.68 43 2 43 C2.66 41.68 3.32 40.36 4 39 C4.66 39 5.32 39 6 39 C6.33 38.01 6.66 37.02 7 36 C7.66 36 8.32 36 9 36 C9 33.69 9 31.38 9 29 C9.99 29.33 10.98 29.66 12 30 C13.00496852 26.98509443 13.10335303 24.95818308 13.0625 21.8125 C13.05347656 20.91144531 13.04445313 20.01039063 13.03515625 19.08203125 C13.02355469 18.39496094 13.01195312 17.70789063 13 17 C12.34 16.67 11.68 16.34 11 16 C10.67 16.99 10.34 17.98 10 19 C8.86438252 15.34078813 9.26921277 13.46157446 11 10 C10.34 9.67 9.68 9.34 9 9 C9 8.34 9 7.68 9 7 C8.34 7 7.68 7 7 7 C6.67 6.34 6.34 5.68 6 5 C4.02477154 3.95191959 2.02518491 2.9479589 0 2 C0 1.34 0 0.68 0 0 Z " fill="#CD7F4E" transform="translate(258,202)"/>
<path d="M0 0 C0.33 0 0.66 0 1 0 C1.33 13.2 1.66 26.4 2 40 C3.98 40 5.96 40 8 40 C8 26.8 8 13.6 8 0 C8.66 0 9.32 0 10 0 C10 13.86 10 27.72 10 42 C6.7 42 3.4 42 0 42 C0 28.14 0 14.28 0 0 Z " fill="#FCBE62" transform="translate(266,266)"/>
<path d="M0 0 C1.98 0 3.96 0 6 0 C6 2.31 6 4.62 6 7 C7.65 7.33 9.3 7.66 11 8 C11 9.32 11 10.64 11 12 C9.35425434 12.02688151 7.70838587 12.04634123 6.0625 12.0625 C5.14597656 12.07410156 4.22945312 12.08570313 3.28515625 12.09765625 C1 12 1 12 0 11 C-0.07226502 9.14712498 -0.0838122 7.29166122 -0.0625 5.4375 C-0.05347656 4.42558594 -0.04445312 3.41367188 -0.03515625 2.37109375 C-0.02355469 1.58863281 -0.01195312 0.80617187 0 0 Z " fill="#CB8976" transform="translate(247,214)"/>
<path d="M0 0 C0.66 0.33 1.32 0.66 2 1 C2.29130183 5.95213111 2.30895436 9.15734332 -1 13 C-4.53033392 14.82820864 -7.01080638 16 -11 16 C-11 15.34 -11 14.68 -11 14 C-11.66 13.67 -12.32 13.34 -13 13 C-12.154375 12.71125 -11.30875 12.4225 -10.4375 12.125 C-5.44776092 9.70753691 -2.87308831 4.53063925 0 0 Z " fill="#A0614F" transform="translate(343,223)"/>
<path d="M0 0 C0.33 0 0.66 0 1 0 C1 4.29 1 8.58 1 13 C-3.29 13 -7.58 13 -12 13 C-11.01 11.68 -10.02 10.36 -9 9 C-8.34 9 -7.68 9 -7 9 C-6.67 8.01 -6.34 7.02 -6 6 C-5.34 6 -4.68 6 -4 6 C-3.566875 5.071875 -3.566875 5.071875 -3.125 4.125 C-2 2 -2 2 0 0 Z " fill="#A9E0EA" transform="translate(239,356)"/>
<path d="M0 0 C0 3.96 0 7.92 0 12 C-4.29 12 -8.58 12 -13 12 C-2.88235294 0 -2.88235294 0 0 0 Z " fill="#A8E0EA" transform="translate(287,357)"/>
<path d="M0 0 C0 0.66 0 1.32 0 2 C-0.66 2 -1.32 2 -2 2 C-2.66 3.32 -3.32 4.64 -4 6 C-4.66 6 -5.32 6 -6 6 C-6 6.66 -6 7.32 -6 8 C-6.99 8.495 -6.99 8.495 -8 9 C-8.33 9.99 -8.66 10.98 -9 12 C-11.29167646 14.9791794 -13.33535945 15.5047783 -17 16 C-17 16.66 -17 17.32 -17 18 C-17.66 18 -18.32 18 -19 18 C-19.33 18.99 -19.66 19.98 -20 21 C-20.99 21.66 -21.98 22.32 -23 23 C-23.99 22.67 -24.98 22.34 -26 22 C-22.05360058 17.92205394 -17.87438846 14.13680468 -13.640625 10.359375 C-11.89176255 8.79678192 -10.15199397 7.22394599 -8.421875 5.640625 C-7.62265625 4.91359375 -6.8234375 4.1865625 -6 3.4375 C-4.9171875 2.44556641 -4.9171875 2.44556641 -3.8125 1.43359375 C-2 0 -2 0 0 0 Z " fill="#E2943D" transform="translate(199,213)"/>
<path d="M0 0 C0.33 0 0.66 0 1 0 C1 9.24 1 18.48 1 28 C6.94 28 12.88 28 19 28 C19 28.33 19 28.66 19 29 C12.07 29 5.14 29 -2 29 C-2.24752475 4.4950495 -2.24752475 4.4950495 0 0 Z " fill="#B9816D" transform="translate(282,273)"/>
<path d="M0 0 C0.33 0 0.66 0 1 0 C1 8.91 1 17.82 1 27 C1.66 27.33 2.32 27.66 3 28 C1 30 1 30 -0.87939453 30.22705078 C-1.62302246 30.21657715 -2.36665039 30.20610352 -3.1328125 30.1953125 C-3.93847656 30.18886719 -4.74414062 30.18242187 -5.57421875 30.17578125 C-6.41597656 30.15902344 -7.25773438 30.14226562 -8.125 30.125 C-9.39923828 30.11146484 -9.39923828 30.11146484 -10.69921875 30.09765625 C-12.79959884 30.07405647 -14.89983444 30.03818483 -17 30 C-17 29.34 -17 28.68 -17 28 C-11.39 28 -5.78 28 0 28 C0 18.76 0 9.52 0 0 Z " fill="#B9816D" transform="translate(217,273)"/>
<path d="M0 0 C1.32 0.66 2.64 1.32 4 2 C4.6326628 10.84322 4.26213414 18.54206174 -1 26 C-3.55078125 27.8671875 -3.55078125 27.8671875 -6 29 C-6.66 28.67 -7.32 28.34 -8 28 C-7.38125 27.773125 -6.7625 27.54625 -6.125 27.3125 C-3.31610811 25.57759619 -3.05463619 24.09359949 -2 21 C-1.195625 19.63875 -1.195625 19.63875 -0.375 18.25 C2.13480945 12.31772313 1.27421406 6.21179356 0 0 Z " fill="#FCC163" transform="translate(272,214)"/>
<path d="M0 0 C3.08992985 1.02997662 4.28005398 2.18485323 6.48828125 4.47265625 C11.51676082 9.55310977 16.65749241 13.69661063 23 17 C22.01 17.33 21.02 17.66 20 18 C20 20.64 20 23.28 20 26 C19.67 26 19.34 26 19 26 C18.505 21.05 18.505 21.05 18 16 C16.02 16 14.04 16 12 16 C11.773125 15.2575 11.54625 14.515 11.3125 13.75 C9.75626034 10.48930737 7.836696 9.16484695 5 7 C5 6.34 5 5.68 5 5 C4.01 4.67 3.02 4.34 2 4 C2 3.34 2 2.68 2 2 C1.34 2 0.68 2 0 2 C0 1.34 0 0.68 0 0 Z " fill="#EA9A3F" transform="translate(309,220)"/>
<path d="M0 0 C0.66 0.33 1.32 0.66 2 1 C-1.1138784 6.31954226 -5.01261586 10.35122113 -10 14 C-10.66 14 -11.32 14 -12 14 C-12.33 14.99 -12.66 15.98 -13 17 C-14.32 16.67 -15.64 16.34 -17 16 C-15.88121617 14.82737096 -14.75476949 13.66204862 -13.625 12.5 C-12.99851563 11.8503125 -12.37203125 11.200625 -11.7265625 10.53125 C-10 9 -10 9 -8 9 C-8 8.34 -8 7.68 -8 7 C-6.25 5.2734375 -6.25 5.2734375 -4 3.375 C-3.2575 2.74335938 -2.515 2.11171875 -1.75 1.4609375 C-0.88375 0.73777344 -0.88375 0.73777344 0 0 Z " fill="#E4973A" transform="translate(240,174)"/>
<path d="M0 0 C2.475 0.99 2.475 0.99 5 2 C5.36363636 7.45454545 5.36363636 7.45454545 3.875 9.6875 C1.16646601 11.58347379 -0.92358655 11.29278753 -4.1875 11.1875 C-5.27417969 11.16042969 -6.36085938 11.13335937 -7.48046875 11.10546875 C-8.72763672 11.05326172 -8.72763672 11.05326172 -10 11 C-10 10.67 -10 10.34 -10 10 C-9.071875 9.938125 -8.14375 9.87625 -7.1875 9.8125 C-3.86367686 9.31053721 -3.86367686 9.31053721 -2.1875 6.6875 C-1.19013979 4.43031636 -0.44784655 2.41837139 0 0 Z " fill="#995B48" transform="translate(388,387)"/>
<path d="M0 0 C0.99 0 1.98 0 3 0 C3.6875 1.625 3.6875 1.625 4 4 C2.5625 7.25 2.5625 7.25 1 10 C-1.97 10 -4.94 10 -8 10 C-7.67 9.01 -7.34 8.02 -7 7 C-6.01 7 -5.02 7 -4 7 C-3.71125 6.21625 -3.4225 5.4325 -3.125 4.625 C-2 2 -2 2 0 0 Z " fill="#CCF1F6" transform="translate(292,290)"/>
<path d="M0 0 C10.55808656 -0.55353075 10.55808656 -0.55353075 15 3 C13.68 4.32 12.36 5.64 11 7 C11 6.34 11 5.68 11 5 C10.34 4.67 9.68 4.34 9 4 C9 6.64 9 9.28 9 12 C9.99 12.33 10.98 12.66 12 13 C10.68 13 9.36 13 8 13 C8 10.69 8 8.38 8 6 C6.35 6 4.7 6 3 6 C3.66 4.68 4.32 3.36 5 2 C3.35 1.67 1.7 1.34 0 1 C0 0.67 0 0.34 0 0 Z " fill="#F8E6DE" transform="translate(245,208)"/>
<path d="M0 0 C5.28 0 10.56 0 16 0 C15.34 1.32 14.68 2.64 14 4 C13.67 3.67 13.34 3.34 13 3 C10.98405418 2.76572222 8.961526 2.58663876 6.9375 2.4375 C4.978125 2.293125 3.01875 2.14875 1 2 C1 9.92 1 17.84 1 26 C0.67 26 0.34 26 0 26 C0 17.42 0 8.84 0 0 Z " fill="#B4DBE0" transform="translate(284,273)"/>
<path d="M0 0 C-0.639375 0.78375 -1.27875 1.5675 -1.9375 2.375 C-4.55569593 5.70724936 -5.13876955 7.23036464 -5.125 11.375 C-5.12757813 12.14585937 -5.13015625 12.91671875 -5.1328125 13.7109375 C-5.00389788 15.9328189 -4.61383717 17.86618508 -4 20 C-4.99 19.67 -5.98 19.34 -7 19 C-7.33 12.4 -7.66 5.8 -8 -1 C-3 -2 -3 -2 0 0 Z " fill="#C67B65" transform="translate(240,212)"/>
<path d="M0 0 C1.485 0.99 1.485 0.99 3 2 C3 2.66 3 3.32 3 4 C5.475 4.99 5.475 4.99 8 6 C8 6.66 8 7.32 8 8 C9.32 8.66 10.64 9.32 12 10 C11.67 10.66 11.34 11.32 11 12 C8.69 11.67 6.38 11.34 4 11 C3.34 8.69 2.68 6.38 2 4 C1.34 4 0.68 4 0 4 C0 2.68 0 1.36 0 0 Z M2 11 C2.66 11 3.32 11 4 11 C3.67 11.66 3.34 12.32 3 13 C2.67 12.34 2.34 11.68 2 11 Z " fill="#AA7A6B" transform="translate(287,170)"/>
<path d="M0 0 C1.07765625 0.00902344 2.1553125 0.01804688 3.265625 0.02734375 C4.08546875 0.03894531 4.9053125 0.05054688 5.75 0.0625 C5.75 0.3925 5.75 0.7225 5.75 1.0625 C4.8321875 1.14886719 3.914375 1.23523438 2.96875 1.32421875 C-7.55866423 2.47694081 -7.55866423 2.47694081 -16.25 8.0625 C-17.90920565 10.3474632 -19.03874716 12.48858772 -20.25 15.0625 C-21.375 11.3125 -21.375 11.3125 -20.25 9.0625 C-19.59 9.0625 -18.93 9.0625 -18.25 9.0625 C-18.229375 8.485 -18.20875 7.9075 -18.1875 7.3125 C-16.72319441 3.79816659 -13.58608177 2.53369134 -10.25 1.0625 C-6.81759007 -0.07434915 -3.5989624 -0.03911916 0 0 Z " fill="#FBBD64" transform="translate(249.25,198.9375)"/>
<path d="M0 0 C0.33 0 0.66 0 1 0 C1 3.96 1 7.92 1 12 C-1.31 12 -3.62 12 -6 12 C-4.68315519 7.39104317 -2.84801255 3.85859765 0 0 Z " fill="#AAE3EC" transform="translate(299,288)"/>
<path d="M0 0 C0.99 0.33 1.98 0.66 3 1 C3.99 0.67 4.98 0.34 6 0 C6 0.66 6 1.32 6 2 C6.66 2 7.32 2 8 2 C7.625 3.9375 7.625 3.9375 7 6 C6.01 6.495 6.01 6.495 5 7 C4.01 8.485 4.01 8.485 3 10 C3 9.34 3 8.68 3 8 C2.01 8 1.02 8 0 8 C0 5.36 0 2.72 0 0 Z " fill="#F9F3F1" transform="translate(254,212)"/>
<path d="M0 0 C0.66 0 1.32 0 2 0 C2 3.3 2 6.6 2 10 C-0.31 10 -2.62 10 -5 10 C-3.85569823 6.12697862 -2.76679902 2.99736561 0 0 Z " fill="#A8E3EA" transform="translate(256,290)"/>
<path d="M0 0 C0.66 0 1.32 0 2 0 C2 3.63 2 7.26 2 11 C0.02 11 -1.96 11 -4 11 C-2.95902388 7.13351728 -1.96301592 3.50538557 0 0 Z " fill="#AAE0EC" transform="translate(214,289)"/>
<path d="M0 0 C0.99 0.66 1.98 1.32 3 2 C3 2.66 3 3.32 3 4 C5.31 4.66 7.62 5.32 10 6 C7.5203442 7.2398279 5.94766119 7.03267797 3.1875 6.9375 C-0.67896514 6.88714083 -3.51880662 7.14336353 -7 9 C-6.67 7.35 -6.34 5.7 -6 4 C-4.02 3.34 -2.04 2.68 0 2 C0 1.34 0 0.68 0 0 Z " fill="#C87D65" transform="translate(247,202)"/>
<path d="M0 0 C4.34513052 1.86849426 7.26310769 6.04432573 9.92578125 9.828125 C8.93578125 10.323125 8.93578125 10.323125 7.92578125 10.828125 C7.92578125 10.168125 7.92578125 9.508125 7.92578125 8.828125 C6.93578125 8.498125 5.94578125 8.168125 4.92578125 7.828125 C4.45140625 7.333125 3.97703125 6.838125 3.48828125 6.328125 C1.57374895 4.49017399 0.57949752 3.98422596 -2.07421875 3.828125 C-3.76178008 4.79244576 -5.43088371 5.79022919 -7.07421875 6.828125 C-7.73421875 6.498125 -8.39421875 6.168125 -9.07421875 5.828125 C-8.00528657 4.79222162 -6.91843387 3.77478558 -5.82421875 2.765625 C-5.2209375 2.19714844 -4.61765625 1.62867188 -3.99609375 1.04296875 C-2.07421875 -0.171875 -2.07421875 -0.171875 0 0 Z " fill="#E3973F" transform="translate(251.07421875,167.171875)"/>
<path d="M0 0 C0.66 0.33 1.32 0.66 2 1 C0.75 4.4375 0.75 4.4375 -1 8 C-2.875 8.75 -2.875 8.75 -5 9 C-5.845625 9.515625 -6.69125 10.03125 -7.5625 10.5625 C-10 12 -10 12 -13 12 C-11.71034824 10.62437146 -10.37310707 9.29233607 -9 8 C-8.34 8 -7.68 8 -7 8 C-6.67 7.01 -6.34 6.02 -6 5 C-4.12382302 3.15500602 -2.07262391 1.6316401 0 0 Z " fill="#B8897F" transform="translate(172,206)"/>
<path d="M0 0 C0.66 0.99 1.32 1.98 2 3 C1.38125 3.04125 0.7625 3.0825 0.125 3.125 C-0.57625 3.41375 -1.2775 3.7025 -2 4 C-2.433125 5.4540625 -2.433125 5.4540625 -2.875 6.9375 C-4 10 -4 10 -6.9375 11.375 C-10 12 -10 12 -13 12 C-11.88121617 10.82737096 -10.75476949 9.66204862 -9.625 8.5 C-8.68527344 7.52546875 -8.68527344 7.52546875 -7.7265625 6.53125 C-6 5 -6 5 -4 5 C-4 4.34 -4 3.68 -4 3 C-2 1.375 -2 1.375 0 0 Z " fill="#B08073" transform="translate(187,193)"/>
<path d="M0 0 C0.66 0.33 1.32 0.66 2 1 C2.29363808 5.99184736 2.07836372 8.97444744 -1 13 C-1.99 13.495 -1.99 13.495 -3 14 C-3.33 13.01 -3.66 12.02 -4 11 C-3.01 10.67 -2.02 10.34 -1 10 C-1.20625 8.906875 -1.4125 7.81375 -1.625 6.6875 C-2 3 -2 3 0 0 Z " fill="#A16E61" transform="translate(343,223)"/>
<path d="M0 0 C0 0.33 0 0.66 0 1 C2.64 1.33 5.28 1.66 8 2 C8 2.33 8 2.66 8 3 C0.41 3 -7.18 3 -15 3 C-15 2.67 -15 2.34 -15 2 C-9.75614911 0.2520497 -5.52677733 -0.19392201 0 0 Z " fill="#B0816F" transform="translate(212,395)"/>
<path d="M0 0 C4.89132699 3.26088466 8.42270128 6.33867137 12 11 C10.02 11.33 8.04 11.66 6 12 C5.67 10.02 5.34 8.04 5 6 C3.35 5.67 1.7 5.34 0 5 C0 3.35 0 1.7 0 0 Z " fill="#AB7D6E" transform="translate(301,183)"/>
<path d="M0 0 C0.66 0 1.32 0 2 0 C1.4376049 3.26189156 0.5859495 4.91134848 -2 7 C-2.99 7.33 -3.98 7.66 -5 8 C-5.99 9.485 -5.99 9.485 -7 11 C-7.99 11 -8.98 11 -10 11 C-8.76210371 7.28631113 -7.14775123 6.22645819 -4 4 C-3.34 4 -2.68 4 -2 4 C-1.34 2.68 -0.68 1.36 0 0 Z " fill="#E0953D" transform="translate(210,201)"/>
<path d="M0 0 C0.66 0.33 1.32 0.66 2 1 C2.36363636 6.45454545 2.36363636 6.45454545 0.875 8.6875 C-1.83353399 10.58347379 -3.92358655 10.29278753 -7.1875 10.1875 C-8.27417969 10.16042969 -9.36085938 10.13335937 -10.48046875 10.10546875 C-11.72763672 10.05326172 -11.72763672 10.05326172 -13 10 C-13 9.67 -13 9.34 -13 9 C-9.37 9 -5.74 9 -2 9 C-1.855625 8.071875 -1.71125 7.14375 -1.5625 6.1875 C-1 3 -1 3 0 0 Z " fill="#BF9A8F" transform="translate(391,388)"/>
<path d="M0 0 C2.0625 1.6875 2.0625 1.6875 4 4 C3.75 6.75 3.75 6.75 3 9 C1.35 8.67 -0.3 8.34 -2 8 C-2 7.01 -2 6.02 -2 5 C-1.34 4.67 -0.68 4.34 0 4 C0 2.68 0 1.36 0 0 Z " fill="#AA6E60" transform="translate(380,277)"/>
<path d="M0 0 C2.375 -0.125 2.375 -0.125 5 0 C5.66 0.66 6.32 1.32 7 2 C9.89223503 2.46396693 9.89223503 2.46396693 13.125 2.625 C14.76855469 2.73714844 14.76855469 2.73714844 16.4453125 2.8515625 C17.70988281 2.92503906 17.70988281 2.92503906 19 3 C19 3.33 19 3.66 19 4 C16.77144426 4.0814222 14.54202345 4.13938079 12.3125 4.1875 C10.45044922 4.23970703 10.45044922 4.23970703 8.55078125 4.29296875 C4.80907731 3.9842473 2.96217879 3.24853724 0 1 C0 0.67 0 0.34 0 0 Z " fill="#D1864B" transform="translate(237,243)"/>
<path d="M0 0 C0.99 0.33 1.98 0.66 3 1 C0.19195732 3.96404505 -2.18315774 6.44499019 -6 8 C-5.67 6.35 -5.34 4.7 -5 3 C-4.01 3 -3.02 3 -2 3 C-2 2.34 -2 1.68 -2 1 C-1.34 0.67 -0.68 0.34 0 0 Z " fill="#A76138" transform="translate(222,188)"/>
<path d="M0 0 C0.33 0.66 0.66 1.32 1 2 C1.66 2.33 2.32 2.66 3 3 C1.375 5 1.375 5 -1 7 C-4.25 7.25 -4.25 7.25 -7 7 C-4.78071806 4.09197539 -3.07030857 2.04687238 0 0 Z " fill="#A67064" transform="translate(235,150)"/>
<path d="M0 0 C0.33 0 0.66 0 1 0 C1.3125 2.75 1.3125 2.75 1 6 C-1.5 8.375 -1.5 8.375 -4 10 C-3.4359146 6.05140217 -2.2568294 3.29120954 0 0 Z M-6 10 C-5.34 10.33 -4.68 10.66 -4 11 C-4.33 11.66 -4.66 12.32 -5 13 C-5.66 12.67 -6.32 12.34 -7 12 C-6.67 11.34 -6.34 10.68 -6 10 Z " fill="#BCF0FA" transform="translate(293,284)"/>
<path d="M0 0 C0.33 0.99 0.66 1.98 1 3 C1.99 3.33 2.98 3.66 4 4 C3.67 5.65 3.34 7.3 3 9 C2.01 8.01 1.02 7.02 0 6 C-1.65 6.66 -3.3 7.32 -5 8 C-4.360625 7.236875 -3.72125 6.47375 -3.0625 5.6875 C-0.85767219 3.11753287 -0.85767219 3.11753287 0 0 Z " fill="#CC8771" transform="translate(264,229)"/>
<path d="M0 0 C0.33 0 0.66 0 1 0 C1 2.31 1 4.62 1 7 C1.66 7.33 2.32 7.66 3 8 C4.0409066 9.64142963 5.04504326 11.30712215 6 13 C5.01 13.495 5.01 13.495 4 14 C0.05536417 10.22687008 0.05536417 10.22687008 -0.09765625 6.8359375 C-0.08605469 6.02382812 -0.07445312 5.21171875 -0.0625 4.375 C-0.05347656 3.55773437 -0.04445312 2.74046875 -0.03515625 1.8984375 C-0.02355469 1.27195313 -0.01195312 0.64546875 0 0 Z " fill="#A88176" transform="translate(155,223)"/>
<path d="M0 0 C0.66 0 1.32 0 2 0 C1 3 1 3 -0.9375 4.4375 C-3.16663817 6.12624104 -3.9445181 7.44925207 -5 10 C-6.32 9.67 -7.64 9.34 -9 9 C-7.88121617 7.82737096 -6.75476949 6.66204862 -5.625 5.5 C-4.68527344 4.52546875 -4.68527344 4.52546875 -3.7265625 3.53125 C-2 2 -2 2 0 2 C0 1.34 0 0.68 0 0 Z " fill="#D98E3E" transform="translate(232,181)"/>
<path d="M0 0 C0.33 0 0.66 0 1 0 C1 2.64 1 5.28 1 8 C3.64 8 6.28 8 9 8 C9.33 7.34 9.66 6.68 10 6 C10.66 7.32 11.32 8.64 12 10 C8.04 9.67 4.08 9.34 0 9 C0 6.03 0 3.06 0 0 Z " fill="#B96D56" transform="translate(245,136)"/>
<path d="M0 0 C0.66 0.33 1.32 0.66 2 1 C2.33 1.99 2.66 2.98 3 4 C2.34 4 1.68 4 1 4 C0.67 4.99 0.34 5.98 0 7 C-0.99 6.34 -1.98 5.68 -3 5 C-1.125 1.125 -1.125 1.125 0 0 Z M-2 7 C-1 11 -1 11 -1 11 Z " fill="#A86F62" transform="translate(115,283)"/>
<path d="M0 0 C0.66 0 1.32 0 2 0 C1.09539273 3.70066609 0.56131642 5.56497978 -2.5 7.9375 C-3.325 8.288125 -4.15 8.63875 -5 9 C-5.66 8.67 -6.32 8.34 -7 8 C-6.071875 7.6596875 -6.071875 7.6596875 -5.125 7.3125 C-2.37585439 5.6144983 -2.00115914 4.00347742 -1 1 C-0.67 0.67 -0.34 0.34 0 0 Z " fill="#F3B45D" transform="translate(271,234)"/>
<path d="M0 0 C2.375 0.3125 2.375 0.3125 5 1 C5.66 1.99 6.32 2.98 7 4 C5.1875 4.625 5.1875 4.625 3 5 C2.01 4.34 1.02 3.68 0 3 C0 2.01 0 1.02 0 0 Z " fill="#A36E65" transform="translate(258,147)"/>
<path d="M0 0 C2 3.75 2 3.75 2 6 C-3.94 5.01 -3.94 5.01 -10 4 C-10 3.67 -10 3.34 -10 3 C-6.7 3 -3.4 3 0 3 C0 2.01 0 1.02 0 0 Z " fill="#F5E3D7" transform="translate(258,223)"/>
<path d="M0 0 C0.33 0.66 0.66 1.32 1 2 C-0.24196122 3.15454162 -1.49392845 4.29832562 -2.75 5.4375 C-3.79414063 6.39462891 -3.79414063 6.39462891 -4.859375 7.37109375 C-6.98792725 8.99081325 -8.39023405 9.58267256 -11 10 C-7.50640535 6.40365256 -3.88901869 3.16548033 0 0 Z " fill="#FBBB49" transform="translate(201,222)"/>
<path d="M0 0 C3.83286936 0.54755277 5.40098264 2.2333041 8 5 C8.99 5.66 9.98 6.32 11 7 C10.67 7.99 10.34 8.98 10 10 C6.12948725 6.92118304 2.97088618 3.99926986 0 0 Z " fill="#AB6034" transform="translate(268,182)"/>
<path d="M0 0 C1 2 1 2 0.75 4.0625 C0.5025 4.701875 0.255 5.34125 0 6 C-0.99 6.33 -1.98 6.66 -3 7 C-3.99 8.485 -3.99 8.485 -5 10 C-5.66 9.67 -6.32 9.34 -7 9 C-4.69 6.03 -2.38 3.06 0 0 Z " fill="#B99183" transform="translate(123,272)"/>
<path d="M0 0 C10.55808656 -0.55353075 10.55808656 -0.55353075 15 3 C14.34 3.66 13.68 4.32 13 5 C13 4.34 13 3.68 13 3 C8.68803391 2.05675742 4.37934119 1.51958285 0 1 C0 0.67 0 0.34 0 0 Z " fill="#F6D9CD" transform="translate(245,208)"/>
<path d="M0 0 C2.5 0.375 2.5 0.375 5.5 3.375 C1.87 3.375 -1.76 3.375 -5.5 3.375 C-2.5 0.375 -2.5 0.375 0 0 Z " fill="#94523C" transform="translate(383.5,393.625)"/>
<path d="M0 0 C0.99 0.33 1.98 0.66 3 1 C3 1.66 3 2.32 3 3 C4.32 3.33 5.64 3.66 7 4 C4.42786866 5.61949011 3.32330841 6.04408751 0.25 5.625 C-0.4925 5.41875 -1.235 5.2125 -2 5 C-1.34 4.34 -0.68 3.68 0 3 C0 2.01 0 1.02 0 0 Z " fill="#A66658" transform="translate(163,233)"/>
<path d="M0 0 C2.38564077 0.57584432 4.66682784 1.22227595 7 2 C7.99 1.67 8.98 1.34 10 1 C9 4 9 4 7.25 5 C5 5 5 5 2.25 2.5625 C1.5075 1.716875 0.765 0.87125 0 0 Z " fill="#A35B39" transform="translate(324,232)"/>
<path d="M0 0 C0.66 0 1.32 0 2 0 C1.67 1.32 1.34 2.64 1 4 C0.34 4 -0.32 4 -1 4 C-1.12375 4.804375 -1.2475 5.60875 -1.375 6.4375 C-1.58125 7.283125 -1.7875 8.12875 -2 9 C-2.99 9.495 -2.99 9.495 -4 10 C-3.52449439 8.51965236 -3.04448784 7.04074979 -2.5625 5.5625 C-2.29566406 4.73878906 -2.02882812 3.91507812 -1.75390625 3.06640625 C-1 1 -1 1 0 0 Z " fill="#ADE5EF" transform="translate(248,286)"/>
<path d="M0 0 C0.99 0.33 1.98 0.66 3 1 C2.00102287 3.99693138 1.34869747 5.02709413 -1 7 C-1.66 7 -2.32 7 -3 7 C-1.125 1.125 -1.125 1.125 0 0 Z " fill="#EA9A38" transform="translate(188,221)"/>
<path d="M0 0 C1.90401138 1.90401138 2.93520439 3.33425686 3.19921875 6.046875 C3.1886578 8.03233273 3.09915043 10.0169914 3 12 C2.67 12 2.34 12 2 12 C2 10.35 2 8.7 2 7 C1.34 7 0.68 7 0 7 C0 4.69 0 2.38 0 0 Z " fill="#F3D3C8" transform="translate(263,215)"/>
<path d="M0 0 C3.5786304 1.65167557 6.74820188 3.78286492 10 6 C9.67 6.99 9.34 7.98 9 9 C7.49704815 7.69088122 5.99770689 6.37761608 4.5 5.0625 C3.6646875 4.33160156 2.829375 3.60070312 1.96875 2.84765625 C1.3190625 2.23792969 0.669375 1.62820312 0 1 C0 0.67 0 0.34 0 0 Z " fill="#B56B35" transform="translate(299,210)"/>
<path d="M0 0 C0.66 0.33 1.32 0.66 2 1 C2 1.66 2 2.32 2 3 C1.071875 3.4021875 1.071875 3.4021875 0.125 3.8125 C-2.2995233 4.95556848 -2.2995233 4.95556848 -4 8 C-4 7.34 -4 6.68 -4 6 C-4.66 5.67 -5.32 5.34 -6 5 C-4.02 3.35 -2.04 1.7 0 0 Z " fill="#96563D" transform="translate(218,167)"/>
<path d="M0 0 C2 3 2 3 2 5 C2.66 5.33 3.32 5.66 4 6 C1 6 1 6 -1.1875 4 C-1.785625 3.34 -2.38375 2.68 -3 2 C-2.01 1.34 -1.02 0.68 0 0 Z " fill="#A85E37" transform="translate(255,166)"/>
<path d="M0 0 C2.5 1.8125 2.5 1.8125 5 4 C5 4.99 5 5.98 5 7 C4.01 6.67 3.02 6.34 2 6 C2 5.34 2 4.68 2 4 C1.34 4 0.68 4 0 4 C0 2.68 0 1.36 0 0 Z " fill="#A97B6F" transform="translate(384,283)"/>
<path d="M0 0 C1.98 0.99 3.96 1.98 6 3 C5.01 3.33 4.02 3.66 3 4 C3 6.64 3 9.28 3 12 C2.67 12 2.34 12 2 12 C1.34 8.04 0.68 4.08 0 0 Z " fill="#CE9250" transform="translate(326,234)"/>
<path d="M0 0 C0 0.99 0 1.98 0 3 C-1.98 3 -3.96 3 -6 3 C-6.33 2.34 -6.66 1.68 -7 1 C-4.53721199 -0.231394 -2.7204945 -0.07159196 0 0 Z " fill="#C9725A" transform="translate(256,222)"/>
<path d="M0 0 C1.98 1.65 3.96 3.3 6 5 C5.01 5.495 5.01 5.495 4 6 C3.67 6.66 3.34 7.32 3 8 C0.37613513 4.93882432 0 4.26826873 0 0 Z " fill="#B88F80" transform="translate(336,214)"/>
<path d="M0 0 C0.99 0.33 1.98 0.66 3 1 C3 3.97 3 6.94 3 10 C2.01 9.34 1.02 8.68 0 8 C0.66 6.02 1.32 4.04 2 2 C1.34 2 0.68 2 0 2 C0 1.34 0 0.68 0 0 Z " fill="#F8E9E1" transform="translate(260,212)"/>
<path d="M0 0 C1.32 0.33 2.64 0.66 4 1 C2.35 2.65 0.7 4.3 -1 6 C-1.33 5.01 -1.66 4.02 -2 3 C-1.34 2.01 -0.68 1.02 0 0 Z " fill="#A65E31" transform="translate(205,202)"/>
<path d="M0 0 C0.66 0.33 1.32 0.66 2 1 C-1.32307692 5.8 -1.32307692 5.8 -4.75 6.8125 C-5.4925 6.874375 -6.235 6.93625 -7 7 C-4.66666667 4.66666667 -2.33333333 2.33333333 0 0 Z " fill="#E49643" transform="translate(221,192)"/>
<path d="M0 0 C0.33 0 0.66 0 1 0 C1 2.64 1 5.28 1 8 C-2.875 6.25 -2.875 6.25 -4 4 C-3.01 4 -2.02 4 -1 4 C-0.67 2.68 -0.34 1.36 0 0 Z " fill="#EDA43D" transform="translate(327,238)"/>
<path d="M0 0 C0.99 0.33 1.98 0.66 3 1 C3 2.65 3 4.3 3 6 C1.68 5.34 0.36 4.68 -1 4 C-0.67 2.68 -0.34 1.36 0 0 Z " fill="#F29F29" transform="translate(323,237)"/>
<path d="M0 0 C0.33 1.32 0.66 2.64 1 4 C-2.465 5.485 -2.465 5.485 -6 7 C-4.77065985 3.31197956 -3.06140622 2.27643027 0 0 Z " fill="#B48B7C" transform="translate(198,183)"/>
<path d="M0 0 C1.32 0 2.64 0 4 0 C3.67 1.65 3.34 3.3 3 5 C2.34 5 1.68 5 1 5 C0.67 4.34 0.34 3.68 0 3 C-0.66 2.67 -1.32 2.34 -2 2 C-1.34 1.34 -0.68 0.68 0 0 Z " fill="#A77366" transform="translate(238,147)"/>
</svg>
