<?xml version="1.0" encoding="UTF-8"?>
<svg version="1.1" xmlns="http://www.w3.org/2000/svg" width="500" height="500">
<path d="M0 0 C2.7801274 1.92990926 2.7801274 1.92990926 6.17578125 3.7265625 C9.74433183 5.73895768 12.69469106 8.25254459 15.6484375 11.07421875 C16.19201904 11.58581543 16.73560059 12.09741211 17.2956543 12.62451172 C19.1121787 14.3462365 20.91347507 16.08260704 22.7109375 17.82421875 C23.37963867 18.47100586 24.04833984 19.11779297 24.73730469 19.78417969 C32.56828531 27.39570266 40.28803475 34.95583443 46.7109375 43.82421875 C47.43410156 44.79230469 48.15726562 45.76039062 48.90234375 46.7578125 C54.37762988 54.32686287 58.71614388 62.15380584 62.67089844 70.60839844 C63.7615488 72.93204696 64.88109105 75.24062415 66 77.55078125 C77.69975801 102.13981337 82.93577256 127.91755256 82.9609375 155.07421875 C82.96194458 155.8282196 82.96295166 156.58222046 82.96398926 157.35906982 C82.95284152 169.72814492 82.22631601 181.68101213 79.7109375 193.82421875 C79.50210938 194.86835938 79.50210938 194.86835938 79.2890625 195.93359375 C76.94907415 207.28687056 73.03118496 218.08925091 68.7109375 228.82421875 C68.37964844 229.65002441 68.04835938 230.47583008 67.70703125 231.32666016 C56.48255744 258.82768795 37.54876568 282.89029282 14.7109375 301.82421875 C13.82277344 302.56285156 12.93460937 303.30148437 12.01953125 304.0625 C5.49013473 309.29102059 -1.26135377 313.71529187 -8.4765625 317.94921875 C-15.53147661 322.09488993 -22.27882181 326.20986217 -28.2890625 331.82421875 C-28.90394531 332.38625 -29.51882813 332.94828125 -30.15234375 333.52734375 C-35.62253272 339.10669392 -38.65754502 346.04857833 -41.95019531 353.02001953 C-43.53169826 356.33240882 -45.15571261 359.62316007 -46.78125 362.9140625 C-52.59276997 374.7139296 -58.30725805 386.49295666 -63.2265625 398.69921875 C-66.99463775 407.98460212 -71.06535799 417.10601737 -75.36038208 426.15802002 C-76.05381013 427.62472869 -76.7407482 429.09452622 -77.42062378 430.56756592 C-81.86373754 440.16823634 -86.14782404 448.14892454 -96.1640625 452.76171875 C-103.55090079 455.07462311 -110.12791428 454.41421688 -117.0859375 451.1875 C-122.84001248 447.62691105 -126.11080376 444.22250922 -128.9140625 438.07421875 C-129.39721924 437.06113647 -129.39721924 437.06113647 -129.89013672 436.02758789 C-130.61856507 434.49842768 -131.34102084 432.96641308 -132.05859375 431.43212891 C-133.43164848 428.52201569 -134.84242334 425.63194036 -136.2578125 422.7421875 C-137.31042861 420.58229082 -138.36251246 418.42213465 -139.4140625 416.26171875 C-140.15003662 414.75689941 -140.15003662 414.75689941 -140.90087891 413.22167969 C-143.54902295 407.72680295 -145.97792147 402.19338076 -148.1953125 396.51171875 C-151.2896631 388.60355328 -154.91947473 381.0040244 -158.6640625 373.38671875 C-159.33081402 372.02172641 -159.99723373 370.65657194 -160.66333008 369.29125977 C-161.9560646 366.64455436 -163.25227607 363.99960427 -164.55224609 361.35644531 C-166.00716295 358.39752809 -167.45588259 355.43571002 -168.90234375 352.47265625 C-177.17382951 335.65470674 -186.51899637 327.26120092 -202.2890625 317.82421875 C-245.48785724 291.53658009 -275.36698267 250.60528708 -288.2890625 201.82421875 C-291.90243413 186.84020799 -293.52434575 172.41929327 -293.5390625 157.01171875 C-293.54006958 156.27945068 -293.54107666 155.54718262 -293.54211426 154.79272461 C-293.53107768 142.90048987 -292.74185239 131.4776138 -290.2890625 119.82421875 C-290.14984375 119.10991699 -290.010625 118.39561523 -289.8671875 117.65966797 C-283.72202548 86.3150742 -269.30878894 57.6640645 -248.2890625 33.82421875 C-247.72058594 33.14488281 -247.15210938 32.46554688 -246.56640625 31.765625 C-237.45493949 20.92973742 -227.24637164 10.46403598 -215.2890625 2.82421875 C-214.64630371 2.41252441 -214.00354492 2.00083008 -213.34130859 1.57666016 C-208.05557619 -1.78632813 -202.69891134 -5.01677899 -197.2890625 -8.17578125 C-196.59006836 -8.58505859 -195.89107422 -8.99433594 -195.17089844 -9.41601562 C-176.8102248 -20.02050971 -157.06241439 -26.27399659 -136.2890625 -30.17578125 C-135.00773438 -30.42199219 -133.72640625 -30.66820312 -132.40625 -30.921875 C-86.69838783 -38.07915363 -37.8253529 -26.45556207 0 0 Z " fill="#F0F4FD" transform="translate(355.2890625,39.17578125)"/>
<path d="M0 0 C2.7801274 1.92990926 2.7801274 1.92990926 6.17578125 3.7265625 C9.74433183 5.73895768 12.69469106 8.25254459 15.6484375 11.07421875 C16.19201904 11.58581543 16.73560059 12.09741211 17.2956543 12.62451172 C19.1121787 14.3462365 20.91347507 16.08260704 22.7109375 17.82421875 C23.37963867 18.47100586 24.04833984 19.11779297 24.73730469 19.78417969 C32.56828531 27.39570266 40.28803475 34.95583443 46.7109375 43.82421875 C47.43410156 44.79230469 48.15726562 45.76039062 48.90234375 46.7578125 C54.37762988 54.32686287 58.71614388 62.15380584 62.67089844 70.60839844 C63.7615488 72.93204696 64.88109105 75.24062415 66 77.55078125 C77.69975801 102.13981337 82.93577256 127.91755256 82.9609375 155.07421875 C82.96194458 155.8282196 82.96295166 156.58222046 82.96398926 157.35906982 C82.95284152 169.72814492 82.22631601 181.68101213 79.7109375 193.82421875 C79.50210938 194.86835938 79.50210938 194.86835938 79.2890625 195.93359375 C76.94907415 207.28687056 73.03118496 218.08925091 68.7109375 228.82421875 C68.37964844 229.65002441 68.04835938 230.47583008 67.70703125 231.32666016 C56.48255744 258.82768795 37.54876568 282.89029282 14.7109375 301.82421875 C13.82277344 302.56285156 12.93460937 303.30148437 12.01953125 304.0625 C5.49013473 309.29102059 -1.26135377 313.71529187 -8.4765625 317.94921875 C-15.53147661 322.09488993 -22.27882181 326.20986217 -28.2890625 331.82421875 C-28.90394531 332.38625 -29.51882813 332.94828125 -30.15234375 333.52734375 C-35.62253272 339.10669392 -38.65754502 346.04857833 -41.95019531 353.02001953 C-43.53169826 356.33240882 -45.15571261 359.62316007 -46.78125 362.9140625 C-52.59276997 374.7139296 -58.30725805 386.49295666 -63.2265625 398.69921875 C-66.99463775 407.98460212 -71.06535799 417.10601737 -75.36038208 426.15802002 C-76.05381013 427.62472869 -76.7407482 429.09452622 -77.42062378 430.56756592 C-81.86373754 440.16823634 -86.14782404 448.14892454 -96.1640625 452.76171875 C-103.55090079 455.07462311 -110.12791428 454.41421688 -117.0859375 451.1875 C-122.84001248 447.62691105 -126.11080376 444.22250922 -128.9140625 438.07421875 C-129.39721924 437.06113647 -129.39721924 437.06113647 -129.89013672 436.02758789 C-130.61856507 434.49842768 -131.34102084 432.96641308 -132.05859375 431.43212891 C-133.43164848 428.52201569 -134.84242334 425.63194036 -136.2578125 422.7421875 C-137.31042861 420.58229082 -138.36251246 418.42213465 -139.4140625 416.26171875 C-140.15003662 414.75689941 -140.15003662 414.75689941 -140.90087891 413.22167969 C-143.54902295 407.72680295 -145.97792147 402.19338076 -148.1953125 396.51171875 C-151.2896631 388.60355328 -154.91947473 381.0040244 -158.6640625 373.38671875 C-159.33081402 372.02172641 -159.99723373 370.65657194 -160.66333008 369.29125977 C-161.9560646 366.64455436 -163.25227607 363.99960427 -164.55224609 361.35644531 C-166.00716295 358.39752809 -167.45588259 355.43571002 -168.90234375 352.47265625 C-177.17382951 335.65470674 -186.51899637 327.26120092 -202.2890625 317.82421875 C-245.48785724 291.53658009 -275.36698267 250.60528708 -288.2890625 201.82421875 C-291.90243413 186.84020799 -293.52434575 172.41929327 -293.5390625 157.01171875 C-293.54006958 156.27945068 -293.54107666 155.54718262 -293.54211426 154.79272461 C-293.53107768 142.90048987 -292.74185239 131.4776138 -290.2890625 119.82421875 C-290.14984375 119.10991699 -290.010625 118.39561523 -289.8671875 117.65966797 C-283.72202548 86.3150742 -269.30878894 57.6640645 -248.2890625 33.82421875 C-247.72058594 33.14488281 -247.15210938 32.46554688 -246.56640625 31.765625 C-237.45493949 20.92973742 -227.24637164 10.46403598 -215.2890625 2.82421875 C-214.64630371 2.41252441 -214.00354492 2.00083008 -213.34130859 1.57666016 C-208.05557619 -1.78632813 -202.69891134 -5.01677899 -197.2890625 -8.17578125 C-196.59006836 -8.58505859 -195.89107422 -8.99433594 -195.17089844 -9.41601562 C-176.8102248 -20.02050971 -157.06241439 -26.27399659 -136.2890625 -30.17578125 C-135.00773438 -30.42199219 -133.72640625 -30.66820312 -132.40625 -30.921875 C-86.69838783 -38.07915363 -37.8253529 -26.45556207 0 0 Z M-157.2890625 16.82421875 C-158.44792969 17.22640625 -159.60679687 17.62859375 -160.80078125 18.04296875 C-167.85028418 20.59749246 -173.98320062 23.80293962 -180.2890625 27.82421875 C-181.89274359 28.74173465 -183.49691978 29.65838568 -185.1015625 30.57421875 C-201.650873 40.61190319 -216.77123144 54.52407298 -227.2890625 70.82421875 C-228.13597656 72.08878906 -228.13597656 72.08878906 -229 73.37890625 C-230.82418445 76.16058118 -232.56596207 78.9787648 -234.2890625 81.82421875 C-234.67304199 82.45054199 -235.05702148 83.07686523 -235.45263672 83.72216797 C-236.70912014 85.78692138 -237.93909719 87.86563516 -239.1640625 89.94921875 C-239.75465454 90.91637817 -239.75465454 90.91637817 -240.35717773 91.90307617 C-243.18741424 96.81449691 -244.0431561 101.18139965 -244.2890625 106.82421875 C-244.9490625 106.82421875 -245.6090625 106.82421875 -246.2890625 106.82421875 C-248.30165651 112.37897823 -249.80701986 117.84450944 -250.859375 123.66015625 C-251.2890625 125.82421875 -251.2890625 125.82421875 -252.2890625 128.82421875 C-253.47639149 138.83589409 -253.41638065 148.98510908 -253.46530151 159.05410767 C-253.47273846 160.47077473 -253.48335769 161.88742909 -253.49734497 163.30404663 C-253.56942984 171.36579503 -253.3164522 178.98598348 -251.2890625 186.82421875 C-251.00905396 188.00951172 -251.00905396 188.00951172 -250.72338867 189.21875 C-241.18916648 228.56958688 -216.48193097 262.27376467 -182.2890625 283.82421875 C-150.66597562 302.88470947 -111.60990062 310.88788502 -75.30273438 302.32470703 C-74.63822266 302.1595459 -73.97371094 301.99438477 -73.2890625 301.82421875 C-72.59103516 301.6526123 -71.89300781 301.48100586 -71.17382812 301.30419922 C-32.45001902 291.46497524 1.27105586 267.78908035 22.14404297 233.46777344 C28.1642143 223.244086 33.21176306 213.18536809 36.7109375 201.82421875 C37.27097949 200.19836998 37.83319194 198.57326576 38.3984375 196.94921875 C49.4138423 162.96949546 43.86261561 120.95608267 28.15844727 89.45410156 C21.33131448 76.22049637 13.03455429 64.58160095 2.7109375 53.82421875 C1.89238281 52.9425 1.07382812 52.06078125 0.23046875 51.15234375 C-10.78171764 39.63590658 -23.54649018 31.1661578 -37.57470703 23.74072266 C-39.00354732 22.97685674 -40.41275221 22.17640382 -41.81640625 21.3671875 C-76.00082946 2.44259469 -121.56936105 3.9068405 -157.2890625 16.82421875 Z " fill="#F72448" transform="translate(355.2890625,39.17578125)"/>
<path d="M0 0 C1.23242432 0.45745605 2.46484863 0.91491211 3.73461914 1.38623047 C4.3788382 1.62807068 5.02305725 1.86991089 5.6867981 2.11907959 C9.05683243 3.38415197 12.43304996 4.6325322 15.80859375 5.8828125 C16.47678635 6.13082611 17.14497894 6.37883972 17.8334198 6.6343689 C23.40455069 8.69817612 29.00168264 10.67801237 34.6171875 12.6171875 C42.75796619 15.43533985 50.80765138 18.43738656 58.8046875 21.64453125 C62.15346179 22.95918678 65.41292785 23.96898346 68.9296875 24.6796875 C73.0717285 25.53909057 76.75518798 26.95738944 80.6484375 28.58984375 C86.516575 30.91659182 92.55366379 32.78985445 98.5546875 34.7421875 C98.5546875 35.4021875 98.5546875 36.0621875 98.5546875 36.7421875 C97.4409375 37.10570312 96.3271875 37.46921875 95.1796875 37.84375 C86.6091653 40.66058866 78.10160735 43.57734709 69.68359375 46.82470703 C66.64129991 47.99256043 63.72625182 48.94929642 60.5546875 49.7421875 C60.2246875 68.5521875 59.8946875 87.3621875 59.5546875 106.7421875 C11.55068998 125.94378651 -32.47367487 125.93084255 -80.4453125 106.7421875 C-80.7753125 87.9321875 -81.1053125 69.1221875 -81.4453125 49.7421875 C-93.6086385 45.36599149 -93.6086385 45.36599149 -105.3828125 43.9296875 C-106.07826172 43.90455078 -106.77371094 43.87941406 -107.49023438 43.85351562 C-109.14136255 43.79658017 -110.79337553 43.7660657 -112.4453125 43.7421875 C-112.43198883 44.69059258 -112.43198883 44.69059258 -112.418396 45.65815735 C-112.33003108 52.22766089 -112.26962339 58.79699617 -112.22558594 65.36694336 C-112.20544717 67.82013809 -112.17813432 70.27328469 -112.14355469 72.72631836 C-112.09513768 76.24865583 -112.07236621 79.77035973 -112.0546875 83.29296875 C-112.03404236 84.39304764 -112.01339722 85.49312653 -111.99212646 86.62654114 C-111.99182434 87.64737289 -111.99152222 88.66820465 -111.99121094 89.7199707 C-111.98232849 90.61931839 -111.97344604 91.51866608 -111.96429443 92.44526672 C-112.4453125 94.7421875 -112.4453125 94.7421875 -114.34649658 96.52677917 C-117.95740091 98.61782639 -120.31638554 98.26649569 -124.4453125 97.7421875 C-127.32130512 94.13602059 -127.82848342 91.2845726 -127.86523438 86.74609375 C-127.88114624 85.56136475 -127.89705811 84.37663574 -127.91345215 83.15600586 C-127.91365356 81.8850708 -127.91385498 80.61413574 -127.9140625 79.3046875 C-127.92167603 77.99185791 -127.92928955 76.67902832 -127.93713379 75.32641602 C-127.95055353 72.55248454 -127.95215833 69.77883759 -127.94628906 67.00488281 C-127.9403878 63.45700151 -127.97101045 59.91048626 -128.01140594 56.36286926 C-128.043524 52.96843194 -128.03916666 49.57427629 -128.0390625 46.1796875 C-128.05545776 44.90875244 -128.07185303 43.63781738 -128.08874512 42.32836914 C-128.02030436 33.61476456 -128.02030436 33.61476456 -125.26782227 29.43774414 C-122.09017398 27.52884635 -120.37441513 27.13939323 -116.69140625 27.17578125 C-115.58861328 27.16482422 -114.48582031 27.15386719 -113.34960938 27.14257812 C-112.20556641 27.15482422 -111.06152344 27.16707031 -109.8828125 27.1796875 C-100.565267 27.24958253 -93.13376059 26.16488565 -84.4453125 22.7421875 C-83.03809413 22.2204532 -81.63058094 21.69951275 -80.22265625 21.1796875 C-79.59858887 20.94121094 -78.97452148 20.70273438 -78.33154297 20.45703125 C-74.91115978 19.1607742 -71.45809318 17.95610249 -68.0078125 16.7421875 C-67.26063965 16.47873535 -66.5134668 16.2152832 -65.74365234 15.94384766 C-61.35221718 14.39961724 -56.94941616 12.89960783 -52.52734375 11.4453125 C-49.14849469 10.30423777 -45.80505432 9.06791916 -42.45703125 7.83984375 C-37.98806731 6.21107738 -33.50122817 4.63306544 -29.015625 3.05078125 C-24.4119354 1.36343331 -19.89337939 -0.51590645 -15.3828125 -2.4375 C-9.94268443 -3.9566847 -5.13871506 -1.92353076 0 0 Z " fill="#5C6885" transform="translate(260.4453125,128.2578125)"/>
<path d="M0 0 C-0.66 0.66 -1.32 1.32 -2 2 C-3.134375 1.443125 -4.26875 0.88625 -5.4375 0.3125 C-24.76443199 -8.2840218 -48.86522414 -14.06693348 -69.91796875 -14.203125 C-70.64905853 -14.21013931 -71.38014832 -14.21715363 -72.13339233 -14.22438049 C-74.48482488 -14.24180393 -76.83600523 -14.2482345 -79.1875 -14.25 C-79.99234833 -14.25067474 -80.79719666 -14.25134949 -81.62643433 -14.25204468 C-101.2120548 -14.22597697 -119.21351431 -11.5689167 -138 -6 C-139.01578125 -5.70480469 -140.0315625 -5.40960938 -141.078125 -5.10546875 C-147.93494132 -2.96026479 -154.5865211 -0.23775121 -161.25 2.4375 C-162.18561768 2.80907227 -163.12123535 3.18064453 -164.08520508 3.56347656 C-169.78757262 5.89213364 -174.88713917 8.57554914 -180 12 C-180.98226562 12.62003906 -181.96453125 13.24007812 -182.9765625 13.87890625 C-185.65418962 15.58105564 -188.32789305 17.28919982 -191 19 C-191.66 19.41765625 -192.32 19.8353125 -193 20.265625 C-196.0127747 22.14070022 -196.0127747 22.14070022 -198 25 C-199.03898437 25.56847656 -200.07796875 26.13695312 -201.1484375 26.72265625 C-205.31983826 29.02342119 -208.35385822 32.01375711 -211.625 35.4375 C-212.1715625 35.99759766 -212.718125 36.55769531 -213.28125 37.13476562 C-214.35605106 38.23656528 -215.42775744 39.3413937 -216.49609375 40.44946289 C-217.86914466 41.86508729 -219.26546694 43.25804485 -220.6640625 44.6484375 C-222.77276185 46.77124186 -224.78110816 48.93547106 -226.75 51.1875 C-227.34296875 51.86167969 -227.9359375 52.53585938 -228.546875 53.23046875 C-230.06584716 54.94668032 -230.06584716 54.94668032 -231 57 C-231.66 57 -232.32 57 -233 57 C-233.20625 57.66 -233.4125 58.32 -233.625 59 C-234.84252405 61.6564161 -236.03854817 63.46985626 -237.8125 65.75 C-242.40713994 71.71182549 -245.72869933 77.91369527 -248.19921875 85.0078125 C-249.05087123 87.1265577 -250.11995786 88.9290741 -251.3125 90.875 C-271.11200118 125.52412707 -270.98506268 173.15180446 -260.97998047 210.46826172 C-259.23188586 216.62368943 -256.88061332 222.28646564 -254 228 C-253.34758471 229.51802141 -252.70155384 231.03880551 -252.0625 232.5625 C-248.77828074 239.94869592 -244.44243372 246.59097895 -239.5234375 252.98046875 C-237.82200397 255.23595884 -236.21273258 257.53812599 -234.625 259.875 C-234.12226563 260.61492187 -233.61953125 261.35484375 -233.1015625 262.1171875 C-232 264 -232 264 -232 266 C-231.39542969 266.2578125 -230.79085937 266.515625 -230.16796875 266.78125 C-227.7772988 268.12519419 -226.84545637 269.25350537 -225.3125 271.5 C-219.33776689 279.76006853 -212.61840963 286.62922174 -204.578125 292.89453125 C-202 295 -202 295 -199.45703125 297.5703125 C-197.21097056 299.79137729 -195.10424685 301.3975224 -192.4375 303.0625 C-189.22109427 305.13056914 -186.70366536 307.29633464 -184 310 C-182.35636866 310.72159424 -180.68949614 311.39351421 -179 312 C-178.01 312.66 -177.02 313.32 -176 314 C-176 314.66 -176 315.32 -176 316 C-173.83572512 317.12221661 -171.73059447 318.098563 -169.4375 318.9375 C-166.90515605 320.04134223 -165.89511132 321.04887554 -164 323 C-162.7330105 324.0670807 -161.46189498 325.12927458 -160.1875 326.1875 C-151.28141238 333.94968646 -146.2611184 344.18373879 -141.25 354.6875 C-140.83878906 355.52861328 -140.42757812 356.36972656 -140.00390625 357.23632812 C-139.61589844 358.04908203 -139.22789062 358.86183594 -138.828125 359.69921875 C-138.4765332 360.42971436 -138.12494141 361.16020996 -137.76269531 361.9128418 C-137 364 -137 364 -137 368 C-136.34 368 -135.68 368 -135 368 C-134.68546875 368.7734375 -134.3709375 369.546875 -134.046875 370.34375 C-131.12483634 377.46375485 -131.12483634 377.46375485 -127.75 384.375 C-126.10746927 387.54084552 -125.35779005 390.42209946 -125 394 C-124.34 394 -123.68 394 -123 394 C-122.68546875 394.7734375 -122.3709375 395.546875 -122.046875 396.34375 C-119.85711924 401.6730351 -117.6125802 406.89915126 -114.96044922 412.01367188 C-114 414 -114 414 -112.625 417.734375 C-111.0601377 421.97054814 -109.16463827 425.97444956 -107.125 430 C-106.77566406 430.69625488 -106.42632812 431.39250977 -106.06640625 432.10986328 C-104.19134621 435.80376616 -102.23781213 439.38401308 -100 442.875 C-98 446 -98 446 -98 448 C-95.03 448.33 -92.06 448.66 -89 449 C-89.33 448.01 -89.66 447.02 -90 446 C-88.55245745 444.55245745 -86.96037087 444.44266439 -85 444 C-85 444.99 -85 445.98 -85 447 C-90.46028995 452.46028995 -96.19734608 455.07749284 -103.9375 455.4375 C-111.84751705 455.1701876 -118.49803841 451.63436682 -124 446 C-125.39826142 443.72853859 -126.52929079 441.65318113 -127.625 439.25 C-128.10815674 438.23691772 -128.10815674 438.23691772 -128.60107422 437.20336914 C-129.32950257 435.67420893 -130.05195834 434.14219433 -130.76953125 432.60791016 C-132.14258598 429.69779694 -133.55336084 426.80772161 -134.96875 423.91796875 C-136.02136611 421.75807207 -137.07344996 419.5979159 -138.125 417.4375 C-138.86097412 415.93268066 -138.86097412 415.93268066 -139.61181641 414.39746094 C-142.25996045 408.9025842 -144.68885897 403.36916201 -146.90625 397.6875 C-150.0006006 389.77933453 -153.63041223 382.17980565 -157.375 374.5625 C-158.04175152 373.19750766 -158.70817123 371.83235319 -159.37426758 370.46704102 C-160.6670021 367.82033561 -161.96321357 365.17538552 -163.26318359 362.53222656 C-164.71810045 359.57330934 -166.16682009 356.61149127 -167.61328125 353.6484375 C-175.88476701 336.83048799 -185.22993387 328.43698217 -201 319 C-244.19879474 292.71236134 -274.07792017 251.78106833 -287 203 C-290.61337163 188.01598924 -292.23528325 173.59507452 -292.25 158.1875 C-292.25100708 157.45523193 -292.25201416 156.72296387 -292.25305176 155.96850586 C-292.24201518 144.07627112 -291.45278989 132.65339505 -289 121 C-288.86078125 120.28569824 -288.7215625 119.57139648 -288.578125 118.83544922 C-282.43296298 87.49085545 -268.01972644 58.83984575 -247 35 C-246.43152344 34.32066406 -245.86304688 33.64132813 -245.27734375 32.94140625 C-236.16587699 22.10551867 -225.95730914 11.63981723 -214 4 C-213.35724121 3.58830566 -212.71448242 3.17661133 -212.05224609 2.75244141 C-206.76651369 -0.61054688 -201.40984884 -3.84099774 -196 -7 C-195.30100586 -7.40927734 -194.60201172 -7.81855469 -193.88183594 -8.24023438 C-175.5211623 -18.84472846 -155.77335189 -25.09821534 -135 -29 C-133.71867188 -29.24621094 -132.43734375 -29.49242187 -131.1171875 -29.74609375 C-85.08538981 -36.95409663 -38.8269739 -24.75764909 0 0 Z " fill="#F85669" transform="translate(354,38)"/>
<path d="M0 0 C7.80781835 2.23080524 7.80781835 2.23080524 11.64453125 3.5859375 C53.16073643 17.99877732 94.01495885 17.25884365 134.9375 1.13671875 C138 0 138 0 140 0 C140 10.23 140 20.46 140 31 C128.3836169 36.80819155 117.27361328 39.76798787 104.75 42.6875 C103.38439941 43.00944336 103.38439941 43.00944336 101.99121094 43.33789062 C67.47298623 51.16986187 31.90816831 45.18140814 0 31 C0 20.77 0 10.54 0 0 Z " fill="#FEC62F" transform="translate(180,235)"/>
<path d="M0 0 C6 1 6 1 15 4 C15 17.53 15 31.06 15 45 C9 44 9 44 0 40 C0 26.8 0 13.6 0 0 Z " fill="#768097" transform="translate(180,195)"/>
<path d="M0 0 C4.14431095 1.18408884 8.20327916 2.36010605 12.27734375 3.7265625 C13.20224609 4.0359375 14.12714844 4.3453125 15.08007812 4.6640625 C16.02302734 4.98117188 16.96597656 5.29828125 17.9375 5.625 C18.90751953 5.94984375 19.87753906 6.2746875 20.87695312 6.609375 C23.25176571 7.40487872 25.62609706 8.2017867 28 9 C28 9.33 28 9.66 28 10 C23.86645178 9.51775271 20.04458076 9.01114519 16 8 C15.67 17.24 15.34 26.48 15 36 C9 35 9 35 0 31 C0 20.77 0 10.54 0 0 Z " fill="#FCDC57" transform="translate(180,235)"/>
<path d="M0 0 C3.96 0.33 7.92 0.66 12 1 C12 1.66 12 2.32 12 3 C12.58265625 2.96519531 13.1653125 2.93039062 13.765625 2.89453125 C18.53147218 2.73716837 22.48555296 3.03951832 27.03515625 4.49609375 C35.39470461 6.67463099 43.79109202 6.37740236 52.36743164 6.28125 C55.21969466 6.24964324 58.07140603 6.24022462 60.92382812 6.234375 C62.73438182 6.22522095 64.54492988 6.21485034 66.35546875 6.203125 C67.63649727 6.19675018 67.63649727 6.19675018 68.94340515 6.19024658 C72.78242771 6.51563676 72.78242771 6.51563676 76 5 C78.67058851 4.85884839 81.32432238 4.95752893 84 5 C84 4.34 84 3.68 84 3 C87.63 3 91.26 3 95 3 C95 2.34 95 1.68 95 1 C96.98 1 98.96 1 101 1 C98.68071106 3.31928894 97.49522206 3.53763537 94.34375 4.25390625 C93.40273438 4.46853516 92.46171875 4.68316406 91.4921875 4.90429688 C90.50476563 5.12150391 89.51734375 5.33871094 88.5 5.5625 C87.06527344 5.89411133 87.06527344 5.89411133 85.6015625 6.23242188 C57.92099259 12.43992095 26.68186712 10.6280058 0 1 C0 0.67 0 0.34 0 0 Z " fill="#F5CA55" transform="translate(197,272)"/>
<path d="M0 0 C-4.14612814 -0.13813025 -8.29181162 -0.28678859 -12.4375 -0.4375 C-13.62150391 -0.47681641 -14.80550781 -0.51613281 -16.02539062 -0.55664062 C-17.71245117 -0.61948242 -17.71245117 -0.61948242 -19.43359375 -0.68359375 C-20.47572021 -0.72025146 -21.51784668 -0.75690918 -22.59155273 -0.79467773 C-25 -1 -25 -1 -26 -2 C-28.20650656 -2.10012401 -30.41622386 -2.1308118 -32.625 -2.1328125 C-33.61814209 -2.13424759 -33.61814209 -2.13424759 -34.63134766 -2.13571167 C-36.03352961 -2.13639326 -37.4357147 -2.13454042 -38.83789062 -2.13037109 C-40.99095713 -2.12502246 -43.14381502 -2.1303167 -45.296875 -2.13671875 C-46.65625046 -2.13605796 -48.0156258 -2.13477679 -49.375 -2.1328125 C-51.24285156 -2.13112061 -51.24285156 -2.13112061 -53.1484375 -2.12939453 C-55.89905431 -2.32572127 -55.89905431 -2.32572127 -57 -1 C-59.1216622 -0.81173983 -61.24800345 -0.67553995 -63.375 -0.5625 C-68.8805207 -0.21560744 -74.11094538 0.50968908 -79.51171875 1.58984375 C-83.05793086 2.17438421 -86.41405134 2.13531882 -90 2 C-87.21020343 0.48658869 -84.69423398 -0.41316452 -81.5859375 -1.03515625 C-80.31943359 -1.28942383 -80.31943359 -1.28942383 -79.02734375 -1.54882812 C-78.15207031 -1.71833984 -77.27679688 -1.88785156 -76.375 -2.0625 C-75.52292969 -2.23587891 -74.67085937 -2.40925781 -73.79296875 -2.58789062 C-53.10705672 -6.67187174 -19.20515778 -10.44566646 0 0 Z " fill="#EE99A5" transform="translate(291,12)"/>
<path d="M0 0 C4.66413754 0.65334222 8.66275116 2.49503268 12.875 4.5 C13.61226318 4.84804688 14.34952637 5.19609375 15.10913086 5.5546875 C22.70407165 9.21544734 29.86867398 13.51567272 37 18 C36.34 18.66 35.68 19.32 35 20 C33.865625 19.443125 32.73125 18.88625 31.5625 18.3125 C20.63952162 13.45401435 8.5919812 10.74723254 -3 8 C-3 7.67 -3 7.34 -3 7 C-1.35 7 0.3 7 2 7 C2 5.02 2 3.04 2 1 C1.34 0.67 0.68 0.34 0 0 Z " fill="#F95065" transform="translate(317,20)"/>
<path d="M0 0 C3.98352168 -0.04987075 7.9669195 -0.08593964 11.95068359 -0.10986328 C13.96328119 -0.12472879 15.97579188 -0.150157 17.98828125 -0.17578125 C24.7603919 -0.20981196 30.51658024 0.09968731 37 2 C39.98932611 2.47938259 42.98974447 2.80675808 46 3.125 C46.77472656 3.21136719 47.54945313 3.29773437 48.34765625 3.38671875 C50.23123721 3.59600552 52.11554808 3.79870627 54 4 C54 4.66 54 5.32 54 6 C54.825 5.9175 55.65 5.835 56.5 5.75 C60.41201269 6.02942948 62.46096272 7.13779785 65.83203125 8.9765625 C69.39166157 10.65696456 73.14254376 11.32137344 77 12 C77 12.99 77 13.98 77 15 C75.66623011 14.60564015 74.33303387 14.20934067 73 13.8125 C72.07703125 13.53921875 71.1540625 13.2659375 70.203125 12.984375 C67.97376148 12.29925353 65.75542457 11.57763277 63.546875 10.828125 C36.23568617 1.6092494 9.58831369 0.98244652 -18.59130859 6.54248047 C-21.71720529 7.13622975 -24.84579056 7.58554648 -28 8 C-27.67 7.34 -27.34 6.68 -27 6 C-25.35 6 -23.7 6 -22 6 C-22 5.34 -22 4.68 -22 4 C-19.45887768 3.66198848 -16.91723254 3.32946621 -14.375 3 C-13.66214844 2.90460937 -12.94929687 2.80921875 -12.21484375 2.7109375 C-8.11178391 2.18393899 -4.14754258 1.89533016 0 2 C0 1.34 0 0.68 0 0 Z " fill="#DD4765" transform="translate(235,45)"/>
<path d="M0 0 C0.33 0 0.66 0 1 0 C3.56397047 12.4230474 4.30971943 24.60432738 4.3125 37.25 C4.31572266 37.95944763 4.31894531 38.66889526 4.32226562 39.39984131 C4.35090952 49.74058665 3.4986997 59.77075257 2 70 C1.67 70 1.34 70 1 70 C1.00523682 69.02466309 1.01047363 68.04932617 1.01586914 67.04443359 C1.35753813 34.83402556 1.35753813 34.83402556 -0.9140625 2.73046875 C-0.94242187 2.15941406 -0.97078125 1.58835938 -1 1 C-0.67 0.67 -0.34 0.34 0 0 Z " fill="#EB5470" transform="translate(434,158)"/>
<path d="M0 0 C4.95 0.33 9.9 0.66 15 1 C15 1.66 15 2.32 15 3 C22.26 3.66 29.52 4.32 37 5 C37 5.66 37 6.32 37 7 C57.48441313 7.61651951 57.48441313 7.61651951 77 3 C78.70702735 2.93003986 80.41668003 2.91559846 82.125 2.9375 C83.03507812 2.94652344 83.94515625 2.95554688 84.8828125 2.96484375 C85.93082031 2.98224609 85.93082031 2.98224609 87 3 C68.90641421 14.00932469 34.62510779 9.76328235 15 5 C9.96790406 3.77306946 4.97442998 2.44537272 0 1 C0 0.67 0 0.34 0 0 Z " fill="#767164" transform="translate(201,242)"/>
<path d="M0 0 C0 3.65351863 -0.88942301 5.06026776 -3 8 C-4.32520503 8.68268138 -5.65812182 9.3507041 -7 10 C-8.26804566 12.0335948 -8.26804566 12.0335948 -9 14 C-9.66 14 -10.32 14 -11 14 C-11 15.98 -11 17.96 -11 20 C-12.98 20.99 -12.98 20.99 -15 22 C-15 22.66 -15 23.32 -15 24 C-15.886875 24.495 -16.77375 24.99 -17.6875 25.5 C-21.71239336 27.97758766 -23.0230507 31.62798498 -24.82421875 35.85546875 C-26 38 -26 38 -29 39 C-23.86968999 24.75520305 -13.52487252 13.50035126 -3 3 C-2.44304443 2.4428833 -1.88608887 1.8857666 -1.31225586 1.31176758 C-0.87921143 0.87888428 -0.44616699 0.44600098 0 0 Z " fill="#EBD7E7" transform="translate(148,87)"/>
<path d="M0 0 C0.495 1.485 0.495 1.485 1 3 C0.01 3.66 -0.98 4.32 -2 5 C-2.309375 5.66 -2.61875 6.32 -2.9375 7 C-4.26245757 9.49403778 -5.52815395 9.76407698 -8 11 C-8.29519531 11.61875 -8.59039062 12.2375 -8.89453125 12.875 C-11.83828466 18.53366379 -19.47553403 22.18360558 -25 25 C-25.99 25 -26.98 25 -28 25 C-28.99 27.475 -28.99 27.475 -30 30 C-31.32 29.67 -32.64 29.34 -34 29 C-34 29.66 -34 30.32 -34 31 C-35.65 31 -37.3 31 -39 31 C-36.52251118 28.3738338 -33.86510574 26.63267141 -30.75732422 24.79003906 C-19.18982186 17.9297652 -9.41504606 9.55641312 0 0 Z " fill="#EB3757" transform="translate(359,296)"/>
<path d="M0 0 C0.33 0 0.66 0 1 0 C1 18.81 1 37.62 1 57 C0.34 57 -0.32 57 -1 57 C-2.06927733 49.35252854 -2.18617216 41.75593432 -2.18530273 34.04589844 C-2.18747451 31.90018413 -2.20564554 29.75499786 -2.22460938 27.609375 C-2.26132583 18.23820686 -1.4841941 9.25834395 0 0 Z " fill="#F08592" transform="translate(64,164)"/>
<path d="M0 0 C2.06277107 0.14194764 4.12521031 0.28872216 6.1875 0.4375 C7.91033203 0.55931641 7.91033203 0.55931641 9.66796875 0.68359375 C13 1 13 1 15.14453125 1.51367188 C19.1145274 2.18982033 23.00005298 2.12273349 27.01953125 2.09765625 C27.87810226 2.0962413 28.73667328 2.09482635 29.6212616 2.09336853 C32.35171049 2.08779057 35.08207607 2.07524214 37.8125 2.0625 C39.6686186 2.05748215 41.5247385 2.05291974 43.38085938 2.04882812 C47.9206048 2.03782836 52.4602883 2.02057893 57 2 C57 2.33 57 2.66 57 3 C55.02 3 53.04 3 51 3 C51 3.66 51 4.32 51 5 C46.30436582 5.02488717 41.60877081 5.04294796 36.91308594 5.05493164 C35.31867808 5.05993231 33.72427475 5.06673501 32.12988281 5.07543945 C29.82616046 5.0876933 27.52249922 5.0932711 25.21875 5.09765625 C24.16512268 5.10539818 24.16512268 5.10539818 23.09020996 5.11329651 C18.31279059 5.11382708 13.73121306 4.67025518 9 4 C9 3.34 9 2.68 9 2 C6.03 1.67 3.06 1.34 0 1 C0 0.67 0 0.34 0 0 Z " fill="#FCEFCC" transform="translate(215,278)"/>
<path d="M0 0 C4.59604416 0.52482544 9.04809149 1.20549305 13.57861328 2.15527344 C32.52332956 5.92523129 52.83844918 4.71413234 72 3 C68.26764394 4.93052899 65.17509916 6.12264456 60.95019531 6.14526367 C60.13794495 6.15164352 59.32569458 6.15802338 58.48883057 6.16459656 C57.61079773 6.16570938 56.73276489 6.1668222 55.828125 6.16796875 C54.91351501 6.17129715 53.99890503 6.17462555 53.05657959 6.17805481 C51.11308291 6.18312299 49.1695775 6.18546317 47.22607422 6.18530273 C44.30290539 6.18746094 41.38013185 6.20553814 38.45703125 6.22460938 C25.30809326 6.2651648 12.68104945 5.81733645 0 2 C0 1.34 0 0.68 0 0 Z " fill="#E9C155" transform="translate(208,245)"/>
<path d="M0 0 C0.33 0 0.66 0 1 0 C1.20100772 12.6858203 0.58707468 25.33105335 0 38 C-0.66 38 -1.32 38 -2 38 C-3.10582012 33.53248672 -3.1918592 29.13820216 -3.1875 24.5625 C-3.18741943 23.77496338 -3.18733887 22.98742676 -3.18725586 22.17602539 C-3.00336869 3.00336869 -3.00336869 3.00336869 0 0 Z " fill="#E74666" transform="translate(102,170)"/>
<path d="M0 0 C0.33 0 0.66 0 1 0 C1.02509621 4.31925092 1.04304322 8.63846094 1.05493164 12.95776367 C1.05989824 14.42098736 1.06667378 15.88420625 1.07543945 17.34741211 C1.2211129 42.32612333 1.2211129 42.32612333 -2.0625 52.8125 C-2.42472656 53.99457031 -2.78695313 55.17664063 -3.16015625 56.39453125 C-3.43730469 57.25433594 -3.71445312 58.11414063 -4 59 C-5.01936725 55.94189824 -5.00186825 54.50198793 -4.625 51.375 C-4.53476562 50.57835937 -4.44453125 49.78171875 -4.3515625 48.9609375 C-4 47 -4 47 -3 46 C-2.78964095 43.87887958 -2.63149899 41.75246581 -2.5 39.625 C-2.28419953 36.14907092 -2.1024508 33.3073524 -1 30 C-0.84854901 27.7174301 -0.75113021 25.43112294 -0.68359375 23.14453125 C-0.66281265 22.48289474 -0.64203156 21.82125824 -0.62062073 21.13957214 C-0.55535273 19.03065148 -0.49634656 16.92160865 -0.4375 14.8125 C-0.39429311 13.38084685 -0.35067812 11.94920596 -0.30664062 10.51757812 C-0.19969494 7.01184846 -0.09836359 3.50598214 0 0 Z " fill="#FDD9E8" transform="translate(397,179)"/>
<path d="M0 0 C1 2 1 2 0.44140625 4.1640625 C0.15136719 4.97617188 -0.13867188 5.78828125 -0.4375 6.625 C-0.72496094 7.44226563 -1.01242188 8.25953125 -1.30859375 9.1015625 C-1.53675781 9.72804688 -1.76492187 10.35453125 -2 11 C-2.66 11 -3.32 11 -4 11 C-4.33 12.32 -4.66 13.64 -5 15 C-4.34 15 -3.68 15 -3 15 C-3 15.66 -3 16.32 -3 17 C-3.66 17 -4.32 17 -5 17 C-5.11472656 17.58265625 -5.22945313 18.1653125 -5.34765625 18.765625 C-6.04824062 21.16523135 -6.98192595 22.72860933 -8.4375 24.75 C-8.86933594 25.36359375 -9.30117187 25.9771875 -9.74609375 26.609375 C-10.15988281 27.06828125 -10.57367188 27.5271875 -11 28 C-11.66 28 -12.32 28 -13 28 C-10.20869368 18.2304279 -5.64008349 8.46012524 0 0 Z " fill="#EB6071" transform="translate(90,95)"/>
<path d="M0 0 C5.76471999 -0.10481309 11.2852729 0.26708873 17 1 C17.77472656 1.09539063 18.54945313 1.19078125 19.34765625 1.2890625 C21.23230746 1.52173549 23.11623622 1.76024825 25 2 C25 2.66 25 3.32 25 4 C25.825 3.9175 26.65 3.835 27.5 3.75 C31.41201269 4.02942948 33.46096272 5.13779785 36.83203125 6.9765625 C40.39166157 8.65696456 44.14254376 9.32137344 48 10 C48 10.99 48 11.98 48 13 C46.66623011 12.60564015 45.33303387 12.20934067 44 11.8125 C43.07703125 11.53921875 42.1540625 11.2659375 41.203125 10.984375 C38.97376148 10.29925353 36.75542457 9.57763277 34.546875 8.828125 C23.23592846 5.02315585 11.76379507 2.9177979 0 1 C0 0.67 0 0.34 0 0 Z " fill="#E14D6D" transform="translate(264,47)"/>
<path d="M0 0 C-0.33 0.99 -0.66 1.98 -1 3 C-1.88300781 3.04898437 -2.76601562 3.09796875 -3.67578125 3.1484375 C-10.41564106 3.56832135 -16.89301617 4.26610323 -23.51171875 5.58984375 C-27.05793086 6.17438421 -30.41405134 6.13531882 -34 6 C-29.62616355 3.63285147 -25.21670912 2.83763731 -20.375 1.875 C-19.09689453 1.60236328 -19.09689453 1.60236328 -17.79296875 1.32421875 C-11.79659102 0.11768586 -6.10911787 -0.22092979 0 0 Z " fill="#ED94A0" transform="translate(235,8)"/>
<path d="M0 0 C0.99 0.33 1.98 0.66 3 1 C3 3.97 3 6.94 3 10 C3.66 10 4.32 10 5 10 C5 23.53 5 37.06 5 51 C4.67 51 4.34 51 4 51 C3.98541748 50.14470703 3.97083496 49.28941406 3.95581055 48.40820312 C3.74589976 27.45605479 3.74589976 27.45605479 0.62109375 6.80078125 C0 4 0 4 0 0 Z " fill="#ED5F7B" transform="translate(394,159)"/>
<path d="M0 0 C0.33 0 0.66 0 1 0 C1.01981934 0.8564209 1.03963867 1.7128418 1.06005859 2.59521484 C1.13887508 5.81972342 1.22558633 9.04390321 1.31738281 12.26806641 C1.35530245 13.65470413 1.39021453 15.0414279 1.421875 16.42822266 C0.78419175 29.52329782 0.78419175 29.52329782 5 41 C5.33333333 43.33333333 5.66666667 45.66666667 6 48 C6.33 48.33 6.66 48.66 7 49 C7.04092937 51.33297433 7.04241723 53.66705225 7 56 C5.50659105 53.1805469 4.41550132 50.42998809 3.5 47.375 C3.2628125 46.59898437 3.025625 45.82296875 2.78125 45.0234375 C2.39453125 43.52683594 2.39453125 43.52683594 2 42 C1.82355957 41.34628418 1.64711914 40.69256836 1.46533203 40.01904297 C-0.47572455 31.86454219 -0.2229241 23.69485343 -0.125 15.375 C-0.11494608 13.87891227 -0.10582451 12.38281797 -0.09765625 10.88671875 C-0.07584308 7.25767374 -0.04144741 3.62888015 0 0 Z " fill="#F2C2D5" transform="translate(102,184)"/>
<path d="M0 0 C0.33 0 0.66 0 1 0 C1.89271896 25.45902216 1.89271896 25.45902216 -5 34 C-5.71433121 36.64934822 -5.71433121 36.64934822 -6 39 C-6.66 39 -7.32 39 -8 39 C-8.33 40.32 -8.66 41.64 -9 43 C-10 41 -10 41 -9.328125 38.71484375 C-8.97234375 37.79832031 -8.6165625 36.88179687 -8.25 35.9375 C-7.87617188 34.95007813 -7.50234375 33.96265625 -7.1171875 32.9453125 C-6.74851562 31.97335938 -6.37984375 31.00140625 -6 30 C-2.42429317 19.91715102 -0.61991194 10.70163766 0 0 Z " fill="#E33D5E" transform="translate(397,211)"/>
<path d="M0 0 C0.56847656 0.08378906 1.13695312 0.16757813 1.72265625 0.25390625 C6.76635545 0.91910197 11.00294069 0.9568837 16 0 C12.983511 2.4993639 10.2075191 3.80806341 6.5 5.04296875 C5.448125 5.39423828 4.39625 5.74550781 3.3125 6.10742188 C2.219375 6.46384766 1.12625 6.82027344 0 7.1875 C-1.093125 7.55552734 -2.18625 7.92355469 -3.3125 8.30273438 C-11.47935993 11 -11.47935993 11 -16 11 C-16 10.34 -16 9.68 -16 9 C-15.34773438 8.89042969 -14.69546875 8.78085938 -14.0234375 8.66796875 C-8.8802377 7.73491038 -4.58100221 6.65215917 0 4 C0 2.68 0 1.36 0 0 Z " fill="#71706D" transform="translate(304,234)"/>
<path d="M0 0 C0.98120464 3.05263664 0.98120464 4.94736336 0 8 C-0.66 8 -1.32 8 -2 8 C-2 8.99 -2 9.98 -2 11 C-2.66 11 -3.32 11 -4 11 C-4.33 12.98 -4.66 14.96 -5 17 C-5.66 17 -6.32 17 -7 17 C-7.4021875 17.86625 -7.4021875 17.86625 -7.8125 18.75 C-9.0388622 21.07363365 -10.24843434 23.03824646 -12 25 C-12.99 25 -13.98 25 -15 25 C-12.84427789 20.20138693 -9.6802159 15.98917287 -6.72070312 11.6640625 C-4.16812807 7.89035988 -1.94086208 4.13794358 0 0 Z " fill="#E43F5E" transform="translate(381,264)"/>
<path d="M0 0 C0.66 0 1.32 0 2 0 C1.67 0.99 1.34 1.98 1 3 C0.88390641 4.82465899 0.82343471 6.65307886 0.79467773 8.48120117 C0.77473251 9.60213669 0.75478729 10.7230722 0.73423767 11.87797546 C0.71752518 13.08742325 0.70081268 14.29687103 0.68359375 15.54296875 C0.66281265 16.78170242 0.64203156 18.0204361 0.62062073 19.29670715 C0.56628203 22.58625256 0.51604049 25.87582726 0.46777344 29.16546631 C0.41749354 32.52377814 0.36184139 35.88200046 0.30664062 39.24023438 C0.19946952 45.82675159 0.09769865 52.41333584 0 59 C-0.33 59 -0.66 59 -1 59 C-1.02312851 51.45501767 -1.04091769 43.91003899 -1.05181217 36.36502934 C-1.05703989 32.86191115 -1.0641355 29.35881715 -1.07543945 25.85571289 C-1.08834206 21.83219159 -1.09322912 17.80869586 -1.09765625 13.78515625 C-1.10539818 11.88987938 -1.10539818 11.88987938 -1.11329651 9.95631409 C-1.11337204 8.795186 -1.11344757 7.63405792 -1.11352539 6.43774414 C-1.11685631 4.8955294 -1.11685631 4.8955294 -1.12025452 3.32215881 C-1 1 -1 1 0 0 Z " fill="#C5CADA" transform="translate(321,177)"/>
<path d="M0 0 C0.68707555 2.49064888 1 4.37886292 1 7 C-1.07366654 10.49249101 -3.47929022 12.07199226 -7 14 C-7.928125 14.556875 -8.85625 15.11375 -9.8125 15.6875 C-10.534375 16.120625 -11.25625 16.55375 -12 17 C-10.69333699 12.35408706 -7.93996967 9.43992373 -4.75390625 5.96484375 C-3.0454638 4.0509316 -1.50959234 2.07280416 0 0 Z " fill="#F2697C" transform="translate(105,75)"/>
<path d="M0 0 C1.32 0.33 2.64 0.66 4 1 C4 1.66 4 2.32 4 3 C4.66 3 5.32 3 6 3 C6.4125 4.11375 6.825 5.2275 7.25 6.375 C8.49544958 9.37631898 8.49544958 9.37631898 11.125 11.25 C11.74375 11.4975 12.3625 11.745 13 12 C13.33 12.99 13.66 13.98 14 15 C16.00016466 16.20882096 16.00016466 16.20882096 18 17 C18 18.65 18 20.3 18 22 C12.89297335 18.14135764 9.00206753 13.75195858 5.0625 8.75 C4.56580811 8.12335449 4.06911621 7.49670898 3.55737305 6.85107422 C0 2.25750672 0 2.25750672 0 0 Z " fill="#EF8C9A" transform="translate(97,304)"/>
<path d="M0 0 C0.66 0.33 1.32 0.66 2 1 C-9.33712984 7.88838269 -9.33712984 7.88838269 -16 7 C-16 7.66 -16 8.32 -16 9 C-17.6396875 9.2165625 -17.6396875 9.2165625 -19.3125 9.4375 C-22.93122987 9.88288104 -22.93122987 9.88288104 -26 11 C-28.1875 10.0625 -28.1875 10.0625 -30 9 C-29.37544922 8.83395264 -28.75089844 8.66790527 -28.10742188 8.49682617 C-25.23715829 7.73119239 -22.36858696 6.95939077 -19.5 6.1875 C-18.51773437 5.92646484 -17.53546875 5.66542969 -16.5234375 5.39648438 C-12.05936167 4.1911839 -7.70635976 2.94607801 -3.40625 1.23828125 C-1.72015625 0.62533203 -1.72015625 0.62533203 0 0 Z " fill="#D7B353" transform="translate(310,238)"/>
<path d="M0 0 C4.24412552 1.21260729 8.00698316 2.30599285 12 4 C8.05979642 5.26086514 5.52419701 5 1 5 C1.33 13.58 1.66 22.16 2 31 C1.34 31 0.68 31 0 31 C0 20.77 0 10.54 0 0 Z " fill="#ECD777" transform="translate(180,235)"/>
<path d="M0 0 C3.48821099 3.48821099 2.61395205 8.63286914 2.8125 13.375 C2.87630859 14.42945313 2.94011719 15.48390625 3.00585938 16.5703125 C3.05162109 17.58609375 3.09738281 18.601875 3.14453125 19.6484375 C3.18940674 20.57833496 3.23428223 21.50823242 3.28051758 22.46630859 C3 25 3 25 0 29 C0 19.43 0 9.86 0 0 Z " fill="#F8EFD1" transform="translate(320,236)"/>
<path d="M0 0 C0 0.66 0 1.32 0 2 C-4.873261 3.5912689 -8.80790596 4.21192221 -14 4 C-14 4.66 -14 5.32 -14 6 C-14.598125 6.268125 -15.19625 6.53625 -15.8125 6.8125 C-17.97224808 7.98493467 -19.35790256 9.19369282 -21 11 C-21 10.34 -21 9.68 -21 9 C-23.31 9 -25.62 9 -28 9 C-20.21133347 3.80755565 -9.41037793 0 0 0 Z " fill="#F5D2E3" transform="translate(218,51)"/>
<path d="M0 0 C0.99 0 1.98 0 3 0 C3.66 1.32 4.32 2.64 5 4 C5.99 3.34 6.98 2.68 8 2 C9.5625 3.6875 9.5625 3.6875 11 6 C10.6875 8.75 10.6875 8.75 10 11 C7.67578125 10.81640625 7.67578125 10.81640625 5 10 C3.41796875 7.71484375 3.41796875 7.71484375 2.1875 4.9375 C1.76855469 4.01839844 1.34960938 3.09929687 0.91796875 2.15234375 C0.61503906 1.44207031 0.31210938 0.73179687 0 0 Z " fill="#E7E5F2" transform="translate(121,268)"/>
<path d="M0 0 C0.66 0.99 1.32 1.98 2 3 C0.37660195 4.70884005 -1.29319053 6.37446717 -3 8 C-3.66 8 -4.32 8 -5 8 C-5 8.66 -5 9.32 -5 10 C-7.77972485 13.01136859 -10.64911741 15.64197151 -14 18 C-14.66 17.67 -15.32 17.34 -16 17 C-10.82296052 11.16555868 -5.59719124 5.43521465 0 0 Z " fill="#EE7A8A" transform="translate(122,57)"/>
<path d="M0 0 C1.90318884 2.85478326 2.4619099 4.41941308 3.125 7.6875 C3.29257813 8.49574219 3.46015625 9.30398438 3.6328125 10.13671875 C3.75398437 10.75160156 3.87515625 11.36648438 4 12 C2.68 12.99 1.36 13.98 0 15 C-0.33 13.35 -0.66 11.7 -1 10 C-1.99 9.67 -2.98 9.34 -4 9 C-3.67 7.68 -3.34 6.36 -3 5 C-2.67 5.33 -2.34 5.66 -2 6 C-1.34 4.02 -0.68 2.04 0 0 Z " fill="#DFF1FC" transform="translate(125,258)"/>
<path d="M0 0 C-2.68373167 1.78915445 -4.00441407 2.39381054 -7.01953125 3.0703125 C-8.18258789 3.33134766 -8.18258789 3.33134766 -9.36914062 3.59765625 C-10.17544922 3.77167969 -10.98175781 3.94570313 -11.8125 4.125 C-13.00456055 4.39763672 -13.00456055 4.39763672 -14.22070312 4.67578125 C-18.56031257 5.63056712 -22.5269231 6.21609067 -27 6 C-27 5.34 -27 4.68 -27 4 C-25.0509375 3.8453125 -25.0509375 3.8453125 -23.0625 3.6875 C-19.64390079 3.32370541 -16.71669317 2.6402142 -13.5 1.4375 C-8.85584868 -0.24979307 -4.91454543 -0.23402597 0 0 Z " fill="#FDD2DF" transform="translate(293,337)"/>
<path d="M0 0 C0.33 0 0.66 0 1 0 C1 1.65 1 3.3 1 5 C1.66 5 2.32 5 3 5 C3.66 8.63 4.32 12.26 5 16 C5.33 16 5.66 16 6 16 C7.5912689 20.873261 8.21192221 24.80790596 8 30 C5.23004502 25.84506753 4.22996245 21.46228393 2.875 16.6875 C2.59785156 15.74970703 2.32070312 14.81191406 2.03515625 13.84570312 C0.6840075 9.12333839 -0.38260841 4.96559175 0 0 Z " fill="#EA7D8C" transform="translate(65,227)"/>
<path d="M0 0 C1.07310858 3.27185553 0.89263102 5.42947592 0.0625 8.75 C-0.13214844 9.54921875 -0.32679687 10.3484375 -0.52734375 11.171875 C-0.68332031 11.77515625 -0.83929688 12.3784375 -1 13 C-1.66 13 -2.32 13 -3 13 C-4.017812 16.84804363 -4.65552063 20.73564748 -5.3046875 24.66015625 C-6.07027797 27.23649721 -6.96035029 28.30029191 -9 30 C-8.37641443 23.73816161 -6.5397388 18.12240265 -4.5 12.1875 C-4.17902344 11.23423828 -3.85804687 10.28097656 -3.52734375 9.29882812 C-1.16976305 2.3395261 -1.16976305 2.3395261 0 0 Z " fill="#E77C8B" transform="translate(76,123)"/>
<path d="M0 0 C0.99 0.66 1.98 1.32 3 2 C1.60121198 6.46797338 -0.13630772 10.63822079 -2.125 14.875 C-2.66382813 16.02742188 -3.20265625 17.17984375 -3.7578125 18.3671875 C-4.16773438 19.23601562 -4.57765625 20.10484375 -5 21 C-5.33 21 -5.66 21 -6 21 C-6 19.02 -6 17.04 -6 15 C-5.34 15 -4.68 15 -4 15 C-3.896875 13.824375 -3.79375 12.64875 -3.6875 11.4375 C-3.17085042 7.17514097 -1.8491639 3.85912466 0 0 Z " fill="#ED5572" transform="translate(281,452)"/>
<path d="M0 0 C0.33 0.66 0.66 1.32 1 2 C0.34 2 -0.32 2 -1 2 C-1.33 2.99 -1.66 3.98 -2 5 C-5 7 -5 7 -8 7 C-8.66 8.65 -9.32 10.3 -10 12 C-11.32 11.67 -12.64 11.34 -14 11 C-14 11.66 -14 12.32 -14 13 C-15.65 13 -17.3 13 -19 13 C-16.90585727 10.76983718 -14.80888958 9.12227598 -12.20703125 7.51953125 C-11.49482422 7.07802734 -10.78261719 6.63652344 -10.04882812 6.18164062 C-9.31083984 5.72982422 -8.57285156 5.27800781 -7.8125 4.8125 C-7.06291016 4.34908203 -6.31332031 3.88566406 -5.54101562 3.40820312 C-3.69627633 2.26845974 -1.84843711 1.13373645 0 0 Z " fill="#E64565" transform="translate(339,314)"/>
<path d="M0 0 C0.52464844 0.15855469 1.04929688 0.31710937 1.58984375 0.48046875 C10.04789161 3.02773441 18.52427778 5.51234603 27 8 C27 8.33 27 8.66 27 9 C18.14010244 8.80110434 10.01239914 6.77182327 2 3 C1.34 2.01 0.68 1.02 0 0 Z " fill="#FBEECE" transform="translate(187,269)"/>
<path d="M0 0 C1.32 0.33 2.64 0.66 4 1 C2.60121198 5.46797338 0.86369228 9.63822079 -1.125 13.875 C-1.66382813 15.02742188 -2.20265625 16.17984375 -2.7578125 17.3671875 C-3.16773438 18.23601562 -3.57765625 19.10484375 -4 20 C-5 17 -5 17 -4 14 C-4.99 13.67 -5.98 13.34 -7 13 C-5.68 12.67 -4.36 12.34 -3 12 C-2.67 10.35 -2.34 8.7 -2 7 C-1.34 7 -0.68 7 0 7 C0 4.69 0 2.38 0 0 Z " fill="#E43658" transform="translate(297,415)"/>
<path d="M0 0 C0.66 0.66 1.32 1.32 2 2 C0.02546836 4.33729134 -1.95537469 6.66914662 -3.9375 9 C-4.50146484 9.66773438 -5.06542969 10.33546875 -5.64648438 11.0234375 C-6.18466797 11.65507812 -6.72285156 12.28671875 -7.27734375 12.9375 C-7.77484131 13.52402344 -8.27233887 14.11054688 -8.78491211 14.71484375 C-9.18589111 15.13894531 -9.58687012 15.56304687 -10 16 C-10.33 16 -10.66 16 -11 16 C-11 14.35 -11 12.7 -11 11 C-10.34 10.67 -9.68 10.34 -9 10 C-8.67 9.01 -8.34 8.02 -8 7 C-7.360625 6.87625 -6.72125 6.7525 -6.0625 6.625 C-5.381875 6.41875 -4.70125 6.2125 -4 6 C-2.84478498 3.52869082 -2.84478498 3.52869082 -2 1 C-1.34 0.67 -0.68 0.34 0 0 Z " fill="#FDDFEC" transform="translate(367,283)"/>
<path d="M0 0 C0 10.23 0 20.46 0 31 C-2.97 32.485 -2.97 32.485 -6 34 C-6.66 33.67 -7.32 33.34 -8 33 C-6.515 32.505 -6.515 32.505 -5 32 C-5 31.34 -5 30.68 -5 30 C-3.68 30 -2.36 30 -1 30 C-1 20.76 -1 11.52 -1 2 C-1.99 1.67 -2.98 1.34 -4 1 C-2 0 -2 0 0 0 Z " fill="#EFC657" transform="translate(320,235)"/>
<path d="M0 0 C6.27554803 5.53724826 10.86357724 12.8815935 13 21 C12.01 21 11.02 21 10 21 C9.67 20.01 9.34 19.02 9 18 C8.525625 17.5875 8.05125 17.175 7.5625 16.75 C6 15 6 15 5.0625 11.6875 C3.94735486 7.8172904 2.28694047 5.277948 0 2 C0 1.34 0 0.68 0 0 Z " fill="#F07D92" transform="translate(403,86)"/>
<path d="M0 0 C0.93423645 3.01031744 1.04449911 3.86650268 0 7 C0.66 7 1.32 7 2 7 C2.33 7.99 2.66 8.98 3 10 C-2.67853635 8.58036591 -6.53174216 5.60636039 -11 2 C-8.45297384 0.72648692 -7.5717055 1.19808075 -4.875 1.9375 C-4.15054688 2.13214844 -3.42609375 2.32679688 -2.6796875 2.52734375 C-2.12539062 2.68332031 -1.57109375 2.83929688 -1 3 C-0.67 2.01 -0.34 1.02 0 0 Z " fill="#F9E5F0" transform="translate(174,314)"/>
<path d="M0 0 C4.71370756 0.64985095 8.57686444 2.51561392 12.8125 4.5625 C13.50537109 4.89185547 14.19824219 5.22121094 14.91210938 5.56054688 C16.61044948 6.36872251 18.30555769 7.18368377 20 8 C20 8.33 20 8.66 20 9 C18.35 9 16.7 9 15 9 C15 8.34 15 7.68 15 7 C14.22914063 6.93941406 13.45828125 6.87882812 12.6640625 6.81640625 C11.15972656 6.69072266 11.15972656 6.69072266 9.625 6.5625 C8.62726563 6.48128906 7.62953125 6.40007813 6.6015625 6.31640625 C4 6 4 6 2 5 C2 3.68 2 2.36 2 1 C1.34 0.67 0.68 0.34 0 0 Z " fill="#E98492" transform="translate(317,20)"/>
<path d="M0 0 C0.99 0.33 1.98 0.66 3 1 C3 1.99 3 2.98 3 4 C4.32 4.66 5.64 5.32 7 6 C7 7.98 7 9.96 7 12 C7.66 12 8.32 12 9 12 C8.67 13.98 8.34 15.96 8 18 C5.1398269 15.1398269 4.22254523 11.60815162 2.875 7.875 C2.59785156 7.12089844 2.32070312 6.36679687 2.03515625 5.58984375 C1.35183 3.72836879 0.67526611 1.86441398 0 0 Z " fill="#EB7787" transform="translate(204,427)"/>
<path d="M0 0 C0.433125 0.598125 0.86625 1.19625 1.3125 1.8125 C2.89625381 3.99065003 2.89625381 3.99065003 4.6875 5.5625 C6 7 6 7 6 10 C6.66 10 7.32 10 8 10 C9.80230168 13.82989106 10.19622241 16.78121808 10 21 C7.22120716 17.58849741 5.26245731 13.85776908 3.3125 9.9375 C2.99216797 9.31294922 2.67183594 8.68839844 2.34179688 8.04492188 C0.90158647 5.16757188 0 3.26167037 0 0 Z " fill="#F297A4" transform="translate(213,447)"/>
<path d="M0 0 C1.32 0 2.64 0 4 0 C4.33 0.66 4.66 1.32 5 2 C6.97888961 2.72693904 8.97954558 3.39816251 11 4 C10.67 5.32 10.34 6.64 10 8 C9.505 7.731875 9.01 7.46375 8.5 7.1875 C5.0763054 5.56124507 1.55867715 4.30484829 -2 3 C-1.34 2.01 -0.68 1.02 0 0 Z " fill="#DCF2FC" transform="translate(328,73)"/>
<path d="M0 0 C-0.97839844 0.31453125 -1.95679688 0.6290625 -2.96484375 0.953125 C-9.60992996 3.11530056 -16.09365269 5.26959429 -22.36328125 8.3984375 C-22.90339844 8.59695312 -23.44351563 8.79546875 -24 9 C-24.66 8.67 -25.32 8.34 -26 8 C-26 7.34 -26 6.68 -26 6 C-22.42211911 4.79561349 -18.83698135 3.61447826 -15.25 2.4375 C-14.23421875 2.09525391 -13.2184375 1.75300781 -12.171875 1.40039062 C-11.1921875 1.08134766 -10.2125 0.76230469 -9.203125 0.43359375 C-8.30239258 0.13509521 -7.40166016 -0.16340332 -6.47363281 -0.47094727 C-3.88194396 -1.02524945 -2.47168427 -0.87013375 0 0 Z " fill="#F12F4C" transform="translate(230,29)"/>
<path d="M0 0 C1.02120344 2.65512895 1.05826634 3.82936287 0.125 6.5625 C-1.42928398 11.31170106 -1.66429108 16.03504172 -2 21 C-2.66 21 -3.32 21 -4 21 C-4.33 23.97 -4.66 26.94 -5 30 C-5.33 30 -5.66 30 -6 30 C-6.17365139 24.87728392 -5.95253508 21.75840031 -4 17 C-3.62193198 15.19630049 -3.28914618 13.38257193 -3 11.5625 C-2.31688481 7.55055364 -1.4454103 3.82001295 0 0 Z " fill="#F1ACC2" transform="translate(109,146)"/>
<path d="M0 0 C1.65 0.33 3.3 0.66 5 1 C1.42030314 5.88140481 -1.18702545 8.16998949 -7 10 C-7.99 9.67 -8.98 9.34 -10 9 C-9.67 8.34 -9.34 7.68 -9 7 C-7.68 7 -6.36 7 -5 7 C-5 6.34 -5 5.68 -5 5 C-3.35 5 -1.7 5 0 5 C-0.33 4.01 -0.66 3.02 -1 2 C-0.67 1.67 -0.34 1.34 0 1 C0 0.67 0 0.34 0 0 Z " fill="#ED6E86" transform="translate(265,482)"/>
<path d="M0 0 C0 0.99 0 1.98 0 3 C-6.48549783 6.63187878 -12.73157242 7.29667051 -20 7 C-16.12941013 4.82024676 -11.97647945 3.65937185 -7.75 2.375 C-7.00492187 2.14554687 -6.25984375 1.91609375 -5.4921875 1.6796875 C-3.6624129 1.11667993 -1.83133297 0.55791772 0 0 Z " fill="#DE4363" transform="translate(302,334)"/>
<path d="M0 0 C3.25094199 1.04494564 4.56873286 2.59135491 6.25 5.4375 C8 9 8 9 8 12 C8.99 12.33 9.98 12.66 11 13 C10.34 14.32 9.68 15.64 9 17 C7.49743011 14.35559624 5.9978388 11.70958148 4.5 9.0625 C4.07074219 8.30775391 3.64148438 7.55300781 3.19921875 6.77539062 C2.79316406 6.05673828 2.38710937 5.33808594 1.96875 4.59765625 C1.59169922 3.93258057 1.21464844 3.26750488 0.82617188 2.58227539 C0 1 0 1 0 0 Z " fill="#EC8897" transform="translate(83,282)"/>
<path d="M0 0 C0.66 0 1.32 0 2 0 C2.33773438 1.04800781 2.67546875 2.09601563 3.0234375 3.17578125 C3.47371821 4.55476593 3.92425231 5.93366789 4.375 7.3125 C4.70757812 8.34793945 4.70757812 8.34793945 5.046875 9.40429688 C6.09933391 12.60810562 7.11756127 15.17634191 9 18 C8.625 20.6875 8.625 20.6875 8 23 C5.88336698 18.91621047 4.39448732 14.70808345 2.875 10.375 C2.59785156 9.59898437 2.32070313 8.82296875 2.03515625 8.0234375 C0 2.24880696 0 2.24880696 0 0 Z " fill="#DF3859" transform="translate(387,136)"/>
<path d="M0 0 C0.66 0.33 1.32 0.66 2 1 C0.82713348 10.17286652 0.82713348 10.17286652 -2.625 13.625 C-3.40875 14.07875 -4.1925 14.5325 -5 15 C-5 13.35 -5 11.7 -5 10 C-4.34 10 -3.68 10 -3 10 C-2.67 7.36 -2.34 4.72 -2 2 C-1.34 2 -0.68 2 0 2 C0 1.34 0 0.68 0 0 Z " fill="#E0EFFB" transform="translate(118,130)"/>
<path d="M0 0 C0.99 0.33 1.98 0.66 3 1 C1.66666667 3 0.33333333 5 -1 7 C-2.66666667 7.33333333 -4.33333333 7.66666667 -6 8 C-6.99 9.485 -6.99 9.485 -8 11 C-8.66 11 -9.32 11 -10 11 C-8.65463623 6.5969913 -6.83947688 4.528436 -3 2 C-2.01 2 -1.02 2 0 2 C0 1.34 0 0.68 0 0 Z " fill="#DDF1FA" transform="translate(157,81)"/>
<path d="M0 0 C-1.3554488 4.0663464 -3.26489579 4.13244789 -7 6 C-7.495 6.721875 -7.99 7.44375 -8.5 8.1875 C-9.2425 9.0846875 -9.2425 9.0846875 -10 10 C-13.1875 10.25 -13.1875 10.25 -16 10 C-13.4696646 7.21234235 -10.60660199 5.32536505 -7.4375 3.3125 C-6.46683594 2.68988281 -5.49617187 2.06726562 -4.49609375 1.42578125 C-2 0 -2 0 0 0 Z " fill="#EC788C" transform="translate(153,35)"/>
<path d="M0 0 C1.32 0.99 2.64 1.98 4 3 C1.03 5.97 -1.94 8.94 -5 12 C-5.66 11.67 -6.32 11.34 -7 11 C-7 10.34 -7 9.68 -7 9 C-6.01 9 -5.02 9 -4 9 C-4 7.35 -4 5.7 -4 4 C-2.68 3.67 -1.36 3.34 0 3 C0 2.01 0 1.02 0 0 Z " fill="#EB516F" transform="translate(383,322)"/>
<path d="M0 0 C0.99 0 1.98 0 3 0 C1.45614871 4.14032846 -0.51028938 7.93553053 -2.625 11.8125 C-3.11226563 12.7087207 -3.11226563 12.7087207 -3.609375 13.62304688 C-4.40379151 15.08337135 -5.20155376 16.54187491 -6 18 C-7.125 14.25 -7.125 14.25 -6 12 C-5.34 12 -4.68 12 -4 12 C-3.855625 11.4225 -3.71125 10.845 -3.5625 10.25 C-3.04166667 8.16666667 -2.52083333 6.08333333 -2 4 C-1.34 4 -0.68 4 0 4 C0 2.68 0 1.36 0 0 Z " fill="#FDD9E5" transform="translate(383,255)"/>
<path d="M0 0 C0.66 0.33 1.32 0.66 2 1 C-2.87380422 4.3466789 -7.65288296 7.44796687 -13 10 C-13.9075 10.5775 -14.815 11.155 -15.75 11.75 C-16.86375 12.36875 -16.86375 12.36875 -18 13 C-18.66 12.67 -19.32 12.34 -20 12 C-13.64805578 7.57716476 -7.10512398 3.12139635 0 0 Z " fill="#F3314E" transform="translate(185,43)"/>
<path d="M0 0 C4.04301175 1.48518799 7.61146256 3.42877998 11.3125 5.625 C12.38113281 6.25664063 13.44976562 6.88828125 14.55078125 7.5390625 C15.76314453 8.26222656 15.76314453 8.26222656 17 9 C16.34 9.66 15.68 10.32 15 11 C14.33613281 10.57847656 13.67226563 10.15695313 12.98828125 9.72265625 C12.10527344 9.17480469 11.22226562 8.62695312 10.3125 8.0625 C9.44238281 7.51722656 8.57226562 6.97195312 7.67578125 6.41015625 C5.05375311 5.02832828 2.91689925 4.41519827 0 4 C0 2.68 0 1.36 0 0 Z " fill="#E76E7F" transform="translate(337,29)"/>
<path d="M0 0 C0.99 0.33 1.98 0.66 3 1 C1.68774191 4.93677426 -0.1961394 5.8271782 -3.5625 8.1875 C-4.57441406 8.90292969 -5.58632813 9.61835938 -6.62890625 10.35546875 C-7.41136719 10.89816406 -8.19382812 11.44085938 -9 12 C-9.66 11.01 -10.32 10.02 -11 9 C-9.68 9 -8.36 9 -7 9 C-7.33 7.68 -7.66 6.36 -8 5 C-6.68 5.33 -5.36 5.66 -4 6 C-4 5.34 -4 4.68 -4 4 C-2.68 3.34 -1.36 2.68 0 2 C0 1.34 0 0.68 0 0 Z " fill="#E95B77" transform="translate(366,339)"/>
<path d="M0 0 C-2.41147211 2.41147211 -4.81185673 3.50213043 -7.875 5 C-8.92429688 5.515625 -9.97359375 6.03125 -11.0546875 6.5625 C-12.02664062 7.036875 -12.99859375 7.51125 -14 8 C-15.33420708 8.66491631 -16.66795615 9.33076058 -18 10 C-14.67692308 5.2 -14.67692308 5.2 -11.25 4.1875 C-10.5075 4.125625 -9.765 4.06375 -9 4 C-9 3.01 -9 2.02 -9 1 C-6.04335481 -0.4783226 -3.25770263 -0.06032783 0 0 Z " fill="#E4496A" transform="translate(190,59)"/>
<path d="M0 0 C-2.36537655 2.76733596 -4.39201195 3.66162033 -7.875 4.625 C-8.71804687 4.86476563 -9.56109375 5.10453125 -10.4296875 5.3515625 C-12.94161198 5.98526989 -15.45525283 6.51658925 -18 7 C-14.83918877 4.40416469 -11.64226013 2.82354846 -7.875 1.25 C-6.82054687 0.80140625 -5.76609375 0.3528125 -4.6796875 -0.109375 C-2 -1 -2 -1 0 0 Z " fill="#EE8A97" transform="translate(185,20)"/>
<path d="M0 0 C1.32 0 2.64 0 4 0 C2.26375242 6.4188547 0.14819255 12.13784836 -3 18 C-3.33 17.01 -3.66 16.02 -4 15 C-3.54625 14.13375 -3.0925 13.2675 -2.625 12.375 C-0.62888643 8.22922566 -0.29268398 4.54164793 0 0 Z " fill="#F18199" transform="translate(288,436)"/>
<path d="M0 0 C2.97564884 2.87534607 5.61205381 5.88757233 8.1875 9.125 C9.22970703 10.42824219 9.22970703 10.42824219 10.29296875 11.7578125 C12 14 12 14 13 16 C11.35 16 9.7 16 8 16 C7.4121875 14.4221875 7.4121875 14.4221875 6.8125 12.8125 C5.57618653 9.86436788 4.68201431 8.68201431 2.3125 6.3125 C1.549375 5.549375 0.78625 4.78625 0 4 C0 2.68 0 1.36 0 0 Z " fill="#E24C6F" transform="translate(128,280)"/>
<path d="M0 0 C3.44868587 4.08733141 6.23793154 8.43805907 9 13 C8.01 13.495 8.01 13.495 7 14 C7 13.34 7 12.68 7 12 C5.35 11.67 3.7 11.34 2 11 C2 8.69 2 6.38 2 4 C1.34 4 0.68 4 0 4 C0 2.68 0 1.36 0 0 Z " fill="#FADBE8" transform="translate(370,108)"/>
<path d="M0 0 C0 4.06380322 -1.96539789 6.62503501 -4 10 C-4.75328642 11.31061658 -5.50344821 12.62303559 -6.25 13.9375 C-6.8275 14.948125 -7.405 15.95875 -8 17 C-8.66 17 -9.32 17 -10 17 C-8.51647746 10.73623815 -4.55944809 4.55944809 0 0 Z " fill="#F43350" transform="translate(118,100)"/>
<path d="M0 0 C4.29 0 8.58 0 13 0 C13 0.66 13 1.32 13 2 C14.65 2 16.3 2 18 2 C18 2.33 18 2.66 18 3 C12.23917868 3.12001711 6.68351614 3.0149136 1 2 C0.67 1.34 0.34 0.68 0 0 Z " fill="#7E7765" transform="translate(225,247)"/>
<path d="M0 0 C0.33 0 0.66 0 1 0 C2.42002108 6.7831364 3.22731216 13.06697907 3 20 C2.67 20 2.34 20 2 20 C2 17.36 2 14.72 2 12 C1.34 12 0.68 12 0 12 C-0.19401633 10.18818595 -0.38004375 8.37551468 -0.5625 6.5625 C-0.66691406 5.55316406 -0.77132813 4.54382813 -0.87890625 3.50390625 C-0.91886719 2.67761719 -0.95882813 1.85132813 -1 1 C-0.67 0.67 -0.34 0.34 0 0 Z " fill="#ED657E" transform="translate(434,158)"/>
<path d="M0 0 C2.19858192 3.29787288 3.08315174 6.13806357 4.1875 9.9375 C4.55230469 11.16339844 4.91710937 12.38929688 5.29296875 13.65234375 C5.93853762 16.70898753 6.1197357 18.15430227 5 21 C5 20.01 5 19.02 5 18 C4.34 18 3.68 18 3 18 C2.49490792 15.75113762 1.99610821 13.50086131 1.5 11.25 C1.2215625 9.99703125 0.943125 8.7440625 0.65625 7.453125 C0 4 0 4 0 0 Z " fill="#E86782" transform="translate(427,132)"/>
<path d="M0 0 C0 0.66 0 1.32 0 2 C-0.66 2 -1.32 2 -2 2 C-2.66 3.32 -3.32 4.64 -4 6 C-4.99 6 -5.98 6 -7 6 C-7 6.66 -7 7.32 -7 8 C-9.90548882 10.04169485 -11.40142046 11 -15 11 C-13.58510266 9.72719706 -12.16800334 8.4568417 -10.75 7.1875 C-9.96109375 6.47980469 -9.1721875 5.77210937 -8.359375 5.04296875 C-2.53537285 0 -2.53537285 0 0 0 Z " fill="#F3CAD8" transform="translate(164,75)"/>
<path d="M0 0 C2.8992226 0.46761655 3.86675182 0.86675182 6 3 C3.03 5.475 3.03 5.475 0 8 C-0.68707555 5.50935112 -1 3.62113708 -1 1 C-0.67 0.67 -0.34 0.34 0 0 Z " fill="#F8E6F0" transform="translate(341,305)"/>
<path d="M0 0 C1.60379341 -0.05416188 3.20811406 -0.09286638 4.8125 -0.125 C5.70582031 -0.14820313 6.59914062 -0.17140625 7.51953125 -0.1953125 C10 0 10 0 13 2 C13 2.99 13 3.98 13 5 C8.15340923 4.40895235 4.39251833 3.02055843 0 1 C0 0.67 0 0.34 0 0 Z " fill="#F9E072" transform="translate(182,266)"/>
<path d="M0 0 C3.3 0 6.6 0 10 0 C9.67 0.99 9.34 1.98 9 3 C5.04 3 1.08 3 -3 3 C-2.01 2.67 -1.02 2.34 0 2 C0 1.34 0 0.68 0 0 Z " fill="#EC808F" transform="translate(225,8)"/>
<path d="M0 0 C0.66 0 1.32 0 2 0 C2.33 1.65 2.66 3.3 3 5 C4.65 5.33 6.3 5.66 8 6 C7.67 7.65 7.34 9.3 7 11 C4 10 4 10 2.83203125 7.71484375 C2.49558594 6.79832031 2.15914063 5.88179688 1.8125 4.9375 C1.46832031 4.01839844 1.12414062 3.09929687 0.76953125 2.15234375 C0.51558594 1.44207031 0.26164062 0.73179687 0 0 Z " fill="#EC667D" transform="translate(78,271)"/>
<path d="M0 0 C-3.3 2.31 -6.6 4.62 -10 7 C-10.33 6.01 -10.66 5.02 -11 4 C-10.34 3.67 -9.68 3.34 -9 3 C-8.67 2.01 -8.34 1.02 -8 0 C-4.76565159 -1.33835107 -3.58579314 -0.89644829 0 0 Z " fill="#E33A5B" transform="translate(168,72)"/>
<path d="M0 0 C0.66 0.33 1.32 0.66 2 1 C0.8803014 2.00593243 -0.2459412 3.0045849 -1.375 4 C-2.31472656 4.8353125 -2.31472656 4.8353125 -3.2734375 5.6875 C-5 7 -5 7 -7 7 C-7 7.66 -7 8.32 -7 9 C-8.65 9 -10.3 9 -12 9 C-8.60750339 5.30816545 -5.55763348 3.07165158 -1 1 C-0.67 0.67 -0.34 0.34 0 0 Z " fill="#EFD4E3" transform="translate(176,66)"/>
<path d="M0 0 C7.50769231 1.47692308 7.50769231 1.47692308 10 4.125 C10.495 5.053125 10.495 5.053125 11 6 C9.02 6.99 9.02 6.99 7 8 C5.83035398 6.8572081 4.66435444 5.71068285 3.5 4.5625 C2.8503125 3.92441406 2.200625 3.28632813 1.53125 2.62890625 C0 1 0 1 0 0 Z " fill="#F28A98" transform="translate(171,368)"/>
<path d="M0 0 C3.63 0.33 7.26 0.66 11 1 C11 1.66 11 2.32 11 3 C12.32 3 13.64 3 15 3 C15 3.66 15 4.32 15 5 C9.54520815 4.43179252 5.08940744 3.05362055 0 1 C0 0.67 0 0.34 0 0 Z " fill="#FCCBDC" transform="translate(198,334)"/>
<path d="M0 0 C0.99 0 1.98 0 3 0 C3.75 2.6875 3.75 2.6875 4 6 C2.0625 8.875 2.0625 8.875 0 11 C0.33 8.36 0.66 5.72 1 3 C0.34 3 -0.32 3 -1 3 C-0.67 2.01 -0.34 1.02 0 0 Z " fill="#EC5370" transform="translate(411,282)"/>
<path d="M0 0 C0 0.66 0 1.32 0 2 C-6.14778871 3.6277833 -11.64012196 4.20190089 -18 4 C-18 3.67 -18 3.34 -18 3 C-15.75113762 2.49490792 -13.50086131 1.99610821 -11.25 1.5 C-9.37054688 1.08234375 -9.37054688 1.08234375 -7.453125 0.65625 C-4 0 -4 0 0 0 Z " fill="#FBEBC1" transform="translate(292,276)"/>
<path d="M0 0 C1 2 1 2 0.44140625 4.1640625 C0.15136719 4.97617188 -0.13867188 5.78828125 -0.4375 6.625 C-0.72496094 7.44226563 -1.01242188 8.25953125 -1.30859375 9.1015625 C-1.65083984 10.04128906 -1.65083984 10.04128906 -2 11 C-2.66 11 -3.32 11 -4 11 C-4 11.66 -4 12.32 -4 13 C-4.66 13 -5.32 13 -6 13 C-4.75696561 7.82069003 -3.14512215 4.29833361 0 0 Z " fill="#EF8F9C" transform="translate(90,95)"/>
<path d="M0 0 C0.66 0 1.32 0 2 0 C2.66 2.64 3.32 5.28 4 8 C4.99 8 5.98 8 7 8 C7 10.31 7 12.62 7 15 C3.49221789 10.79066147 0 5.5744558 0 0 Z " fill="#EC8693" transform="translate(189,394)"/>
<path d="M0 0 C3.3 0.33 6.6 0.66 10 1 C9.34 2.65 8.68 4.3 8 6 C6.66402348 5.19185349 5.331275 4.37836819 4 3.5625 C3.2575 3.11003906 2.515 2.65757812 1.75 2.19140625 C1.1725 1.79824219 0.595 1.40507812 0 1 C0 0.67 0 0.34 0 0 Z " fill="#F2798D" transform="translate(163,362)"/>
<path d="M0 0 C0.33 0.99 0.66 1.98 1 3 C0.01 3.66 -0.98 4.32 -2 5 C-2.268125 5.66 -2.53625 6.32 -2.8125 7 C-4.56016993 9.94344409 -6.79883842 10.16491437 -10 11 C-6.79239749 7.19364503 -3.59253891 3.45436433 0 0 Z " fill="#E33E5D" transform="translate(359,296)"/>
<path d="M0 0 C-4.625 3 -4.625 3 -8 3 C-8.33 3.99 -8.66 4.98 -9 6 C-11.97 5.505 -11.97 5.505 -15 5 C-12.30932731 3.20621821 -9.91421743 2.02686042 -6.9375 0.8125 C-5.62072266 0.26529297 -5.62072266 0.26529297 -4.27734375 -0.29296875 C-2 -1 -2 -1 0 0 Z " fill="#7F879E" transform="translate(199,144)"/>
<path d="M0 0 C0 1.66666667 0 3.33333333 0 5 C-0.66 5 -1.32 5 -2 5 C-2.268125 5.639375 -2.53625 6.27875 -2.8125 6.9375 C-4 9 -4 9 -7 10 C-6.84518205 7.29068581 -6.51827919 5.53415961 -4.59765625 3.5546875 C-3.10228292 2.32320358 -1.5537076 1.1570163 0 0 Z " fill="#DBF1FE" transform="translate(143,96)"/>
<path d="M0 0 C3 2 3 2 6 4 C5.67 6.31 5.34 8.62 5 11 C0 4.63636364 0 4.63636364 0 0 Z " fill="#F28390" transform="translate(223,468)"/>
<path d="M0 0 C1.63129887 4.06285757 0.29968777 7.20102184 -0.9375 11.25 C-1.31777344 12.51328125 -1.69804687 13.7765625 -2.08984375 15.078125 C-2.39019531 16.04234375 -2.69054687 17.0065625 -3 18 C-4.78891363 12.63325911 -3.67396406 7.53663806 -1.4375 2.4375 C-0.7259375 1.2309375 -0.7259375 1.2309375 0 0 Z " fill="#F6A6BA" transform="translate(396,220)"/>
<path d="M0 0 C0.33 0.66 0.66 1.32 1 2 C1.66 2 2.32 2 3 2 C1.63016497 5.16115776 1.0109362 5.9927092 -2 8 C-2.33 6.02 -2.66 4.04 -3 2 C-2.01 1.34 -1.02 0.68 0 0 Z " fill="#ED2E51" transform="translate(133,97)"/>
<path d="M0 0 C-4.75 4.875 -4.75 4.875 -7 6 C-7 5.34 -7 4.68 -7 4 C-9.31 4 -11.62 4 -14 4 C-9.2157506 0.8105004 -5.77575443 -0.26863974 0 0 Z " fill="#ECDFEA" transform="translate(204,56)"/>
<path d="M0 0 C-1.93232821 0.86580287 -3.87107194 1.71729941 -5.8125 2.5625 C-6.89144531 3.03816406 -7.97039062 3.51382812 -9.08203125 4.00390625 C-12 5 -12 5 -15 4 C-10.06105665 0.35458943 -6.09449715 -2.03149905 0 0 Z " fill="#FDDAE6" transform="translate(309,332)"/>
<path d="M0 0 C0 0.66 0 1.32 0 2 C-1.7578125 2.9765625 -3.515625 3.953125 -5.2734375 4.9296875 C-7.1612614 6.00897274 -7.1612614 6.00897274 -9 8 C-9.99 8 -10.98 8 -12 8 C-10.61482883 4.5659298 -9.34555636 3.29977978 -6 1.75 C-5.29875 1.41484375 -4.5975 1.0796875 -3.875 0.734375 C-2 0 -2 0 0 0 Z " fill="#F5C442" transform="translate(316,237)"/>
<path d="M0 0 C3.28788824 3.11016455 5.83735988 6.01618925 8 10 C7.34 10 6.68 10 6 10 C6 9.34 6 8.68 6 8 C4.35 8 2.7 8 1 8 C0.67 5.36 0.34 2.72 0 0 Z " fill="#F9CFDB" transform="translate(362,98)"/>
<path d="M0 0 C2.31 0 4.62 0 7 0 C4.30932731 1.79378179 1.91421743 2.97313958 -1.0625 4.1875 C-1.94035156 4.55230469 -2.81820312 4.91710938 -3.72265625 5.29296875 C-6 6 -6 6 -8 5 C-6.8125 3.5 -6.8125 3.5 -5 2 C-2.3125 1.8125 -2.3125 1.8125 0 2 C0 1.34 0 0.68 0 0 Z " fill="#E14B6A" transform="translate(199,53)"/>
<path d="M0 0 C0.66 0.33 1.32 0.66 2 1 C2 1.99 2 2.98 2 4 C2.99 4.33 3.98 4.66 5 5 C6.25 6.875 6.25 6.875 7 9 C6.67 9.99 6.34 10.98 6 12 C4.8001722 10.57277341 3.6154424 9.13284224 2.4375 7.6875 C1.77621094 6.88699219 1.11492187 6.08648437 0.43359375 5.26171875 C-0.27603516 4.14216797 -0.27603516 4.14216797 -1 3 C-0.67 2.01 -0.34 1.02 0 0 Z " fill="#F0DFEC" transform="translate(131,280)"/>
<path d="M0 0 C1.98 0 3.96 0 6 0 C6 0.66 6 1.32 6 2 C8.97 2.495 8.97 2.495 12 3 C11.67 3.66 11.34 4.32 11 5 C6.12637153 4.54663921 3.60957611 3.2910841 0 0 Z " fill="#ED8B98" transform="translate(234,487)"/>
<path d="M0 0 C2.97 0 5.94 0 9 0 C6.6875 2.5 6.6875 2.5 4 5 C3.01 5 2.02 5 1 5 C0.67 3.35 0.34 1.7 0 0 Z " fill="#EA5274" transform="translate(328,362)"/>
<path d="M0 0 C1.65 0.33 3.3 0.66 5 1 C5 1.66 5 2.32 5 3 C-0.2734375 6.22265625 -0.2734375 6.22265625 -2 7 C-2.66 6.67 -3.32 6.34 -4 6 C-3.67 5.01 -3.34 4.02 -3 3 C-1.68 3 -0.36 3 1 3 C0.67 2.01 0.34 1.02 0 0 Z " fill="#EC5670" transform="translate(341,355)"/>
<path d="M0 0 C0 3.38878512 -0.64361198 4.39757217 -2.4375 7.1875 C-2.88996094 7.90292969 -3.34242188 8.61835938 -3.80859375 9.35546875 C-4.20175781 9.89816406 -4.59492188 10.44085938 -5 11 C-5.33 11 -5.66 11 -6 11 C-6.20086443 7.28400809 -6.1519437 6.22791555 -4 3 C-2.69481525 1.96352976 -1.36538653 0.95577057 0 0 Z " fill="#EA6C87" transform="translate(409,294)"/>
<path d="M0 0 C2.64 0 5.28 0 8 0 C5.87033995 2.12966005 4.95931796 2.47624662 2.125 3.1875 C1.44695312 3.36667969 0.76890625 3.54585938 0.0703125 3.73046875 C-2.22818556 4.02970718 -3.80550964 3.69377386 -6 3 C-5 2 -5 2 -2.4375 1.9375 C-1.2309375 1.9684375 -1.2309375 1.9684375 0 2 C0 1.34 0 0.68 0 0 Z " fill="#F6CB58" transform="translate(304,269)"/>
<path d="M0 0 C1 2 1 2 0.1875 4.5 C-0.204375 5.655 -0.59625 6.81 -1 8 C-1.73835508 11.32012014 -2.37881095 14.65615258 -3 18 C-3.66 17.67 -4.32 17.34 -5 17 C-4.35841048 14.35307023 -3.71195217 11.70750071 -3.0625 9.0625 C-2.88009766 8.30775391 -2.69769531 7.55300781 -2.50976562 6.77539062 C-1.11328125 1.11328125 -1.11328125 1.11328125 0 0 Z " fill="#E04666" transform="translate(108,147)"/>
<path d="M0 0 C1.07257764 3.30200687 0.92468991 5.67371657 0.25 9.0625 C0.01023437 10.34833984 0.01023437 10.34833984 -0.234375 11.66015625 C-1.06374096 14.19480017 -1.97882865 15.3064361 -4 17 C-3.35729017 11.0870696 -1.80996216 5.65755469 0 0 Z " fill="#EE929D" transform="translate(71,136)"/>
<path d="M0 0 C0.33 0.66 0.66 1.32 1 2 C0.109375 4.34765625 0.109375 4.34765625 -1.25 7.0625 C-1.68828125 7.96097656 -2.1265625 8.85945313 -2.578125 9.78515625 C-4 12 -4 12 -7 13 C-5.35821735 8.22390502 -2.73453298 4.20617096 0 0 Z " fill="#F5CADC" transform="translate(126,113)"/>
<path d="M0 0 C0.33 0.66 0.66 1.32 1 2 C1.99 2 2.98 2 4 2 C2.79641403 5.42559084 1.64107354 7.53258609 -1 10 C-1.02689216 8.52093108 -1.04634621 7.04172517 -1.0625 5.5625 C-1.07410156 4.73878906 -1.08570313 3.91507812 -1.09765625 3.06640625 C-1 1 -1 1 0 0 Z " fill="#E9516D" transform="translate(317,374)"/>
<path d="M0 0 C1.98 0 3.96 0 6 0 C5.19152271 1.16945792 4.37810888 2.33550461 3.5625 3.5 C3.11003906 4.1496875 2.65757812 4.799375 2.19140625 5.46875 C1.79824219 5.9740625 1.40507812 6.479375 1 7 C0.67 7 0.34 7 0 7 C0 4.69 0 2.38 0 0 Z " fill="#EE5875" transform="translate(391,313)"/>
<path d="M0 0 C1.953125 1.17578125 1.953125 1.17578125 4 3 C4.609375 5.48046875 4.609375 5.48046875 4.75 8.1875 C4.80671875 9.08855469 4.8634375 9.98960937 4.921875 10.91796875 C4.94765625 11.60503906 4.9734375 12.29210937 5 13 C2.94876752 10.94876752 2.35852882 9.72994937 1.375 7.0625 C0.98441406 6.02802734 0.98441406 6.02802734 0.5859375 4.97265625 C0 3 0 3 0 0 Z " fill="#E57885" transform="translate(73,257)"/>
<path d="M0 0 C1.5625 1.8125 1.5625 1.8125 3 4 C2.67 4.99 2.34 5.98 2 7 C0.02 7.33 -1.96 7.66 -4 8 C-3.625 6.0625 -3.625 6.0625 -3 4 C-2.34 3.67 -1.68 3.34 -1 3 C-0.67 2.01 -0.34 1.02 0 0 Z " fill="#DFEFFB" transform="translate(123,121)"/>
<path d="M0 0 C1.45903258 0.30921884 2.91720722 0.62248799 4.375 0.9375 C5.18710937 1.11152344 5.99921875 1.28554687 6.8359375 1.46484375 C9 2 9 2 11 3 C11.625 5.0625 11.625 5.0625 12 7 C7.69235185 5.43358249 3.93828536 3.31663844 0 1 C0 0.67 0 0.34 0 0 Z " fill="#E44E6B" transform="translate(320,64)"/>
<path d="M0 0 C1.31602523 0.61754259 2.62773556 1.24428742 3.9375 1.875 C4.66839844 2.22304688 5.39929688 2.57109375 6.15234375 2.9296875 C8 4 8 4 9 6 C5.97580475 5.41196203 2.98241547 4.77321882 0 4 C0 2.68 0 1.36 0 0 Z " fill="#EA5B77" transform="translate(354,39)"/>
<path d="M0 0 C3 1 3 1 5 4 C5.99 4 6.98 4 8 4 C8 4.66 8 5.32 8 6 C7.34 6 6.68 6 6 6 C5.67 6.66 5.34 7.32 5 8 C0 2.25 0 2.25 0 0 Z " fill="#F68492" transform="translate(228,479)"/>
<path d="M0 0 C0.33 0.66 0.66 1.32 1 2 C1.99 2 2.98 2 4 2 C2.25 7.75 2.25 7.75 0 10 C0 6.7 0 3.4 0 0 Z " fill="#ED4E6B" transform="translate(307,393)"/>
<path d="M0 0 C1.98 0 3.96 0 6 0 C6.103125 0.639375 6.20625 1.27875 6.3125 1.9375 C6.539375 2.618125 6.76625 3.29875 7 4 C7.99 4.33 8.98 4.66 10 5 C9.01 5.495 9.01 5.495 8 6 C6.0546875 5.0390625 6.0546875 5.0390625 3.875 3.625 C3.15054688 3.16351563 2.42609375 2.70203125 1.6796875 2.2265625 C1.12539062 1.82179688 0.57109375 1.41703125 0 1 C0 0.67 0 0.34 0 0 Z " fill="#ED7F91" transform="translate(142,349)"/>
<path d="M0 0 C0.99 0.33 1.98 0.66 3 1 C3 4.96 3 8.92 3 13 C2.67 13 2.34 13 2 13 C1.66127487 11.58461283 1.32925376 10.16762037 1 8.75 C0.814375 7.96109375 0.62875 7.1721875 0.4375 6.359375 C0 4 0 4 0 0 Z " fill="#EB5C7C" transform="translate(394,159)"/>
<path d="M0 0 C2.96404505 2.80804268 5.44499019 5.18315774 7 9 C6.01 9.33 5.02 9.66 4 10 C3.34 8.35 2.68 6.7 2 5 C1.34 5 0.68 5 0 5 C0 3.35 0 1.7 0 0 Z " fill="#EB6379" transform="translate(396,77)"/>
<path d="M0 0 C-1.45537568 0.83848804 -2.91440373 1.67063934 -4.375 2.5 C-5.59316406 3.19609375 -5.59316406 3.19609375 -6.8359375 3.90625 C-9 5 -9 5 -11 5 C-11 4.34 -11 3.68 -11 3 C-10.01 3 -9.02 3 -8 3 C-8 2.34 -8 1.68 -8 1 C-4.85571151 -0.9090323 -3.47925125 -1.04523725 0 0 Z " fill="#FED9E5" transform="translate(325,324)"/>
<path d="M0 0 C2.3125 0.125 2.3125 0.125 5 1 C6.875 3.9375 6.875 3.9375 8 7 C7.67 7.66 7.34 8.32 7 9 C5.83037314 7.69013727 4.66437056 6.3770374 3.5 5.0625 C2.8503125 4.33160156 2.200625 3.60070312 1.53125 2.84765625 C0 1 0 1 0 0 Z " fill="#F3D5E5" transform="translate(138,292)"/>
<path d="M0 0 C0 0.66 0 1.32 0 2 C-7.38461538 4.21538462 -7.38461538 4.21538462 -10.5 3.125 C-10.995 2.75375 -11.49 2.3825 -12 2 C-10.7625 1.67 -9.525 1.34 -8.25 1 C-7.55390625 0.814375 -6.8578125 0.62875 -6.140625 0.4375 C-4 0 -4 0 0 0 Z " fill="#E4BB56" transform="translate(292,245)"/>
<path d="M0 0 C0.66 0.33 1.32 0.66 2 1 C1.01 1.33 0.02 1.66 -1 2 C-1.73323796 4.01508358 -1.73323796 4.01508358 -2 6 C-4.475 5.01 -4.475 5.01 -7 4 C-4.61426621 2.10786631 -2.92824652 0.97608217 0 0 Z " fill="#767E96" transform="translate(217,136)"/>
<path d="M0 0 C2.475 0.495 2.475 0.495 5 1 C5 1.66 5 2.32 5 3 C6.32 3.66 7.64 4.32 9 5 C6.69 5.33 4.38 5.66 2 6 C2 4.35 2 2.7 2 1 C1.34 0.67 0.68 0.34 0 0 Z " fill="#EF6C7E" transform="translate(317,20)"/>
<path d="M0 0 C0.95465783 2.16967689 1.14401212 3.56328793 0.3984375 5.82421875 C-0.35870385 7.5684743 -1.17609198 9.28627131 -2 11 C-2.33 11 -2.66 11 -3 11 C-3 9.02 -3 7.04 -3 5 C-2.34 5 -1.68 5 -1 5 C-0.67 3.35 -0.34 1.7 0 0 Z " fill="#E8627C" transform="translate(278,462)"/>
<path d="M0 0 C0.99 0.33 1.98 0.66 3 1 C4.1875 4.5625 4.1875 4.5625 5 8 C2 7 2 7 0.8125 5.125 C0 3 0 3 0 0 Z " fill="#EB7F8F" transform="translate(196,409)"/>
<path d="M0 0 C4.44870215 -0.39253254 7.14243493 0.84694043 11 3 C11 3.66 11 4.32 11 5 C9.53932801 4.54917531 8.08151968 4.08906463 6.625 3.625 C5.81289062 3.36976563 5.00078125 3.11453125 4.1640625 2.8515625 C2 2 2 2 0 0 Z " fill="#FDD4E0" transform="translate(186,329)"/>
<path d="M0 0 C1.32 0.33 2.64 0.66 4 1 C4 1.66 4 2.32 4 3 C4.66 3 5.32 3 6 3 C6 4.32 6 5.64 6 7 C2.58841744 5.86280581 1.88145399 4.95657056 0 2 C0 1.34 0 0.68 0 0 Z " fill="#EE8193" transform="translate(97,304)"/>
<path d="M0 0 C0.99 0 1.98 0 3 0 C3.12375 0.969375 3.2475 1.93875 3.375 2.9375 C3.684375 4.4534375 3.684375 4.4534375 4 6 C4.66 6.33 5.32 6.66 6 7 C6 7.66 6 8.32 6 9 C3.5067466 8.00269864 2.22532561 7.34925469 0.75 5.0625 C0 3 0 3 0 0 Z " fill="#E0F0FA" transform="translate(113,248)"/>
<path d="M0 0 C2.61273988 1.30636994 2.97236124 2.28409758 4 5 C4.125 8.25 4.125 8.25 4 11 C0.85041169 7.57653445 0.43820891 4.55737263 0 0 Z " fill="#F1CBDD" transform="translate(109,240)"/>
<path d="M0 0 C0.33 1.32 0.66 2.64 1 4 C-0.65 5.32 -2.3 6.64 -4 8 C-4 4.09161134 -2.49432124 2.88405893 0 0 Z " fill="#F094A1" transform="translate(98,84)"/>
<path d="M0 0 C2.475 0.495 2.475 0.495 5 1 C5 1.66 5 2.32 5 3 C5.99 3.33 6.98 3.66 8 4 C7.67 4.66 7.34 5.32 7 6 C4.69 5.01 2.38 4.02 0 3 C0 2.01 0 1.02 0 0 Z " fill="#E2EFF9" transform="translate(339,80)"/>
<path d="M0 0 C4.875 2.75 4.875 2.75 6 5 C3.69 4.67 1.38 4.34 -1 4 C-0.67 2.68 -0.34 1.36 0 0 Z " fill="#ED637E" transform="translate(367,48)"/>
<path d="M0 0 C0.66 0.33 1.32 0.66 2 1 C1.67 2.65 1.34 4.3 1 6 C0.01 6.33 -0.98 6.66 -2 7 C-2.33 7.66 -2.66 8.32 -3 9 C-3 8.01 -3 7.02 -3 6 C-2.34 6 -1.68 6 -1 6 C-1 5.34 -1 4.68 -1 4 C-1.66 3.67 -2.32 3.34 -3 3 C-2.01 2.01 -1.02 1.02 0 0 Z " fill="#FB849A" transform="translate(135,45)"/>
<path d="M0 0 C5.01113235 1.4317521 6.94469549 3.98445693 10 8 C6.05205855 6.32971708 3.18203882 3.8204435 0 1 C0 0.67 0 0.34 0 0 Z " fill="#E07E8B" transform="translate(118,329)"/>
<path d="M0 0 C0.66 0 1.32 0 2 0 C2 1.32 2 2.64 2 4 C2.99 4.33 3.98 4.66 5 5 C5.33 6.98 5.66 8.96 6 11 C3.46166551 9.73083275 3.10599099 8.58375191 1.875 6.0625 C1.52179688 5.35222656 1.16859375 4.64195312 0.8046875 3.91015625 C0 2 0 2 0 0 Z " fill="#F53652" transform="translate(101,269)"/>
<path d="M0 0 C2.84262206 1.42131103 3.59335994 3.18671989 5 6 C5.1875 8.8125 5.1875 8.8125 5 11 C0 4.63636364 0 4.63636364 0 0 Z " fill="#F6CDDF" transform="translate(113,251)"/>
<path d="M0 0 C0.28875 0.598125 0.5775 1.19625 0.875 1.8125 C2.04742026 4.19327792 2.04742026 4.19327792 4 7 C3.625 9.6875 3.625 9.6875 3 12 C0.60926555 8.17482487 0.44033448 4.40334476 0 0 Z " fill="#E73253" transform="translate(392,147)"/>
<path d="M0 0 C2.50298434 2.93828597 3.46930939 5.17902761 4 9 C3.01 9 2.02 9 1 9 C0.67 6.03 0.34 3.06 0 0 Z " fill="#E23B5B" transform="translate(418,112)"/>
<path d="M0 0 C3.26460973 1.80412643 4.88929795 2.83394693 7 6 C5.35 6.33 3.7 6.66 2 7 C2 5.68 2 4.36 2 3 C1.34 2.67 0.68 2.34 0 2 C0 1.34 0 0.68 0 0 Z " fill="#F0D2E1" transform="translate(344,81)"/>
<path d="M0 0 C0.66 0.33 1.32 0.66 2 1 C1.34 1.66 0.68 2.32 0 3 C0 3.99 0 4.98 0 6 C-1.98 6.33 -3.96 6.66 -6 7 C-4.02 4.69 -2.04 2.38 0 0 Z " fill="#F59CAA" transform="translate(129,50)"/>
<path d="M0 0 C3.63 0.66 7.26 1.32 11 2 C11 2.33 11 2.66 11 3 C9.54257537 3.08096803 8.08387193 3.13917774 6.625 3.1875 C5.81289062 3.22230469 5.00078125 3.25710938 4.1640625 3.29296875 C3.44992188 3.19628906 2.73578125 3.09960938 2 3 C1.34 2.01 0.68 1.02 0 0 Z " fill="#DF3050" transform="translate(206,338)"/>
<path d="M0 0 C0 0.99 0 1.98 0 3 C-1.75 4.0625 -1.75 4.0625 -4 5 C-5.32 4.67 -6.64 4.34 -8 4 C-5.36 2.68 -2.72 1.36 0 0 Z " fill="#E13758" transform="translate(302,334)"/>
<path d="M0 0 C3.68754757 0.49831724 5.60490662 1.10067643 8 4 C7.01 4.495 7.01 4.495 6 5 C3.98079663 3.69593116 1.98075027 2.36176581 0 1 C0 0.67 0 0.34 0 0 Z " fill="#FBD4E0" transform="translate(169,319)"/>
<path d="M0 0 C4.92307692 4.18461538 4.92307692 4.18461538 5.3125 8.3125 C5.209375 9.199375 5.10625 10.08625 5 11 C0 3.5 0 3.5 0 0 Z " fill="#F63451" transform="translate(96,258)"/>
<path d="M0 0 C1.258125 0.12375 2.51625 0.2475 3.8125 0.375 C4.87404297 0.47941406 4.87404297 0.47941406 5.95703125 0.5859375 C8 1 8 1 11 3 C7.37 3 3.74 3 0 3 C0 2.01 0 1.02 0 0 Z " fill="#F1D969" transform="translate(181,237)"/>
<path d="M0 0 C0.96516243 3.00272755 1.22393475 5.04215769 0 8 C-0.99 8.33 -1.98 8.66 -3 9 C-2.44271087 5.65626525 -1.64826111 2.96687001 0 0 Z " fill="#F0B3C7" transform="translate(115,132)"/>
<path d="M0 0 C3.0916909 2.52956528 3.90931332 5.22454612 5 9 C3.0625 8.4375 3.0625 8.4375 1 7 C0.25 3.375 0.25 3.375 0 0 Z " fill="#FED6E5" transform="translate(379,123)"/>
<path d="M0 0 C1.24675325 4.98701299 1.24675325 4.98701299 0 8 C-0.99 8.33 -1.98 8.66 -3 9 C-2.01 6.03 -1.02 3.06 0 0 Z " fill="#E56C7C" transform="translate(80,114)"/>
<path d="M0 0 C6.625 0.75 6.625 0.75 10 3 C8.72125 3.061875 7.4425 3.12375 6.125 3.1875 C5.40570313 3.22230469 4.68640625 3.25710937 3.9453125 3.29296875 C3.30335938 3.19628906 2.66140625 3.09960938 2 3 C1.34 2.01 0.68 1.02 0 0 Z " fill="#F193A0" transform="translate(299,14)"/>
<path d="M0 0 C0.66 0.66 1.32 1.32 2 2 C1.625 4.125 1.625 4.125 1 6 C-0.65 4.35 -2.3 2.7 -4 1 C-2.125 0.375 -2.125 0.375 0 0 Z " fill="#F9D0E0" transform="translate(150,300)"/>
<path d="M0 0 C0.33 0 0.66 0 1 0 C0.67 2.64 0.34 5.28 0 8 C-0.66 8 -1.32 8 -2 8 C-2 6.02 -2 4.04 -2 2 C-1.34 2 -0.68 2 0 2 C0 1.34 0 0.68 0 0 Z " fill="#E2506E" transform="translate(111,138)"/>
<path d="M0 0 C-0.66 0 -1.32 0 -2 0 C-2.33 0.99 -2.66 1.98 -3 3 C-5.97 2.505 -5.97 2.505 -9 2 C-4 -1.33333333 -4 -1.33333333 0 0 Z " fill="#F3909D" transform="translate(194,17)"/>
</svg>
