<?xml version="1.0" encoding="UTF-8"?>
<svg version="1.1" xmlns="http://www.w3.org/2000/svg" width="485" height="515">
<path d="M0 0 C0.95390625 0.63421875 1.9078125 1.2684375 2.890625 1.921875 C8.13650498 5.46797264 8.13650498 5.46797264 10 7 C10 7.66 10 8.32 10 9 C11.11375 9.37125 11.11375 9.37125 12.25 9.75 C15.23023087 11.10465039 16.89919252 12.5101541 19 15 C19 15.66 19 16.32 19 17 C19.66 17 20.32 17 21 17 C25 21.47058824 25 21.47058824 25 24 C25.66 24 26.32 24 27 24 C28.2890625 25.6796875 28.2890625 25.6796875 29.625 27.875 C30.07101562 28.59429687 30.51703125 29.31359375 30.9765625 30.0546875 C32 32 32 32 32 34 C32.66 34 33.32 34 34 34 C44.10680851 55.81963042 47.98718032 76.82334984 40.38671875 100.3203125 C39.11826715 103.68617562 37.68600994 106.82575254 36 110 C41.47267593 111.72124485 46.82135997 112.6222246 52.5 113.375 C64.06771776 115.0110971 75.1465077 117.58502008 86 122 C86.70511719 122.26167969 87.41023438 122.52335938 88.13671875 122.79296875 C105.13392344 129.22662143 120.14178756 138.2771725 134 150 C134.61359375 150.46664062 135.2271875 150.93328125 135.859375 151.4140625 C151.27288164 163.37787956 161.57478389 183.10971679 165 202 C167.71590222 223.95070203 162.01865904 244.56223968 148.47070312 261.96435547 C139.67677583 272.88214945 139.67677583 272.88214945 135 276 C136.96385249 282.63358974 139.64224303 288.55350127 142.9375 294.625 C143.36740234 295.43195313 143.79730469 296.23890625 144.24023438 297.0703125 C146.15905833 300.65755244 148.11418013 304.2116253 150.17578125 307.71875 C154.19128616 314.94149973 157.60612723 323.62763466 156 332 C154.625 335.0625 154.625 335.0625 152 337 C144.58313966 339.22205532 138.22712589 335.57142244 131.82202148 332.19848633 C129.87410638 331.14493035 127.93639557 330.07453472 126 329 C125.15179688 328.55011719 124.30359375 328.10023438 123.4296875 327.63671875 C117.71310112 324.56748141 112.2294265 321.09830982 106.72265625 317.671875 C104.15870053 316.04312679 104.15870053 316.04312679 102 315 C102 314.34 102 313.68 102 313 C101.46117187 312.89945312 100.92234375 312.79890625 100.3671875 312.6953125 C96.31233018 311.5042818 92.75264533 309.22333513 89.0703125 307.1796875 C83.81163141 305.15917644 79.09733128 307.19450723 73.91796875 308.890625 C34.15775135 321.31815091 -14.07184378 320.14950558 -52.87890625 304.8203125 C-54.49770607 304.19425732 -56.13426711 303.6139344 -57.77734375 303.0546875 C-75.97368985 296.62186304 -92.07839141 285.20195325 -106 272 C-106.75410156 271.29359375 -107.50820312 270.5871875 -108.28515625 269.859375 C-110 268 -110 268 -110 266 C-110.66 266 -111.32 266 -112 266 C-127.54899345 248.13966969 -132.43505588 226.88156663 -131.23193359 203.76416016 C-130.39262277 193.76134208 -126.9770673 184.66907214 -122 176 C-123.16402344 175.92652344 -123.16402344 175.92652344 -124.3515625 175.8515625 C-137.72469096 174.92597604 -149.87723645 173.05671598 -162.62890625 168.94458008 C-167.79651803 167.34580139 -171.61559999 166.56370619 -177 168 C-178.97418606 169.00572906 -178.97418606 169.00572906 -180.5 170.375 C-183.16884347 172.59449737 -185.88071238 173.80521738 -189.08203125 175.125 C-192.50537969 176.686772 -195.59730009 178.77125259 -198.75 180.8125 C-204.25196 184.31432451 -209.77709625 187.65210877 -215.5546875 190.6875 C-217.17067527 191.55486724 -218.76121873 192.47159679 -220.3203125 193.4375 C-225.66450884 196.7147772 -230.64596603 198.42799193 -237 198 C-240.29786467 196.76998561 -240.96474627 196.0528806 -243 193 C-245.38746827 181.52178717 -237.97544631 169.31636222 -232.5078125 159.68359375 C-228.20545661 152.02629195 -224.46334723 144.06756178 -221 136 C-221.59296875 135.731875 -222.1859375 135.46375 -222.796875 135.1875 C-225.00904989 133.99512205 -226.48956473 132.77821744 -228.25 131 C-228.77078125 130.484375 -229.2915625 129.96875 -229.828125 129.4375 C-231 128 -231 128 -231 126 C-231.66 126 -232.32 126 -233 126 C-237 120.58823529 -237 120.58823529 -237 118 C-237.66 118 -238.32 118 -239 118 C-244.01946197 108.50931827 -248.29906124 99.43752605 -251 89 C-251.17362061 88.38511719 -251.34724121 87.77023438 -251.52612305 87.13671875 C-255.72098596 68.22201487 -249.91929277 50.42614621 -241 34 C-240.32798042 32.66935658 -239.65915859 31.33706102 -239 30 C-238.34 30 -237.68 30 -237 30 C-236.7525 29.46375 -236.505 28.9275 -236.25 28.375 C-234.69347463 25.4176018 -232.96564327 22.70275949 -231 20 C-230.34 20 -229.68 20 -229 20 C-228.773125 19.26394531 -228.54625 18.52789062 -228.3125 17.76953125 C-226.72418173 14.41799061 -224.92256686 12.9431439 -222 10.6875 C-221.113125 9.99011719 -220.22625 9.29273438 -219.3125 8.57421875 C-217 7 -217 7 -215 7 C-215 6.34 -215 5.68 -215 5 C-212.78296872 3.31602542 -210.57692487 1.76914391 -208.25 0.25 C-207.56695801 -0.19956055 -206.88391602 -0.64912109 -206.18017578 -1.11230469 C-200.3341845 -4.89877328 -194.32350266 -8.07954022 -188 -11 C-186.9171875 -11.52464844 -185.834375 -12.04929687 -184.71875 -12.58984375 C-179.10844692 -15.27046754 -173.62106277 -17.64909448 -167.609375 -19.26171875 C-165.30727886 -19.91306032 -163.0855292 -20.66456951 -160.828125 -21.453125 C-155.95129147 -23.09029027 -151.05474319 -24.13735004 -146 -25.0625 C-144.61663452 -25.31628418 -144.61663452 -25.31628418 -143.20532227 -25.57519531 C-140.47257039 -26.0652353 -137.73753373 -26.5374849 -135 -27 C-134.28312012 -27.12294434 -133.56624023 -27.24588867 -132.82763672 -27.37255859 C-88.66659783 -34.62967847 -37.12004871 -25.59208327 0 0 Z M-154.88574219 -9.58740234 C-156.9017309 -9.02730202 -158.9229934 -8.54306283 -160.9609375 -8.0703125 C-165.63512967 -6.91999138 -170.03835037 -5.16256646 -174.5 -3.375 C-175.32242188 -3.05015625 -176.14484375 -2.7253125 -176.9921875 -2.390625 C-178.99655668 -1.59819998 -180.99853459 -0.79973084 -183 0 C-183 0.66 -183 1.32 -183 2 C-183.67933594 2.08507812 -184.35867187 2.17015625 -185.05859375 2.2578125 C-188.76817465 3.19382893 -191.80028896 4.94465667 -195.0625 6.875 C-195.67416016 7.22691406 -196.28582031 7.57882813 -196.91601562 7.94140625 C-201.65833995 10.6847845 -201.65833995 10.6847845 -206 14 C-206 14.66 -206 15.32 -206 16 C-206.57492188 16.26039062 -207.14984375 16.52078125 -207.7421875 16.7890625 C-210.16814677 18.09018252 -212.05058526 19.56876055 -214.125 21.375 C-214.80820313 21.96023437 -215.49140625 22.54546875 -216.1953125 23.1484375 C-218.00654755 25.00671761 -218.98652635 26.6282627 -220 29 C-220.66 29 -221.32 29 -222 29 C-235.81995143 45.13156201 -239.85250804 62.10616143 -239 83 C-237.99042024 95.44596686 -231.32621719 106.21912242 -224 116 C-223.34 116.99 -222.68 117.98 -222 119 C-221.34 119 -220.68 119 -220 119 C-219.79375 119.53625 -219.5875 120.0725 -219.375 120.625 C-217.46749574 123.91978009 -214.95180616 126.59363628 -212 129 C-211.34 129 -210.68 129 -210 129 C-208.45041475 136.87705834 -209.77138077 141.74438015 -213 149 C-213.29648438 149.66692871 -213.59296875 150.33385742 -213.8984375 151.02099609 C-217.48003003 159.00973822 -221.2024097 166.66250895 -226 174 C-227.43005439 177.06440226 -228 178.61519199 -228 182 C-225.16528568 181.38924188 -222.88020151 180.52863332 -220.35546875 179.109375 C-219.33936523 178.53896484 -219.33936523 178.53896484 -218.30273438 177.95703125 C-217.60470703 177.55871094 -216.90667969 177.16039062 -216.1875 176.75 C-215.50107422 176.36714844 -214.81464844 175.98429688 -214.10742188 175.58984375 C-210.68416876 173.65313102 -207.41427122 171.63364175 -204.234375 169.31640625 C-200.82477733 166.8745084 -197.86868624 165.50010283 -194 164 C-194 163.34 -194 162.68 -194 162 C-193.45730469 161.896875 -192.91460937 161.79375 -192.35546875 161.6875 C-189.42398105 160.83187507 -186.99451065 159.45845285 -184.3125 158 C-174.68536739 153.22114691 -169.21105898 153.64078816 -159.08789062 156.87915039 C-149.90993216 159.78065311 -140.4731689 161.3745027 -131 163 C-129.65844849 163.26478149 -129.65844849 163.26478149 -128.28979492 163.53491211 C-124.10619764 164.12635944 -120.00170043 164.20024892 -115.78125 164.23828125 C-114.89419373 164.24798447 -114.00713745 164.25768768 -113.09320068 164.26768494 C-110.22875442 164.29259303 -107.36454371 164.30520743 -104.5 164.3125 C-103.52736206 164.31511841 -102.55472412 164.31773682 -101.5526123 164.32043457 C-87.30147882 164.3245597 -73.839558 163.65076889 -60 160 C-58.64398619 159.68165382 -57.28723246 159.36643966 -55.9296875 159.0546875 C-31.6564068 153.12343411 -8.60190376 142.0125236 9 124 C10.18529297 122.7934375 10.18529297 122.7934375 11.39453125 121.5625 C25.51547787 106.59749033 32.33067264 91.05516464 32.15625 70.4296875 C31.95715356 66.05952064 31.20826152 62.18658769 30 58 C29.74283203 56.8553125 29.74283203 56.8553125 29.48046875 55.6875 C25.99867017 41.6704528 16.2326464 31.2326464 6.30078125 21.30078125 C4.96057312 19.96057312 3.64022512 18.59871263 2.375 17.1875 C0.92438937 15.67319006 0.92438937 15.67319006 -2 16 C-2 15.34 -2 14.68 -2 14 C-2.66 14 -3.32 14 -4 14 C-4 13.34 -4 12.68 -4 12 C-7.82504919 9.38793938 -11.95320281 7.24872645 -16 5 C-17.03253906 4.40445313 -18.06507813 3.80890625 -19.12890625 3.1953125 C-30.49483566 -3.20602446 -42.23903454 -7.70033379 -55.01171875 -10.3515625 C-57.78102369 -10.95248357 -60.42057461 -11.72333882 -63.125 -12.5625 C-91.89778159 -20.33892746 -126.57617829 -17.74706933 -154.88574219 -9.58740234 Z M26 123 C25.67 123.99 25.34 124.98 25 126 C24.34 126 23.68 126 23 126 C22.67 126.99 22.34 127.98 22 129 C20.00334402 130.67067133 18.00348966 132.33752986 16 134 C16 134.66 16 135.32 16 136 C15.44441406 136.24363281 14.88882813 136.48726562 14.31640625 136.73828125 C11.53077034 138.25558378 9.34774333 140.12512684 6.9375 142.1875 C-5.54519087 152.51800279 -19.68972193 159.79608458 -35 165 C-35.79825195 165.27489258 -36.59650391 165.54978516 -37.41894531 165.83300781 C-49.72998074 169.9820308 -62.00383667 172.75298058 -74.875 174.375 C-75.53778961 174.45910126 -76.20057922 174.54320251 -76.88345337 174.62985229 C-84.03102091 175.51613533 -91.06310944 176.10295613 -98.26367188 176.11279297 C-104.68336359 176.00912538 -104.68336359 176.00912538 -110.26953125 178.8203125 C-112.0441007 181.50591395 -113.02399998 183.93370035 -114 187 C-114.58587891 188.65515625 -114.58587891 188.65515625 -115.18359375 190.34375 C-119.89685356 204.56507372 -120.70367001 218.64569671 -116 233 C-115.7215625 233.85078125 -115.443125 234.7015625 -115.15625 235.578125 C-112.7397146 242.20276514 -109.31281926 248.41245584 -105 254 C-104.34 254 -103.68 254 -103 254 C-102.731875 254.804375 -102.46375 255.60875 -102.1875 256.4375 C-101.795625 257.283125 -101.40375 258.12875 -101 259 C-100.01 259.33 -99.02 259.66 -98 260 C-98 260.66 -98 261.32 -98 262 C-97.34 262 -96.68 262 -96 262 C-95.77183594 262.57105469 -95.54367188 263.14210938 -95.30859375 263.73046875 C-90.65905846 271.79428965 -79.85660128 277.38941556 -72 282 C-70.9378125 282.63679687 -69.875625 283.27359375 -68.78125 283.9296875 C-53.53454577 292.7467471 -36.35222718 298.27737021 -19 301 C-17.58793856 301.27557324 -16.17650811 301.55439356 -14.765625 301.8359375 C14.85648779 307.4089753 50.5398428 305.86360717 78.5625 294.1875 C84.31281019 292.20102921 88.58916255 293.7454844 94 296 C94.99 296 95.98 296 97 296 C97 296.66 97 297.32 97 298 C98.38638672 298.54140625 98.38638672 298.54140625 99.80078125 299.09375 C105.19736934 301.40831987 110.1560638 304.49247485 115.1875 307.5 C116.66379883 308.37205078 116.66379883 308.37205078 118.16992188 309.26171875 C122.26446244 311.69450492 126.19176314 314.1399869 130 317 C132.06430954 318.09900417 134.14921285 319.15994107 136.25 320.1875 C137.32765625 320.71730469 138.4053125 321.24710938 139.515625 321.79296875 C140.33546875 322.19128906 141.1553125 322.58960938 142 323 C139.7680878 315.04881279 135.99054564 308.16409771 132.05957031 300.96386719 C130.36085106 297.81536541 128.73395724 294.63261375 127.125 291.4375 C126.57070313 290.34308594 126.01640625 289.24867188 125.4453125 288.12109375 C122.96410761 282.76303237 120.91670293 277.90889312 122 272 C125.65556266 267.01225832 130.1601453 262.81789706 134.5625 258.5 C137.23270005 256.34326986 137.23270005 256.34326986 137 254 C137.66 254 138.32 254 139 254 C149.61468382 236.03668893 155.49734205 218.50060892 150.875 197.5625 C148.28613693 188.80208183 143.62487571 180.82671274 139 173 C138.34 173 137.68 173 137 173 C137 172.34 137 171.68 137 171 C136.34 171 135.68 171 135 171 C134.773125 170.44828125 134.54625 169.8965625 134.3125 169.328125 C132.61274074 166.31307583 130.45195184 164.18769631 128 161.75 C126.6696875 160.41195312 126.6696875 160.41195312 125.3125 159.046875 C123.26510897 156.77906927 123.26510897 156.77906927 121 157 C121 156.34 121 155.68 121 155 C118.30677633 153.05837363 115.54031132 151.32126619 112.6875 149.625 C111.14495129 148.69229613 109.61763309 147.7303307 108.14453125 146.69140625 C99.67576011 140.75246838 90.43880921 136.34188154 80.4140625 133.73828125 C78 133 78 133 75.08203125 131.61328125 C69.35639396 129.11081203 63.15576524 128.11601151 57.0625 126.875 C55.1285437 126.47643799 55.1285437 126.47643799 53.15551758 126.06982422 C44.07550479 124.26193035 35.26393587 123.02917775 26 123 Z " fill="#171717" transform="translate(286,88)"/>
<path d="M0 0 C0.99 0.495 0.99 0.495 2 1 C2.92188461 3.76565382 3.11785222 5.38283702 3.09765625 8.23046875 C3.09282227 9.43413086 3.09282227 9.43413086 3.08789062 10.66210938 C3.07532227 11.91217773 3.07532227 11.91217773 3.0625 13.1875 C3.05798828 14.03248047 3.05347656 14.87746094 3.04882812 15.74804688 C3.03705403 17.83206155 3.0191189 19.91603977 3 22 C4.04569656 21.99333817 4.04569656 21.99333817 5.11251831 21.98654175 C11.67527726 21.94650414 18.23800225 21.91603558 24.80085564 21.89637566 C28.17506994 21.88592858 31.54918352 21.87175275 34.92333984 21.84912109 C38.80048318 21.82495115 42.67748277 21.81353489 46.5546875 21.8046875 C47.76929657 21.79436493 48.98390564 21.78404236 50.23532104 21.77340698 C51.35633209 21.77325592 52.47734314 21.77310486 53.63232422 21.77294922 C54.62271698 21.768508 55.61310974 21.76406677 56.6335144 21.75949097 C59 22 59 22 61 24 C61.30078125 25.875 61.30078125 25.875 61.3125 28 C61.32925781 28.70125 61.34601563 29.4025 61.36328125 30.125 C61.24339844 30.74375 61.12351562 31.3625 61 32 C57.60102327 34.26598448 56.43680827 34.23742654 52.45703125 34.1953125 C50.84731445 34.18564453 50.84731445 34.18564453 49.20507812 34.17578125 C48.08552734 34.15902344 46.96597656 34.14226562 45.8125 34.125 C44.68134766 34.11597656 43.55019531 34.10695313 42.38476562 34.09765625 C39.58963172 34.07406862 36.79492155 34.041153 34 34 C34.03057495 35.15665161 34.03057495 35.15665161 34.06176758 36.33666992 C33.98760173 39.53459597 33.09148745 41.45068487 31.6875 44.3125 C30.15795163 47.51258862 28.71098747 50.64447939 27.5625 54 C24.05130821 63.51108546 18.42640154 71.39262182 12.171875 79.25 C9.95151829 81.9856397 9.95151829 81.9856397 8 85 C7.34 85 6.68 85 6 85 C6 85.99 6 86.98 6 88 C7.0828125 88.37125 7.0828125 88.37125 8.1875 88.75 C11.28674178 90.12744079 13.37144783 91.86048079 16 94 C18.60602907 95.77114562 21.28911064 97.39492954 24 99 C24.77988281 99.4640625 25.55976563 99.928125 26.36328125 100.40625 C31.99336856 103.61856082 37.76836142 106.27550897 43.75 108.75 C44.45890381 109.04374512 45.16780762 109.33749023 45.89819336 109.64013672 C49.2039614 110.97791856 52.43011586 112.14602446 55.890625 113.015625 C59 114 59 114 61 117 C60.70295038 121.15869464 60.33061852 123.50407222 58 127 C50.46748441 126.69530944 44.46700739 124.96824855 37.625 121.875 C36.70887939 121.47120117 35.79275879 121.06740234 34.84887695 120.65136719 C27.92125279 117.54463333 21.41157172 114.07454875 15 110 C14.17628906 109.51402344 13.35257812 109.02804687 12.50390625 108.52734375 C10.63080125 107.41386886 8.80773027 106.21674153 7 105 C7 104.34 7 103.68 7 103 C6.29875 102.773125 5.5975 102.54625 4.875 102.3125 C1.30656387 100.68343133 -1.06514511 98.59359269 -4 96 C-4.45375 96.495 -4.9075 96.99 -5.375 97.5 C-7 99 -7 99 -9 99 C-9 99.66 -9 100.32 -9 101 C-14.41176471 105 -14.41176471 105 -17 105 C-17 105.66 -17 106.32 -17 107 C-18.52197266 108.14160156 -18.52197266 108.14160156 -20.6640625 109.390625 C-21.44998779 109.85017578 -22.23591309 110.30972656 -23.0456543 110.78320312 C-24.32243042 111.50926758 -24.32243042 111.50926758 -25.625 112.25 C-26.48714111 112.74435547 -27.34928223 113.23871094 -28.23754883 113.74804688 C-35.30367707 117.73604991 -42.43698634 121.04882404 -50 124 C-50.78890625 124.34933594 -51.5778125 124.69867188 -52.390625 125.05859375 C-56.9548323 127.01841559 -60.18747586 127.25125628 -65 126 C-67 124 -67 124 -67.3125 120.5625 C-67 117 -67 117 -65.8046875 115.3828125 C-63.55031722 113.65543787 -61.54597924 113.08541482 -58.8125 112.3125 C-44.5101865 107.78776809 -30.49425734 100.01826305 -19.0078125 90.41796875 C-16.96360222 88.97429495 -15.44566898 88.42223433 -13 88 C-14.00445663 85.75928906 -14.87754985 84.12245015 -16.625 82.375 C-17.07875 81.92125 -17.5325 81.4675 -18 81 C-18 80.34 -18 79.68 -18 79 C-18.66 79 -19.32 79 -20 79 C-23.87868475 74.85381975 -26.33709605 69.96102653 -29 65 C-29.58394531 63.9584375 -30.16789062 62.916875 -30.76953125 61.84375 C-40.00094717 45.20776679 -40.00094717 45.20776679 -39 37 C-38.34 36.34 -37.68 35.68 -37 35 C-37.80219971 34.98018066 -38.60439941 34.96036133 -39.4309082 34.93994141 C-43.05844177 34.84480505 -46.68539045 34.7350792 -50.3125 34.625 C-51.57513672 34.5940625 -52.83777344 34.563125 -54.13867188 34.53125 C-55.34716797 34.49257813 -56.55566406 34.45390625 -57.80078125 34.4140625 C-58.91622314 34.3826416 -60.03166504 34.3512207 -61.1809082 34.31884766 C-64 34 -64 34 -67 32 C-67.36328125 30.125 -67.36328125 30.125 -67.3125 28 C-67.30669922 26.948125 -67.30669922 26.948125 -67.30078125 25.875 C-67 24 -67 24 -65 22 C-62.70944214 21.75949097 -62.70944214 21.75949097 -59.81591797 21.77294922 C-58.19446365 21.77317581 -58.19446365 21.77317581 -56.54025269 21.77340698 C-54.78396042 21.78889084 -54.78396042 21.78889084 -52.9921875 21.8046875 C-51.1985527 21.80893234 -51.1985527 21.80893234 -49.36868286 21.81326294 C-45.53735481 21.82448695 -41.70625778 21.84959569 -37.875 21.875 C-35.28255545 21.88502692 -32.69010725 21.89415327 -30.09765625 21.90234375 C-23.73169158 21.92443354 -17.36586229 21.95793294 -11 22 C-11.01571045 21.44014404 -11.0314209 20.88028809 -11.04760742 20.3034668 C-11.10999848 17.7649141 -11.14900218 15.22652271 -11.1875 12.6875 C-11.21263672 11.80642578 -11.23777344 10.92535156 -11.26367188 10.01757812 C-11.27333984 9.17001953 -11.28300781 8.32246094 -11.29296875 7.44921875 C-11.3086792 6.66893311 -11.32438965 5.88864746 -11.34057617 5.0847168 C-10.30812125 -1.23509149 -5.05885955 -0.32119743 0 0 Z M-31 34 C-30.01 35.32 -29.02 36.64 -28 38 C-27.23169296 39.88714144 -26.46785659 41.77669215 -25.75585938 43.68579102 C-20.92498433 56.60895825 -13.42697068 66.94872663 -4 77 C-2.515 76.505 -2.515 76.505 -1 76 C-1 75.34 -1 74.68 -1 74 C-0.34 74 0.32 74 1 74 C2.65081379 71.75903146 2.65081379 71.75903146 4.3125 68.9375 C6.35102265 65.62331141 8.38584564 62.40242819 10.75 59.3125 C12.93946278 56.32882033 14.13498355 53.32290173 15.31640625 49.83203125 C16 48 16 48 17.5625 45.5625 C19.64554894 42.13790616 19.64554894 42.13790616 21 34 C3.84 34 -13.32 34 -31 34 Z " fill="#1A1A1A" transform="translate(312,235)"/>
<path d="M0 0 C4.68333509 2.95253734 6.89876888 6.15552299 8.3125 11.4375 C9.74000226 16.37665781 11.59933636 21.01775758 13.6171875 25.7421875 C15.10492075 29.24718617 16.52938257 32.77503425 17.9375 36.3125 C18.18717529 36.93809814 18.43685059 37.56369629 18.6940918 38.20825195 C19.99161961 41.46141368 21.28409454 44.71655232 22.57421875 47.97265625 C24.9784321 54.02793491 27.3862539 60.06525508 30.140625 65.97265625 C31 68 31 68 31.90698242 70.75048828 C33.73672797 76.19027234 35.92892974 81.4861188 38.0625 86.8125 C38.52205078 87.96943359 38.98160156 89.12636719 39.45507812 90.31835938 C39.89400391 91.41599609 40.33292969 92.51363281 40.78515625 93.64453125 C41.18613525 94.64846924 41.58711426 95.65240723 42.00024414 96.68676758 C42.79652016 98.91937159 42.79652016 98.91937159 44 100 C44.36869204 103.03415418 44.39401885 105.96824382 44 109 C41.9746406 111.40042595 40.45438341 111.85232539 37.5 112.8125 C34.42813952 113.04288954 33.50974526 112.79063419 31 111 C29.68110473 108.55399512 28.59625797 106.24917659 27.5625 103.6875 C27.264646 102.97706543 26.96679199 102.26663086 26.65991211 101.53466797 C25.75634961 99.36291781 24.87478506 97.1834834 24 95 C23.73445313 94.34241699 23.46890625 93.68483398 23.1953125 93.00732422 C19 82.56499678 19 82.56499678 19 80 C3.49 80.33 -12.02 80.66 -28 81 C-31.12325194 89.70114671 -31.12325194 89.70114671 -34.22167969 98.41113281 C-34.61774414 99.49749023 -35.01380859 100.58384766 -35.421875 101.703125 C-35.81987305 102.81333008 -36.21787109 103.92353516 -36.62792969 105.06738281 C-38.06394078 108.13666489 -39.35736332 109.89667692 -42 112 C-45.94016013 112.56288002 -48.05782196 112.60396028 -51.4375 110.4375 C-53.56121778 107.12450026 -53.77588848 104.75584952 -53 101 C-51.79728104 97.5692026 -50.32418593 94.27541498 -48.84765625 90.95507812 C-47.14451598 87.0268675 -45.58294166 83.04028159 -44 79.0625 C-43.47913818 77.75853271 -43.47913818 77.75853271 -42.94775391 76.42822266 C-40.65471819 70.67776134 -38.41308287 64.90942968 -36.20703125 59.125 C-34.85805864 55.63251428 -33.46290083 52.15956075 -32.0625 48.6875 C-29.94066183 43.4241417 -27.91135943 38.13303493 -25.9375 32.8125 C-23.45251912 26.13742693 -20.86882108 19.52172509 -18 13 C-17.38318359 11.58654297 -17.38318359 11.58654297 -16.75390625 10.14453125 C-15.05998974 6.4875713 -13.67273762 3.61819133 -10.6875 0.875 C-7.02149699 -0.31858238 -3.810734 -0.70969135 0 0 Z M-5 16 C-5.14695312 16.54785156 -5.29390625 17.09570312 -5.4453125 17.66015625 C-7.1096249 23.54263975 -9.20706602 29.15824478 -11.51708984 34.81640625 C-13.70243811 40.1932484 -15.74800019 45.6148922 -17.75 51.0625 C-18.04358398 51.85970459 -18.33716797 52.65690918 -18.63964844 53.47827148 C-20.16194445 57.6355475 -21.59896279 61.79688837 -23 66 C-10.79 66 1.42 66 14 66 C10.30179518 55.521753 6.60668012 45.09249341 2.5625 34.75 C0.17425659 28.56227843 -1.96437732 22.31156754 -4 16 C-4.33 16 -4.66 16 -5 16 Z " fill="#151515" transform="translate(190,97)"/>
<path d="M0 0 C0.33 0 0.66 0 1 0 C0.67 7.26 0.34 14.52 0 22 C0.99 22 1.98 22 3 22 C3.0825 21.38125 3.165 20.7625 3.25 20.125 C4 18 4 18 6.0625 16.75 C6.701875 16.5025 7.34125 16.255 8 16 C8 15.01 8 14.02 8 13 C8.66 13 9.32 13 10 13 C10 11.35 10 9.7 10 8 C10.33 8 10.66 8 11 8 C11.04374756 8.82854492 11.04374756 8.82854492 11.08837891 9.67382812 C12.21685042 28.9256319 16.04757152 46.97274498 30.75 60.625 C32 62 32 62 32 64 C32.66 64 33.32 64 34 64 C35.14680415 65.11205251 36.28689269 66.23161 37.3984375 67.37890625 C43.66094615 73.71778696 50.19488402 78.69822418 58 83 C57.01 83.495 57.01 83.495 56 84 C55.01 83.67 54.02 83.34 53 83 C52.505 84.98 52.505 84.98 52 87 C50.35 86.34 48.7 85.68 47 85 C46.67 86.98 46.34 88.96 46 91 C37.01645519 86.37641486 30.17553588 79.97425857 23 73 C22.37996094 72.42636719 21.75992188 71.85273438 21.12109375 71.26171875 C20 70 20 70 20 68 C19.34 68 18.68 68 18 68 C1.99113158 49.61143493 -1.71440416 28.88624795 -1.17700195 5.28979492 C-1 3 -1 3 0 0 Z " fill="#1A1A1A" transform="translate(156,286)"/>
<path d="M0 0 C3 1 3 1 5 2 C5 3.32 5 4.64 5 6 C4.01 6 3.02 6 2 6 C2 6.99 2 7.98 2 9 C11.57 9 21.14 9 31 9 C31 9.33 31 9.66 31 10 C25.14673162 10.02480684 19.29349418 10.04291055 13.44018555 10.05493164 C11.45092231 10.05994564 9.46166273 10.06675849 7.47241211 10.07543945 C4.60529678 10.08763384 1.73823038 10.09325777 -1.12890625 10.09765625 C-2.45276085 10.10539818 -2.45276085 10.10539818 -3.80335999 10.11329651 C-8.64645572 10.11373181 -13.22468478 9.81805934 -18 9 C-18 8.67 -18 8.34 -18 8 C-15.69 8 -13.38 8 -11 8 C-11 7.34 -11 6.68 -11 6 C-9.35 6.33 -7.7 6.66 -6 7 C-5.34 6.01 -4.68 5.02 -4 4 C-2.68 4 -1.36 4 0 4 C0 2.68 0 1.36 0 0 Z " fill="#4A4A4A" transform="translate(293,394)"/>
<path d="M0 0 C0.33 0 0.66 0 1 0 C0.67 7.26 0.34 14.52 0 22 C0.99 22 1.98 22 3 22 C3.0825 21.38125 3.165 20.7625 3.25 20.125 C4 18 4 18 6.0625 16.75 C6.701875 16.5025 7.34125 16.255 8 16 C8 15.01 8 14.02 8 13 C8.66 13 9.32 13 10 13 C10 11.35 10 9.7 10 8 C10.33 8 10.66 8 11 8 C11 12.62 11 17.24 11 22 C10.34 22 9.68 22 9 22 C9 22.66 9 23.32 9 24 C8.01 24 7.02 24 6 24 C5.67 24.66 5.34 25.32 5 26 C3.68 25.34 2.36 24.68 1 24 C0.34 24.99 -0.32 25.98 -1 27 C-1.02898816 23.06251542 -1.04679464 19.12505821 -1.0625 15.1875 C-1.07087891 14.06794922 -1.07925781 12.94839844 -1.08789062 11.79492188 C-1.09111328 10.72177734 -1.09433594 9.64863281 -1.09765625 8.54296875 C-1.10289307 7.55321045 -1.10812988 6.56345215 -1.11352539 5.54370117 C-1 3 -1 3 0 0 Z " fill="#5C5C5C" transform="translate(156,286)"/>
<path d="M0 0 C2.00993705 2.00993705 2.89940919 3.59211232 4.125 6.125 C4.47820313 6.84945312 4.83140625 7.57390625 5.1953125 8.3203125 C5.46085937 8.87460938 5.72640625 9.42890625 6 10 C4.25 11.5625 4.25 11.5625 2 13 C-0.25 12.6875 -0.25 12.6875 -2 12 C-2.33 10.68 -2.66 9.36 -3 8 C-1.68 7.34 -0.36 6.68 1 6 C0.67 4.02 0.34 2.04 0 0 Z " fill="#383838" transform="translate(52,188)"/>
<path d="M0 0 C0.33 0 0.66 0 1 0 C1 4.62 1 9.24 1 14 C-0.98 14 -2.96 14 -5 14 C-5.33 12.68 -5.66 11.36 -6 10 C-4.68 9.34 -3.36 8.68 -2 8 C-2 7.01 -2 6.02 -2 5 C-1.34 5 -0.68 5 0 5 C0 3.35 0 1.7 0 0 Z " fill="#484848" transform="translate(166,294)"/>
<path d="M0 0 C0.66 0 1.32 0 2 0 C1.375 2.4375 1.375 2.4375 0 5 C-1.98985949 5.38932033 -3.99199544 5.71887936 -6 6 C-6.66 6.66 -7.32 7.32 -8 8 C-10.55357529 10.55357529 -12.47447867 10.67949806 -16 11 C-11.36610788 7.06821275 -6.15634781 2.98501565 0 2 C0 1.34 0 0.68 0 0 Z " fill="#606060" transform="translate(92,250)"/>
<path d="M0 0 C0.33 0 0.66 0 1 0 C1 1.65 1 3.3 1 5 C-5.43311296 5.09507063 -11.65758005 5.15316726 -18 4 C-18 3.67 -18 3.34 -18 3 C-15.69 3 -13.38 3 -11 3 C-11 2.34 -11 1.68 -11 1 C-9.35 1.33 -7.7 1.66 -6 2 C-6 2.66 -6 3.32 -6 4 C-4.35 3.67 -2.7 3.34 -1 3 C-0.67 2.01 -0.34 1.02 0 0 Z " fill="#6F6F6F" transform="translate(293,399)"/>
<path d="M0 0 C1.875 0.3125 1.875 0.3125 4 1 C4.66 1.99 5.32 2.98 6 4 C6.99 4.66 7.98 5.32 9 6 C7.625 7.5 7.625 7.5 6 9 C5.34 9 4.68 9 4 9 C0 2.25 0 2.25 0 0 Z " fill="#676767" transform="translate(43,197)"/>
<path d="M0 0 C0.33 1.32 0.66 2.64 1 4 C-0.09283577 5.03295436 -1.19970579 6.05107835 -2.3125 7.0625 C-2.92738281 7.63097656 -3.54226563 8.19945312 -4.17578125 8.78515625 C-4.77777344 9.18605469 -5.37976563 9.58695312 -6 10 C-6.99 9.67 -7.98 9.34 -9 9 C-6.03 6.03 -3.06 3.06 0 0 Z " fill="#616161" transform="translate(422,344)"/>
<path d="M0 0 C1.47177418 3.82661288 0.57016757 6.31010622 -1 10 C-2.5625 11.75 -2.5625 11.75 -4 13 C-4.33 13.66 -4.66 14.32 -5 15 C-5.66 15 -6.32 15 -7 15 C-6.06254786 12.4039787 -5.19723851 10.25476641 -3.5 8.0625 C-1.65299252 5.52286471 -0.88476994 2.99460595 0 0 Z " fill="#525252" transform="translate(326,285)"/>
<path d="M0 0 C1.6490302 0.61651583 3.29415841 1.24347742 4.9375 1.875 C6.31228516 2.39707031 6.31228516 2.39707031 7.71484375 2.9296875 C10 4 10 4 11 6 C7.7 5.34 4.4 4.68 1 4 C0.67 2.68 0.34 1.36 0 0 Z " fill="#5A5A5A" transform="translate(383,215)"/>
<path d="M0 0 C2.00993705 2.00993705 2.89940919 3.59211232 4.125 6.125 C4.47820313 6.84945312 4.83140625 7.57390625 5.1953125 8.3203125 C5.46085937 8.87460938 5.72640625 9.42890625 6 10 C5.01 10.33 4.02 10.66 3 11 C2.67 10.01 2.34 9.02 2 8 C1.01 7.67 0.02 7.34 -1 7 C-0.34 6.67 0.32 6.34 1 6 C0.67 4.02 0.34 2.04 0 0 Z " fill="#6C6C6C" transform="translate(52,188)"/>
<path d="M0 0 C0.99 1.32 1.98 2.64 3 4 C2.01 4.66 1.02 5.32 0 6 C-1.19232613 8.05003955 -1.19232613 8.05003955 -2 10 C-3 8 -3 8 -2.44140625 6.0546875 C-2.15136719 5.33539063 -1.86132812 4.61609375 -1.5625 3.875 C-1.27503906 3.15054688 -0.98757812 2.42609375 -0.69140625 1.6796875 C-0.46324219 1.12539062 -0.23507813 0.57109375 0 0 Z " fill="#545454" transform="translate(165,128)"/>
<path d="M0 0 C2.02045442 0.60183749 4.02111039 1.27306096 6 2 C6.33 2.66 6.66 3.32 7 4 C6.236875 3.979375 5.47375 3.95875 4.6875 3.9375 C1.89814214 3.87057159 1.89814214 3.87057159 -1 5 C-0.67 3.35 -0.34 1.7 0 0 Z " fill="#515151" transform="translate(207,366)"/>
<path d="M0 0 C2.0625 0.4375 2.0625 0.4375 4 1 C3.67 1.99 3.34 2.98 3 4 C2.01 4.33 1.02 4.66 0 5 C-0.5625 3.0625 -0.5625 3.0625 -1 1 C-0.67 0.67 -0.34 0.34 0 0 Z " fill="#0E0E0E" transform="translate(207,62)"/>
</svg>
